
<svg version="1.0" xmlns="http://www.w3.org/2000/svg"
     width="707.000000pt" height="660.000000pt" viewBox="0 0 707.000000 660.000000"
     preserveAspectRatio="xMidYMid meet">

    <g transform="translate(0.000000,660.000000) scale(0.100000,-0.100000)"
       fill="#000000" stroke="none">
        <path d="M3965 6395 c-38 -10 -1508 -612 -2362 -967 l-73 -30 -2 -540 -3 -539
-622 -257 -623 -256 0 -1032 c0 -816 3 -1033 13 -1037 6 -2 215 -87 462 -187
248 -100 456 -185 462 -187 10 -4 13 208 15 1027 l3 1031 144 60 c79 32 146
59 148 59 1 0 3 -524 3 -1164 l0 -1163 475 -192 c261 -105 477 -191 480 -191
3 0 5 942 5 2093 l0 2092 1193 490 c655 269 1215 495 1242 503 31 8 84 12 137
10 l88 -4 -458 184 c-251 101 -482 190 -512 198 -69 17 -150 17 -215 -1z"/>
        <path d="M5193 5198 c-34 -13 -587 -239 -1227 -503 l-1165 -480 -1 -1761 c0
-1400 3 -1763 13 -1767 6 -3 219 -89 472 -191 252 -102 463 -186 467 -186 4 0
8 791 8 1758 l0 1759 1203 496 c813 335 1223 499 1267 507 37 7 88 9 120 5 30
-4 53 -5 50 -2 -3 3 -214 90 -470 193 l-465 188 -105 3 c-90 3 -114 0 -167
-19z"/>
        <path d="M5440 3559 c-19 -5 -110 -40 -202 -76 l-168 -67 0 -252 c0 -288 -8
-334 -80 -442 -61 -91 -137 -147 -267 -197 l-73 -28 0 -388 0 -387 338 135
c185 74 373 152 416 174 340 169 572 504 617 890 30 261 -26 434 -178 551 -88
66 -157 90 -273 94 -52 2 -111 -1 -130 -7z"/>
    </g>
</svg>
