<svg version="1.1" viewBox="0.0 0.0 462.0 371.0" fill="none" stroke="none" stroke-linecap="square" stroke-miterlimit="10" width="462" height="371" xmlns:xlink="http://www.w3.org/1999/xlink" xmlns="http://www.w3.org/2000/svg"><path fill="#ffffff" d="M0 0L462.0 0L462.0 371.0L0 371.0L0 0Z" fill-rule="nonzero"/><path stroke="#333333" stroke-width="1.0" stroke-linecap="butt" d="M88.5 286.5L443.5 286.5" fill-rule="nonzero"/><path stroke="#cccccc" stroke-width="1.0" stroke-linecap="butt" d="M88.5 241.5L443.5 241.5" fill-rule="nonzero"/><path stroke="#cccccc" stroke-width="1.0" stroke-linecap="butt" d="M88.5 196.5L443.5 196.5" fill-rule="nonzero"/><path stroke="#cccccc" stroke-width="1.0" stroke-linecap="butt" d="M88.5 151.5L443.5 151.5" fill-rule="nonzero"/><path stroke="#cccccc" stroke-width="1.0" stroke-linecap="butt" d="M88.5 106.5L443.5 106.5" fill-rule="nonzero"/><path stroke="#cccccc" stroke-width="1.0" stroke-linecap="butt" d="M88.5 61.5L443.5 61.5" fill-rule="nonzero"/><clipPath id="id_0"><path d="M88.55 61.916668L443.45 61.916668L443.45 286.45L88.55 286.45L88.55 61.916668Z" clip-rule="nonzero"/></clipPath><path stroke="#000000" stroke-width="2.0" stroke-linecap="butt" stroke-opacity="0.0" clip-path="url(#id_0)" d="M195.0 286.0L126.0 286.0L126.0 173.0C126.0 171.89543 126.89543 171.0 128.0 171.0L193.0 171.0C194.10457 171.0 195.0 171.89543 195.0 173.0Z" fill-rule="nonzero"/><path fill="#e0ce58" clip-path="url(#id_0)" d="M195.0 286.0L126.0 286.0L126.0 173.0C126.0 171.89543 126.89543 171.0 128.0 171.0L193.0 171.0C194.10457 171.0 195.0 171.89543 195.0 173.0Z" fill-rule="nonzero"/><path stroke="#000000" stroke-width="2.0" stroke-linecap="butt" stroke-opacity="0.0" clip-path="url(#id_0)" d="M301.0 286.0L232.0 286.0L232.0 82.0C232.0 80.89543 232.89543 80.0 234.0 80.0L299.0 80.0C300.10458 80.0 301.0 80.89543 301.0 82.0Z" fill-rule="nonzero"/><path fill="#e0ce58" clip-path="url(#id_0)" d="M301.0 286.0L232.0 286.0L232.0 82.0C232.0 80.89543 232.89543 80.0 234.0 80.0L299.0 80.0C300.10458 80.0 301.0 80.89543 301.0 82.0Z" fill-rule="nonzero"/><path stroke="#000000" stroke-width="2.0" stroke-linecap="butt" stroke-opacity="0.0" clip-path="url(#id_0)" d="M407.0 286.0L338.0 286.0L338.0 82.0C338.0 80.89543 338.89542 80.0 340.0 80.0L405.0 80.0C406.10458 80.0 407.0 80.89543 407.0 82.0Z" fill-rule="nonzero"/><path fill="#e0ce58" clip-path="url(#id_0)" d="M407.0 286.0L338.0 286.0L338.0 82.0C338.0 80.89543 338.89542 80.0 340.0 80.0L405.0 80.0C406.10458 80.0 407.0 80.89543 407.0 82.0Z" fill-rule="nonzero"/><path fill="#000000" d="M243.40625 344.4344L244.92188 344.8094Q244.45312 346.6844 243.20312 347.66876Q241.96875 348.65314 240.1875 348.65314Q238.32812 348.65314 237.17188 347.90314Q236.01562 347.1375 235.40625 345.71564Q234.79688 344.27814 234.79688 342.6375Q234.79688 340.84064 235.48438 339.5125Q236.17188 338.1844 237.42188 337.4969Q238.6875 336.79376 240.20312 336.79376Q241.92188 336.79376 243.09375 337.66876Q244.26562 338.54376 244.73438 340.1375L243.23438 340.48126Q242.84375 339.23126 242.07812 338.66876Q241.32812 338.09064 240.17188 338.09064Q238.85938 338.09064 237.96875 338.73126Q237.07812 339.35626 236.71875 340.4344Q236.35938 341.4969 236.35938 342.6219Q236.35938 344.09064 236.78125 345.1844Q237.21875 346.2625 238.10938 346.8094Q239.01562 347.34064 240.0625 347.34064Q241.32812 347.34064 242.20312 346.60626Q243.09375 345.8719 243.40625 344.4344ZM246.53125 344.29376Q246.53125 341.9969 247.8125 340.8875Q248.89062 339.96564 250.42188 339.96564Q252.14062 339.96564 253.21875 341.09064Q254.3125 342.2 254.3125 344.1844Q254.3125 345.77814 253.82812 346.7Q253.34375 347.6219 252.42188 348.1375Q251.51562 348.6375 250.42188 348.6375Q248.6875 348.6375 247.60938 347.52814Q246.53125 346.40314 246.53125 344.29376ZM247.98438 344.29376Q247.98438 345.8875 248.67188 346.6844Q249.375 347.48126 250.42188 347.48126Q251.46875 347.48126 252.15625 346.6844Q252.85938 345.8875 252.85938 344.2469Q252.85938 342.71564 252.15625 341.91876Q251.46875 341.1219 250.42188 341.1219Q249.375 341.1219 248.67188 341.91876Q247.98438 342.7 247.98438 344.29376ZM256.0625 348.45L256.0625 340.15314L257.32812 340.15314L257.32812 341.325Q258.23438 339.96564 259.96875 339.96564Q260.71875 339.96564 261.34375 340.23126Q261.96875 340.4969 262.28125 340.9344Q262.59375 341.3719 262.71875 341.98126Q262.79688 342.3719 262.79688 343.34064L262.79688 348.45L261.39062 348.45L261.39062 343.40314Q261.39062 342.54376 261.21875 342.1219Q261.0625 341.6844 260.64062 341.4344Q260.23438 341.1844 259.67188 341.1844Q258.76562 341.1844 258.10938 341.7625Q257.46875 342.325 257.46875 343.91876L257.46875 348.45L256.0625 348.45ZM269.73438 345.77814L271.1875 345.95Q270.84375 347.23126 269.90625 347.9344Q268.98438 348.6375 267.54688 348.6375Q265.71875 348.6375 264.65625 347.5125Q263.59375 346.3875 263.59375 344.3719Q263.59375 342.27814 264.67188 341.1219Q265.75 339.96564 267.46875 339.96564Q269.125 339.96564 270.17188 341.10626Q271.23438 342.23126 271.23438 344.27814Q271.23438 344.40314 271.23438 344.65314L265.04688 344.65314Q265.125 346.02814 265.8125 346.7625Q266.51562 347.48126 267.54688 347.48126Q268.32812 347.48126 268.875 347.075Q269.42188 346.66876 269.73438 345.77814ZM265.125 343.4969L269.75 343.4969Q269.65625 342.45 269.21875 341.9344Q268.54688 341.1219 267.48438 341.1219Q266.51562 341.1219 265.84375 341.77814Q265.1875 342.41876 265.125 343.4969ZM278.46875 345.40314L279.85938 345.59064Q279.625 347.0125 278.6875 347.825Q277.76562 348.6375 276.40625 348.6375Q274.70312 348.6375 273.65625 347.52814Q272.625 346.40314 272.625 344.325Q272.625 342.98126 273.0625 341.98126Q273.51562 340.96564 274.42188 340.46564Q275.34375 339.96564 276.40625 339.96564Q277.76562 339.96564 278.625 340.65314Q279.48438 341.325 279.71875 342.59064L278.35938 342.79376Q278.15625 341.96564 277.65625 341.54376Q277.17188 341.1219 276.46875 341.1219Q275.40625 341.1219 274.73438 341.8875Q274.07812 342.6375 274.07812 344.29376Q274.07812 345.96564 274.71875 346.73126Q275.35938 347.48126 276.39062 347.48126Q277.21875 347.48126 277.76562 346.98126Q278.32812 346.46564 278.46875 345.40314ZM284.125 347.1844L284.32812 348.4344Q283.73438 348.5594 283.26562 348.5594Q282.5 348.5594 282.07812 348.325Q281.65625 348.075 281.48438 347.6844Q281.3125 347.27814 281.3125 346.0125L281.3125 341.2469L280.28125 341.2469L280.28125 340.15314L281.3125 340.15314L281.3125 338.09064L282.71875 337.2469L282.71875 340.15314L284.125 340.15314L284.125 341.2469L282.71875 341.2469L282.71875 346.09064Q282.71875 346.7 282.78125 346.8719Q282.85938 347.04376 283.03125 347.15314Q283.20312 347.2469 283.51562 347.2469Q283.75 347.2469 284.125 347.1844ZM284.53125 344.29376Q284.53125 341.9969 285.8125 340.8875Q286.89062 339.96564 288.42188 339.96564Q290.14062 339.96564 291.21875 341.09064Q292.3125 342.2 292.3125 344.1844Q292.3125 345.77814 291.82812 346.7Q291.34375 347.6219 290.42188 348.1375Q289.51562 348.6375 288.42188 348.6375Q286.6875 348.6375 285.60938 347.52814Q284.53125 346.40314 284.53125 344.29376ZM285.98438 344.29376Q285.98438 345.8875 286.67188 346.6844Q287.375 347.48126 288.42188 347.48126Q289.46875 347.48126 290.15625 346.6844Q290.85938 345.8875 290.85938 344.2469Q290.85938 342.71564 290.15625 341.91876Q289.46875 341.1219 288.42188 341.1219Q287.375 341.1219 286.67188 341.91876Q285.98438 342.7 285.98438 344.29376ZM294.04688 348.45L294.04688 340.15314L295.3125 340.15314L295.3125 341.40314Q295.79688 340.52814 296.20312 340.2469Q296.60938 339.96564 297.10938 339.96564Q297.8125 339.96564 298.54688 340.41876L298.0625 341.71564Q297.54688 341.41876 297.03125 341.41876Q296.57812 341.41876 296.20312 341.7Q295.84375 341.96564 295.6875 342.46564Q295.45312 343.21564 295.45312 344.10626L295.45312 348.45L294.04688 348.45Z" fill-rule="nonzero"/><path fill="#000000" d="M33.55001 225.63646L25.253138 225.63646L25.253138 224.37083L26.503138 224.37083Q25.628138 223.88646 25.346888 223.48021Q25.065638 223.07396 25.065638 222.57396Q25.065638 221.87083 25.518763 221.13646L26.815638 221.62083Q26.518763 222.13646 26.518763 222.65208Q26.518763 223.10521 26.800013 223.48021Q27.065638 223.83958 27.565638 223.99583Q28.315638 224.23021 29.206263 224.23021L33.55001 224.23021L33.55001 225.63646ZM30.878138 214.94896L31.050013 213.49583Q32.33126 213.83958 33.034386 214.77708Q33.73751 215.69896 33.73751 217.13646Q33.73751 218.96458 32.61251 220.02708Q31.487513 221.08958 29.471888 221.08958Q27.378138 221.08958 26.221888 220.01146Q25.065638 218.93333 25.065638 217.21458Q25.065638 215.55833 26.206263 214.51146Q27.331263 213.44896 29.378138 213.44896Q29.503138 213.44896 29.753138 213.44896L29.753138 219.63646Q31.128138 219.55833 31.862513 218.87083Q32.58126 218.16771 32.58126 217.13646Q32.58126 216.35521 32.17501 215.80833Q31.768763 215.26146 30.878138 214.94896ZM28.596888 219.55833L28.596888 214.93333Q27.550013 215.02708 27.034388 215.46458Q26.221888 216.13646 26.221888 217.19896Q26.221888 218.16771 26.878138 218.83958Q27.518763 219.49583 28.596888 219.55833ZM36.73751 206.33958L32.659386 206.33958Q33.128136 206.66771 33.440636 207.26146Q33.73751 207.83958 33.73751 208.51146Q33.73751 209.98021 32.565636 211.05833Q31.378138 212.12083 29.315638 212.12083Q28.065638 212.12083 27.081263 211.68333Q26.081263 211.24583 25.581263 210.43333Q25.065638 209.60521 25.065638 208.62083Q25.065638 207.07396 26.362513 206.19896L25.253138 206.19896L25.253138 204.93333L36.73751 204.93333L36.73751 206.33958ZM29.378138 210.66771Q30.971888 210.66771 31.784388 209.99583Q32.58126 209.32396 32.58126 208.38646Q32.58126 207.49583 31.815638 206.85521Q31.050013 206.19896 29.503138 206.19896Q27.846888 206.19896 27.018763 206.88646Q26.175013 207.55833 26.175013 208.48021Q26.175013 209.40208 26.956263 210.04271Q27.721888 210.66771 29.378138 210.66771ZM33.55001 197.18333L32.33126 197.18333Q33.73751 198.15208 33.73751 199.82396Q33.73751 200.55833 33.45626 201.19896Q33.17501 201.82396 32.753136 202.13646Q32.315636 202.44896 31.706263 202.57396Q31.284388 202.65208 30.393763 202.65208L25.253138 202.65208L25.253138 201.24583L29.846888 201.24583Q30.956263 201.24583 31.331263 201.16771Q31.893763 201.02708 32.20626 200.60521Q32.51876 200.16771 32.51876 199.54271Q32.51876 198.90208 32.20626 198.35521Q31.878138 197.79271 31.315638 197.57396Q30.753138 197.33958 29.690638 197.33958L25.253138 197.33958L25.253138 195.93333L33.55001 195.93333L33.55001 197.18333ZM30.878138 188.94896L31.050013 187.49583Q32.33126 187.83958 33.034386 188.77708Q33.73751 189.69896 33.73751 191.13646Q33.73751 192.96458 32.61251 194.02708Q31.487513 195.08958 29.471888 195.08958Q27.378138 195.08958 26.221888 194.01146Q25.065638 192.93333 25.065638 191.21458Q25.065638 189.55833 26.206263 188.51146Q27.331263 187.44896 29.378138 187.44896Q29.503138 187.44896 29.753138 187.44896L29.753138 193.63646Q31.128138 193.55833 31.862513 192.87083Q32.58126 192.16771 32.58126 191.13646Q32.58126 190.35521 32.17501 189.80833Q31.768763 189.26146 30.878138 188.94896ZM28.596888 193.55833L28.596888 188.93333Q27.550013 189.02708 27.034388 189.46458Q26.221888 190.13646 26.221888 191.19896Q26.221888 192.16771 26.878138 192.83958Q27.518763 193.49583 28.596888 193.55833ZM31.065638 186.18333L30.846888 184.79271Q31.690638 184.68333 32.14376 184.15208Q32.58126 183.60521 32.58126 182.65208Q32.58126 181.68333 32.190636 181.21458Q31.784388 180.74583 31.253138 180.74583Q30.784388 180.74583 30.503138 181.15208Q30.315638 181.44896 30.034388 182.58958Q29.643763 184.13646 29.362513 184.74583Q29.065638 185.33958 28.565638 185.65208Q28.065638 185.94896 27.456263 185.94896Q26.893763 185.94896 26.425013 185.69896Q25.956263 185.44896 25.643763 185.01146Q25.393763 184.68333 25.237513 184.12083Q25.065638 183.54271 25.065638 182.90208Q25.065638 181.91771 25.346888 181.18333Q25.628138 180.44896 26.112513 180.10521Q26.581263 179.74583 27.393763 179.60521L27.581263 180.98021Q26.940638 181.07396 26.581263 181.52708Q26.221888 181.98021 26.221888 182.79271Q26.221888 183.76146 26.550013 184.18333Q26.862513 184.58958 27.284388 184.58958Q27.565638 184.58958 27.784388 184.41771Q28.003138 184.24583 28.159388 183.88646Q28.237513 183.66771 28.518763 182.63646Q28.909388 181.15208 29.175013 180.55833Q29.425013 179.96458 29.909388 179.63646Q30.393763 179.29271 31.112513 179.29271Q31.815638 179.29271 32.440636 179.71458Q33.05001 180.12083 33.39376 180.90208Q33.73751 181.66771 33.73751 182.63646Q33.73751 184.26146 33.065636 185.10521Q32.39376 185.94896 31.065638 186.18333ZM32.284386 174.55833L33.534386 174.35521Q33.659386 174.94896 33.659386 175.41771Q33.659386 176.18333 33.42501 176.60521Q33.17501 177.02708 32.784386 177.19896Q32.378136 177.37083 31.112513 177.37083L26.346888 177.37083L26.346888 178.40208L25.253138 178.40208L25.253138 177.37083L23.190638 177.37083L22.346888 175.96458L25.253138 175.96458L25.253138 174.55833L26.346888 174.55833L26.346888 175.96458L31.190638 175.96458Q31.800013 175.96458 31.971888 175.90208Q32.14376 175.82396 32.253136 175.65208Q32.346886 175.48021 32.346886 175.16771Q32.346886 174.93333 32.284386 174.55833ZM31.065638 174.18333L30.846888 172.79271Q31.690638 172.68333 32.14376 172.15208Q32.58126 171.60521 32.58126 170.65208Q32.58126 169.68333 32.190636 169.21458Q31.784388 168.74583 31.253138 168.74583Q30.784388 168.74583 30.503138 169.15208Q30.315638 169.44896 30.034388 170.58958Q29.643763 172.13646 29.362513 172.74583Q29.065638 173.33958 28.565638 173.65208Q28.065638 173.94896 27.456263 173.94896Q26.893763 173.94896 26.425013 173.69896Q25.956263 173.44896 25.643763 173.01146Q25.393763 172.68333 25.237513 172.12083Q25.065638 171.54271 25.065638 170.90208Q25.065638 169.91771 25.346888 169.18333Q25.628138 168.44896 26.112513 168.10521Q26.581263 167.74583 27.393763 167.60521L27.581263 168.98021Q26.940638 169.07396 26.581263 169.52708Q26.221888 169.98021 26.221888 170.79271Q26.221888 171.76146 26.550013 172.18333Q26.862513 172.58958 27.284388 172.58958Q27.565638 172.58958 27.784388 172.41771Q28.003138 172.24583 28.159388 171.88646Q28.237513 171.66771 28.518763 170.63646Q28.909388 169.15208 29.175013 168.55833Q29.425013 167.96458 29.909388 167.63646Q30.393763 167.29271 31.112513 167.29271Q31.815638 167.29271 32.440636 167.71458Q33.05001 168.12083 33.39376 168.90208Q33.73751 169.66771 33.73751 170.63646Q33.73751 172.26146 33.065636 173.10521Q32.39376 173.94896 31.065638 174.18333ZM33.753136 166.68333L21.893763 163.35521L21.893763 162.23021L33.753136 165.54271L33.753136 166.68333ZM31.065638 162.18333L30.846888 160.79271Q31.690638 160.68333 32.14376 160.15208Q32.58126 159.60521 32.58126 158.65208Q32.58126 157.68333 32.190636 157.21458Q31.784388 156.74583 31.253138 156.74583Q30.784388 156.74583 30.503138 157.15208Q30.315638 157.44896 30.034388 158.58958Q29.643763 160.13646 29.362513 160.74583Q29.065638 161.33958 28.565638 161.65208Q28.065638 161.94896 27.456263 161.94896Q26.893763 161.94896 26.425013 161.69896Q25.956263 161.44896 25.643763 161.01146Q25.393763 160.68333 25.237513 160.12083Q25.065638 159.54271 25.065638 158.90208Q25.065638 157.91771 25.346888 157.18333Q25.628138 156.44896 26.112513 156.10521Q26.581263 155.74583 27.393763 155.60521L27.581263 156.98021Q26.940638 157.07396 26.581263 157.52708Q26.221888 157.98021 26.221888 158.79271Q26.221888 159.76146 26.550013 160.18333Q26.862513 160.58958 27.284388 160.58958Q27.565638 160.58958 27.784388 160.41771Q28.003138 160.24583 28.159388 159.88646Q28.237513 159.66771 28.518763 158.63646Q28.909388 157.15208 29.175013 156.55833Q29.425013 155.96458 29.909388 155.63646Q30.393763 155.29271 31.112513 155.29271Q31.815638 155.29271 32.440636 155.71458Q33.05001 156.12083 33.39376 156.90208Q33.73751 157.66771 33.73751 158.63646Q33.73751 160.26146 33.065636 161.10521Q32.39376 161.94896 31.065638 162.18333ZM30.878138 147.94896L31.050013 146.49583Q32.33126 146.83958 33.034386 147.77708Q33.73751 148.69896 33.73751 150.13646Q33.73751 151.96458 32.61251 153.02708Q31.487513 154.08958 29.471888 154.08958Q27.378138 154.08958 26.221888 153.01146Q25.065638 151.93333 25.065638 150.21458Q25.065638 148.55833 26.206263 147.51146Q27.331263 146.44896 29.378138 146.44896Q29.503138 146.44896 29.753138 146.44896L29.753138 152.63646Q31.128138 152.55833 31.862513 151.87083Q32.58126 151.16771 32.58126 150.13646Q32.58126 149.35521 32.17501 148.80833Q31.768763 148.26146 30.878138 147.94896ZM28.596888 152.55833L28.596888 147.93333Q27.550013 148.02708 27.034388 148.46458Q26.221888 149.13646 26.221888 150.19896Q26.221888 151.16771 26.878138 151.83958Q27.518763 152.49583 28.596888 152.55833ZM30.503138 139.21458L30.690638 137.82396Q32.11251 138.05833 32.92501 138.99583Q33.73751 139.91771 33.73751 141.27708Q33.73751 142.98021 32.628136 144.02708Q31.503138 145.05833 29.425013 145.05833Q28.081263 145.05833 27.081263 144.62083Q26.065638 144.16771 25.565638 143.26146Q25.065638 142.33958 25.065638 141.27708Q25.065638 139.91771 25.753138 139.05833Q26.425013 138.19896 27.690638 137.96458L27.893763 139.32396Q27.065638 139.52708 26.643763 140.02708Q26.221888 140.51146 26.221888 141.21458Q26.221888 142.27708 26.987513 142.94896Q27.737513 143.60521 29.393763 143.60521Q31.065638 143.60521 31.831263 142.96458Q32.58126 142.32396 32.58126 141.29271Q32.58126 140.46458 32.08126 139.91771Q31.565638 139.35521 30.503138 139.21458Z" fill-rule="nonzero"/><path fill="#000000" d="M76.05 286.21564Q76.05 284.6844 76.3625 283.7625Q76.675 282.825 77.28438 282.325Q77.90938 281.825 78.84688 281.825Q79.53438 281.825 80.05 282.10626Q80.58125 282.3875 80.925 282.91876Q81.26875 283.4344 81.45625 284.1844Q81.64375 284.9344 81.64375 286.21564Q81.64375 287.73126 81.33125 288.65314Q81.03438 289.575 80.40938 290.09064Q79.8 290.59064 78.84688 290.59064Q77.6125 290.59064 76.89375 289.7Q76.05 288.6375 76.05 286.21564ZM77.12813 286.21564Q77.12813 288.325 77.62813 289.02814Q78.12813 289.73126 78.84688 289.73126Q79.58125 289.73126 80.06563 289.02814Q80.56563 288.325 80.56563 286.21564Q80.56563 284.09064 80.06563 283.40314Q79.58125 282.7 78.83125 282.7Q78.1125 282.7 77.675 283.3094Q77.12813 284.09064 77.12813 286.21564Z" fill-rule="nonzero"/><path fill="#000000" d="M66.01875 245.54333L64.97188 245.54333L64.97188 238.82458Q64.58125 239.18396 63.95625 239.55896Q63.346874 239.91833 62.8625 240.09021L62.8625 239.07458Q63.7375 238.65271 64.39375 238.07458Q65.06563 237.48083 65.34688 236.91833L66.01875 236.91833L66.01875 245.54333ZM69.05 241.30896Q69.05 239.77771 69.3625 238.85583Q69.675 237.91833 70.28438 237.41833Q70.90938 236.91833 71.84688 236.91833Q72.53438 236.91833 73.05 237.19958Q73.58125 237.48083 73.925 238.01208Q74.26875 238.52771 74.45625 239.27771Q74.64375 240.02771 74.64375 241.30896Q74.64375 242.82458 74.33125 243.74646Q74.03438 244.66833 73.40938 245.18396Q72.8 245.68396 71.84688 245.68396Q70.6125 245.68396 69.89375 244.79333Q69.05 243.73083 69.05 241.30896ZM70.12813 241.30896Q70.12813 243.41833 70.62813 244.12146Q71.12813 244.82458 71.84688 244.82458Q72.58125 244.82458 73.06563 244.12146Q73.56563 243.41833 73.56563 241.30896Q73.56563 239.18396 73.06563 238.49646Q72.58125 237.79333 71.83125 237.79333Q71.1125 237.79333 70.675 238.40271Q70.12813 239.18396 70.12813 241.30896ZM76.05 241.30896Q76.05 239.77771 76.3625 238.85583Q76.675 237.91833 77.28438 237.41833Q77.90938 236.91833 78.84688 236.91833Q79.53438 236.91833 80.05 237.19958Q80.58125 237.48083 80.925 238.01208Q81.26875 238.52771 81.45625 239.27771Q81.64375 240.02771 81.64375 241.30896Q81.64375 242.82458 81.33125 243.74646Q81.03438 244.66833 80.40938 245.18396Q79.8 245.68396 78.84688 245.68396Q77.6125 245.68396 76.89375 244.79333Q76.05 243.73083 76.05 241.30896ZM77.12813 241.30896Q77.12813 243.41833 77.62813 244.12146Q78.12813 244.82458 78.84688 244.82458Q79.58125 244.82458 80.06563 244.12146Q80.56563 243.41833 80.56563 241.30896Q80.56563 239.18396 80.06563 238.49646Q79.58125 237.79333 78.83125 237.79333Q78.1125 237.79333 77.675 238.40271Q77.12813 239.18396 77.12813 241.30896Z" fill-rule="nonzero"/><path fill="#000000" d="M67.59688 199.62105L67.59688 200.63667L61.909374 200.63667Q61.909374 200.26167 62.034374 199.9023Q62.253124 199.32417 62.721874 198.76167Q63.20625 198.19917 64.1125 197.4648Q65.51875 196.30855 66.00313 195.63667Q66.50313 194.9648 66.50313 194.37105Q66.50313 193.74605 66.05 193.32417Q65.59688 192.88667 64.87813 192.88667Q64.1125 192.88667 63.659374 193.3398Q63.20625 193.79292 63.190624 194.60542L62.1125 194.49605Q62.221874 193.2773 62.940624 192.6523Q63.675 192.01167 64.90938 192.01167Q66.14375 192.01167 66.8625 192.69917Q67.58125 193.38667 67.58125 194.4023Q67.58125 194.91792 67.3625 195.41792Q67.15938 195.9023 66.65938 196.4648Q66.175 197.01167 65.05 197.9648Q64.09688 198.76167 63.815624 199.05855Q63.55 199.3398 63.378124 199.62105L67.59688 199.62105ZM69.05 196.4023Q69.05 194.87105 69.3625 193.94917Q69.675 193.01167 70.28438 192.51167Q70.90938 192.01167 71.84688 192.01167Q72.53438 192.01167 73.05 192.29292Q73.58125 192.57417 73.925 193.10542Q74.26875 193.62105 74.45625 194.37105Q74.64375 195.12105 74.64375 196.4023Q74.64375 197.91792 74.33125 198.8398Q74.03438 199.76167 73.40938 200.2773Q72.8 200.7773 71.84688 200.7773Q70.6125 200.7773 69.89375 199.88667Q69.05 198.82417 69.05 196.4023ZM70.12813 196.4023Q70.12813 198.51167 70.62813 199.2148Q71.12813 199.91792 71.84688 199.91792Q72.58125 199.91792 73.06563 199.2148Q73.56563 198.51167 73.56563 196.4023Q73.56563 194.2773 73.06563 193.5898Q72.58125 192.88667 71.83125 192.88667Q71.1125 192.88667 70.675 193.49605Q70.12813 194.2773 70.12813 196.4023ZM76.05 196.4023Q76.05 194.87105 76.3625 193.94917Q76.675 193.01167 77.28438 192.51167Q77.90938 192.01167 78.84688 192.01167Q79.53438 192.01167 80.05 192.29292Q80.58125 192.57417 80.925 193.10542Q81.26875 193.62105 81.45625 194.37105Q81.64375 195.12105 81.64375 196.4023Q81.64375 197.91792 81.33125 198.8398Q81.03438 199.76167 80.40938 200.2773Q79.8 200.7773 78.84688 200.7773Q77.6125 200.7773 76.89375 199.88667Q76.05 198.82417 76.05 196.4023ZM77.12813 196.4023Q77.12813 198.51167 77.62813 199.2148Q78.12813 199.91792 78.84688 199.91792Q79.58125 199.91792 80.06563 199.2148Q80.56563 198.51167 80.56563 196.4023Q80.56563 194.2773 80.06563 193.5898Q79.58125 192.88667 78.83125 192.88667Q78.1125 192.88667 77.675 193.49605Q77.12813 194.2773 77.12813 196.4023Z" fill-rule="nonzero"/><path fill="#000000" d="M62.05 153.46437L63.1125 153.32375Q63.284374 154.21437 63.721874 154.62062Q64.15938 155.01125 64.78438 155.01125Q65.53438 155.01125 66.05 154.49562Q66.56563 153.98 66.56563 153.21437Q66.56563 152.49562 66.08125 152.02687Q65.6125 151.5425 64.87813 151.5425Q64.58125 151.5425 64.12813 151.6675L64.25313 150.73Q64.3625 150.74562 64.425 150.74562Q65.09688 150.74562 65.62813 150.40187Q66.175 150.0425 66.175 149.30812Q66.175 148.73 65.78438 148.355Q65.39375 147.96437 64.76875 147.96437Q64.15938 147.96437 63.7375 148.355Q63.33125 148.74562 63.221874 149.51125L62.159374 149.32375Q62.346874 148.27687 63.034374 147.69875Q63.721874 147.105 64.7375 147.105Q65.44063 147.105 66.03438 147.4175Q66.62813 147.71437 66.94063 148.23Q67.25313 148.74562 67.25313 149.33937Q67.25313 149.88625 66.95625 150.355Q66.65938 150.80812 66.08125 151.07375Q66.83125 151.24562 67.25313 151.80812Q67.675 152.355 67.675 153.19875Q67.675 154.32375 66.84688 155.105Q66.03438 155.88625 64.78438 155.88625Q63.659374 155.88625 62.909374 155.21437Q62.159374 154.52687 62.05 153.46437ZM69.05 151.49562Q69.05 149.96437 69.3625 149.0425Q69.675 148.105 70.28438 147.605Q70.90938 147.105 71.84688 147.105Q72.53438 147.105 73.05 147.38625Q73.58125 147.6675 73.925 148.19875Q74.26875 148.71437 74.45625 149.46437Q74.64375 150.21437 74.64375 151.49562Q74.64375 153.01125 74.33125 153.93312Q74.03438 154.855 73.40938 155.37062Q72.8 155.87062 71.84688 155.87062Q70.6125 155.87062 69.89375 154.98Q69.05 153.9175 69.05 151.49562ZM70.12813 151.49562Q70.12813 153.605 70.62813 154.30812Q71.12813 155.01125 71.84688 155.01125Q72.58125 155.01125 73.06563 154.30812Q73.56563 153.605 73.56563 151.49562Q73.56563 149.37062 73.06563 148.68312Q72.58125 147.98 71.83125 147.98Q71.1125 147.98 70.675 148.58937Q70.12813 149.37062 70.12813 151.49562ZM76.05 151.49562Q76.05 149.96437 76.3625 149.0425Q76.675 148.105 77.28438 147.605Q77.90938 147.105 78.84688 147.105Q79.53438 147.105 80.05 147.38625Q80.58125 147.6675 80.925 148.19875Q81.26875 148.71437 81.45625 149.46437Q81.64375 150.21437 81.64375 151.49562Q81.64375 153.01125 81.33125 153.93312Q81.03438 154.855 80.40938 155.37062Q79.8 155.87062 78.84688 155.87062Q77.6125 155.87062 76.89375 154.98Q76.05 153.9175 76.05 151.49562ZM77.12813 151.49562Q77.12813 153.605 77.62813 154.30812Q78.12813 155.01125 78.84688 155.01125Q79.58125 155.01125 80.06563 154.30812Q80.56563 153.605 80.56563 151.49562Q80.56563 149.37062 80.06563 148.68312Q79.58125 147.98 78.83125 147.98Q78.1125 147.98 77.675 148.58937Q77.12813 149.37062 77.12813 151.49562Z" fill-rule="nonzero"/><path fill="#000000" d="M65.425 110.82333L65.425 108.76083L61.70625 108.76083L61.70625 107.79208L65.62813 102.22958L66.4875 102.22958L66.4875 107.79208L67.64375 107.79208L67.64375 108.76083L66.4875 108.76083L66.4875 110.82333L65.425 110.82333ZM65.425 107.79208L65.425 103.93271L62.7375 107.79208L65.425 107.79208ZM69.05 106.58896Q69.05 105.05771 69.3625 104.13583Q69.675 103.19833 70.28438 102.69833Q70.90938 102.19833 71.84688 102.19833Q72.53438 102.19833 73.05 102.47958Q73.58125 102.76083 73.925 103.29208Q74.26875 103.80771 74.45625 104.55771Q74.64375 105.30771 74.64375 106.58896Q74.64375 108.10458 74.33125 109.02646Q74.03438 109.94833 73.40938 110.46396Q72.8 110.96396 71.84688 110.96396Q70.6125 110.96396 69.89375 110.07333Q69.05 109.01083 69.05 106.58896ZM70.12813 106.58896Q70.12813 108.69833 70.62813 109.40146Q71.12813 110.10458 71.84688 110.10458Q72.58125 110.10458 73.06563 109.40146Q73.56563 108.69833 73.56563 106.58896Q73.56563 104.46396 73.06563 103.77646Q72.58125 103.07333 71.83125 103.07333Q71.1125 103.07333 70.675 103.68271Q70.12813 104.46396 70.12813 106.58896ZM76.05 106.58896Q76.05 105.05771 76.3625 104.13583Q76.675 103.19833 77.28438 102.69833Q77.90938 102.19833 78.84688 102.19833Q79.53438 102.19833 80.05 102.47958Q80.58125 102.76083 80.925 103.29208Q81.26875 103.80771 81.45625 104.55771Q81.64375 105.30771 81.64375 106.58896Q81.64375 108.10458 81.33125 109.02646Q81.03438 109.94833 80.40938 110.46396Q79.8 110.96396 78.84688 110.96396Q77.6125 110.96396 76.89375 110.07333Q76.05 109.01083 76.05 106.58896ZM77.12813 106.58896Q77.12813 108.69833 77.62813 109.40146Q78.12813 110.10458 78.84688 110.10458Q79.58125 110.10458 80.06563 109.40146Q80.56563 108.69833 80.56563 106.58896Q80.56563 104.46396 80.06563 103.77646Q79.58125 103.07333 78.83125 103.07333Q78.1125 103.07333 77.675 103.68271Q77.12813 104.46396 77.12813 106.58896Z" fill-rule="nonzero"/><path fill="#000000" d="M62.05 63.666664L63.159374 63.572914Q63.284374 64.385414 63.721874 64.791664Q64.175 65.197914 64.81563 65.197914Q65.56563 65.197914 66.09688 64.61979Q66.62813 64.041664 66.62813 63.104164Q66.62813 62.197914 66.1125 61.68229Q65.6125 61.15104 64.78438 61.15104Q64.28438 61.15104 63.8625 61.385414Q63.45625 61.61979 63.221874 61.979164L62.2375 61.854164L63.065624 57.447914L67.34688 57.447914L67.34688 58.447914L63.909374 58.447914L63.45625 60.760414Q64.22188 60.21354 65.06563 60.21354Q66.19063 60.21354 66.95625 60.99479Q67.7375 61.77604 67.7375 63.010414Q67.7375 64.166664 67.06563 65.02604Q66.2375 66.05729 64.81563 66.05729Q63.64375 66.05729 62.89375 65.40104Q62.159374 64.74479 62.05 63.666664ZM69.05 61.68229Q69.05 60.15104 69.3625 59.229164Q69.675 58.291664 70.28438 57.791664Q70.90938 57.291664 71.84688 57.291664Q72.53438 57.291664 73.05 57.572914Q73.58125 57.854164 73.925 58.385414Q74.26875 58.90104 74.45625 59.65104Q74.64375 60.40104 74.64375 61.68229Q74.64375 63.197914 74.33125 64.11979Q74.03438 65.041664 73.40938 65.55729Q72.8 66.05729 71.84688 66.05729Q70.6125 66.05729 69.89375 65.166664Q69.05 64.104164 69.05 61.68229ZM70.12813 61.68229Q70.12813 63.791664 70.62813 64.49479Q71.12813 65.197914 71.84688 65.197914Q72.58125 65.197914 73.06563 64.49479Q73.56563 63.791664 73.56563 61.68229Q73.56563 59.55729 73.06563 58.86979Q72.58125 58.166664 71.83125 58.166664Q71.1125 58.166664 70.675 58.77604Q70.12813 59.55729 70.12813 61.68229ZM76.05 61.68229Q76.05 60.15104 76.3625 59.229164Q76.675 58.291664 77.28438 57.791664Q77.90938 57.291664 78.84688 57.291664Q79.53438 57.291664 80.05 57.572914Q80.58125 57.854164 80.925 58.385414Q81.26875 58.90104 81.45625 59.65104Q81.64375 60.40104 81.64375 61.68229Q81.64375 63.197914 81.33125 64.11979Q81.03438 65.041664 80.40938 65.55729Q79.8 66.05729 78.84688 66.05729Q77.6125 66.05729 76.89375 65.166664Q76.05 64.104164 76.05 61.68229ZM77.12813 61.68229Q77.12813 63.791664 77.62813 64.49479Q78.12813 65.197914 78.84688 65.197914Q79.58125 65.197914 80.06563 64.49479Q80.56563 63.791664 80.56563 61.68229Q80.56563 59.55729 80.06563 58.86979Q79.58125 58.166664 78.83125 58.166664Q78.1125 58.166664 77.675 58.77604Q77.12813 59.55729 77.12813 61.68229Z" fill-rule="nonzero"/><path fill="#000000" d="M117.981575 309.23126L117.981575 299.1844L119.106575 299.1844L119.106575 300.1375Q119.4972 299.575 119.9972 299.3094Q120.4972 299.02814 121.21595 299.02814Q122.137825 299.02814 122.84095 299.5125Q123.5597 299.98126 123.919075 300.85626Q124.27845 301.73126 124.27845 302.7625Q124.27845 303.8719 123.8722 304.77814Q123.481575 305.66876 122.71595 306.15314Q121.96595 306.6219 121.1222 306.6219Q120.512825 306.6219 120.012825 306.35626Q119.52845 306.09064 119.21595 305.7L119.21595 309.23126L117.981575 309.23126ZM119.09095 302.85626Q119.09095 304.2625 119.65345 304.9344Q120.231575 305.60626 121.044075 305.60626Q121.856575 305.60626 122.4347 304.91876Q123.02845 304.21564 123.02845 302.7625Q123.02845 301.3719 122.450325 300.6844Q121.887825 299.9969 121.09095 299.9969Q120.3097 299.9969 119.700325 300.73126Q119.09095 301.46564 119.09095 302.85626ZM125.4972 304.27814L126.700325 304.09064Q126.8097 304.825 127.27845 305.21564Q127.7472 305.60626 128.59094 305.60626Q129.4347 305.60626 129.84094 305.2625Q130.26282 304.91876 130.26282 304.45Q130.26282 304.02814 129.88782 303.79376Q129.63782 303.6219 128.63782 303.3719Q127.27845 303.02814 126.7472 302.77814Q126.231575 302.52814 125.96595 302.09064Q125.700325 301.65314 125.700325 301.1219Q125.700325 300.6375 125.919075 300.23126Q126.137825 299.8094 126.52845 299.52814Q126.8097 299.325 127.294075 299.1844Q127.794075 299.02814 128.3722 299.02814Q129.21594 299.02814 129.85657 299.27814Q130.51282 299.5125 130.82532 299.9344Q131.13782 300.35626 131.2472 301.0594L130.04407 301.23126Q129.96594 300.66876 129.5597 300.35626Q129.16907 300.04376 128.45032 300.04376Q127.606575 300.04376 127.2472 300.325Q126.887825 300.59064 126.887825 300.98126Q126.887825 301.21564 127.02845 301.40314Q127.1847 301.60626 127.512825 301.73126Q127.6847 301.79376 128.59094 302.04376Q129.90344 302.40314 130.41907 302.6219Q130.9347 302.84064 131.21594 303.2625Q131.51282 303.6844 131.51282 304.3094Q131.51282 304.9344 131.15344 305.48126Q130.8097 306.0125 130.1222 306.325Q129.45032 306.6219 128.59094 306.6219Q127.1847 306.6219 126.4347 306.02814Q125.700325 305.4344 125.4972 304.27814ZM132.9347 309.2469L132.79407 308.09064Q133.20032 308.2 133.4972 308.2Q133.90344 308.2 134.15344 308.0594Q134.40344 307.9344 134.5597 307.6844Q134.66907 307.4969 134.9347 306.7625Q134.96594 306.66876 135.04407 306.46564L132.27844 299.1844L133.60657 299.1844L135.1222 303.3875Q135.41907 304.2 135.65344 305.075Q135.85657 304.23126 136.15344 303.41876L137.70032 299.1844L138.9347 299.1844L136.16907 306.575Q135.73157 307.7625 135.48157 308.21564Q135.15344 308.825 134.73157 309.10626Q134.3097 309.40314 133.71594 309.40314Q133.3722 309.40314 132.9347 309.2469ZM144.71594 303.79376L145.9347 303.95Q145.73157 305.2 144.90344 305.91876Q144.09094 306.6219 142.90344 306.6219Q141.41907 306.6219 140.51282 305.65314Q139.60657 304.66876 139.60657 302.84064Q139.60657 301.66876 139.9972 300.79376Q140.38782 299.90314 141.1847 299.46564Q141.98157 299.02814 142.91907 299.02814Q144.09094 299.02814 144.84094 299.6219Q145.60657 300.21564 145.8097 301.325L144.6222 301.5125Q144.45032 300.77814 144.01282 300.41876Q143.57532 300.04376 142.96594 300.04376Q142.02844 300.04376 141.45032 300.71564Q140.8722 301.3719 140.8722 302.8094Q140.8722 304.27814 141.4347 304.95Q141.9972 305.60626 142.88782 305.60626Q143.6222 305.60626 144.10657 305.16876Q144.59094 304.71564 144.71594 303.79376ZM146.52844 302.825Q146.52844 300.8094 147.65344 299.825Q148.57532 299.02814 149.9347 299.02814Q151.41907 299.02814 152.3722 300.0125Q153.32532 300.98126 153.32532 302.71564Q153.32532 304.1219 152.90344 304.9344Q152.48157 305.73126 151.66907 306.1844Q150.8722 306.6219 149.9347 306.6219Q148.40344 306.6219 147.46594 305.6375Q146.52844 304.65314 146.52844 302.825ZM147.79407 302.825Q147.79407 304.21564 148.40344 304.91876Q149.01282 305.60626 149.9347 305.60626Q150.84094 305.60626 151.45032 304.90314Q152.0597 304.2 152.0597 302.77814Q152.0597 301.4344 151.45032 300.7469Q150.84094 300.04376 149.9347 300.04376Q149.01282 300.04376 148.40344 300.73126Q147.79407 301.41876 147.79407 302.825ZM154.98157 309.23126L154.98157 299.1844L156.10657 299.1844L156.10657 300.1375Q156.4972 299.575 156.9972 299.3094Q157.4972 299.02814 158.21594 299.02814Q159.13782 299.02814 159.84094 299.5125Q160.5597 299.98126 160.91907 300.85626Q161.27844 301.73126 161.27844 302.7625Q161.27844 303.8719 160.8722 304.77814Q160.48157 305.66876 159.71594 306.15314Q158.96594 306.6219 158.1222 306.6219Q157.51282 306.6219 157.01282 306.35626Q156.52844 306.09064 156.21594 305.7L156.21594 309.23126L154.98157 309.23126ZM156.09094 302.85626Q156.09094 304.2625 156.65344 304.9344Q157.23157 305.60626 158.04407 305.60626Q158.85657 305.60626 159.4347 304.91876Q160.02844 304.21564 160.02844 302.7625Q160.02844 301.3719 159.45032 300.6844Q158.88782 299.9969 158.09094 299.9969Q157.3097 299.9969 156.70032 300.73126Q156.09094 301.46564 156.09094 302.85626ZM162.76282 307.0594L163.95032 307.23126Q164.02844 307.77814 164.3722 308.04376Q164.82532 308.3719 165.6222 308.3719Q166.48157 308.3719 166.9347 308.02814Q167.40344 307.7 167.57532 307.075Q167.66907 306.7 167.65344 305.4969Q166.85657 306.45 165.65344 306.45Q164.15344 306.45 163.32532 305.3719Q162.51282 304.29376 162.51282 302.77814Q162.51282 301.7469 162.88782 300.8719Q163.26282 299.98126 163.96594 299.5125Q164.6847 299.02814 165.65344 299.02814Q166.9347 299.02814 167.77844 300.0594L167.77844 299.1844L168.90344 299.1844L168.90344 305.46564Q168.90344 307.16876 168.5597 307.8719Q168.21594 308.575 167.46594 308.98126Q166.71594 309.40314 165.6222 309.40314Q164.32532 309.40314 163.52844 308.8094Q162.73157 308.23126 162.76282 307.0594ZM163.77844 302.6844Q163.77844 304.1219 164.34094 304.77814Q164.90344 305.4344 165.76282 305.4344Q166.60657 305.4344 167.1847 304.77814Q167.76282 304.1219 167.76282 302.73126Q167.76282 301.40314 167.16907 300.73126Q166.57532 300.04376 165.7472 300.04376Q164.91907 300.04376 164.34094 300.71564Q163.77844 301.3719 163.77844 302.6844ZM174.4972 304.27814L175.70032 304.09064Q175.8097 304.825 176.27844 305.21564Q176.7472 305.60626 177.59094 305.60626Q178.4347 305.60626 178.84094 305.2625Q179.26282 304.91876 179.26282 304.45Q179.26282 304.02814 178.88782 303.79376Q178.63782 303.6219 177.63782 303.3719Q176.27844 303.02814 175.7472 302.77814Q175.23157 302.52814 174.96594 302.09064Q174.70032 301.65314 174.70032 301.1219Q174.70032 300.6375 174.91907 300.23126Q175.13782 299.8094 175.52844 299.52814Q175.8097 299.325 176.29407 299.1844Q176.79407 299.02814 177.3722 299.02814Q178.21594 299.02814 178.85657 299.27814Q179.51282 299.5125 179.82532 299.9344Q180.13782 300.35626 180.2472 301.0594L179.04407 301.23126Q178.96594 300.66876 178.5597 300.35626Q178.16907 300.04376 177.45032 300.04376Q176.60657 300.04376 176.2472 300.325Q175.88782 300.59064 175.88782 300.98126Q175.88782 301.21564 176.02844 301.40314Q176.1847 301.60626 176.51282 301.73126Q176.6847 301.79376 177.59094 302.04376Q178.90344 302.40314 179.41907 302.6219Q179.9347 302.84064 180.21594 303.2625Q180.51282 303.6844 180.51282 304.3094Q180.51282 304.9344 180.15344 305.48126Q179.8097 306.0125 179.1222 306.325Q178.45032 306.6219 177.59094 306.6219Q176.1847 306.6219 175.4347 306.02814Q174.70032 305.4344 174.4972 304.27814ZM181.9347 309.2469L181.79407 308.09064Q182.20032 308.2 182.4972 308.2Q182.90344 308.2 183.15344 308.0594Q183.40344 307.9344 183.5597 307.6844Q183.66907 307.4969 183.9347 306.7625Q183.96594 306.66876 184.04407 306.46564L181.27844 299.1844L182.60657 299.1844L184.1222 303.3875Q184.41907 304.2 184.65344 305.075Q184.85657 304.23126 185.15344 303.41876L186.70032 299.1844L187.9347 299.1844L185.16907 306.575Q184.73157 307.7625 184.48157 308.21564Q184.15344 308.825 183.73157 309.10626Q183.3097 309.40314 182.71594 309.40314Q182.3722 309.40314 181.9347 309.2469ZM188.98157 306.45L188.98157 299.1844L190.09094 299.1844L190.09094 300.21564Q190.88782 299.02814 192.40344 299.02814Q193.0597 299.02814 193.60657 299.2625Q194.15344 299.4969 194.41907 299.8875Q194.70032 300.2625 194.8097 300.79376Q194.88782 301.1375 194.88782 301.98126L194.88782 306.45L193.65344 306.45L193.65344 302.02814Q193.65344 301.27814 193.51282 300.91876Q193.3722 300.54376 192.9972 300.325Q192.63782 300.09064 192.13782 300.09064Q191.35657 300.09064 190.77844 300.59064Q190.21594 301.09064 190.21594 302.48126L190.21594 306.45L188.98157 306.45ZM201.71594 303.79376L202.9347 303.95Q202.73157 305.2 201.90344 305.91876Q201.09094 306.6219 199.90344 306.6219Q198.41907 306.6219 197.51282 305.65314Q196.60657 304.66876 196.60657 302.84064Q196.60657 301.66876 196.9972 300.79376Q197.38782 299.90314 198.1847 299.46564Q198.98157 299.02814 199.91907 299.02814Q201.09094 299.02814 201.84094 299.6219Q202.60657 300.21564 202.8097 301.325L201.6222 301.5125Q201.45032 300.77814 201.01282 300.41876Q200.57532 300.04376 199.96594 300.04376Q199.02844 300.04376 198.45032 300.71564Q197.8722 301.3719 197.8722 302.8094Q197.8722 304.27814 198.4347 304.95Q198.9972 305.60626 199.88782 305.60626Q200.6222 305.60626 201.10657 305.16876Q201.59094 304.71564 201.71594 303.79376Z" fill-rule="nonzero"/><path fill="#000000" d="M219.92188 309.23126L219.92188 299.1844L221.04688 299.1844L221.04688 300.1375Q221.4375 299.575 221.9375 299.3094Q222.4375 299.02814 223.15625 299.02814Q224.07812 299.02814 224.78125 299.5125Q225.5 299.98126 225.85938 300.85626Q226.21875 301.73126 226.21875 302.7625Q226.21875 303.8719 225.8125 304.77814Q225.42188 305.66876 224.65625 306.15314Q223.90625 306.6219 223.0625 306.6219Q222.45312 306.6219 221.95312 306.35626Q221.46875 306.09064 221.15625 305.7L221.15625 309.23126L219.92188 309.23126ZM221.03125 302.85626Q221.03125 304.2625 221.59375 304.9344Q222.17188 305.60626 222.98438 305.60626Q223.79688 305.60626 224.375 304.91876Q224.96875 304.21564 224.96875 302.7625Q224.96875 301.3719 224.39062 300.6844Q223.82812 299.9969 223.03125 299.9969Q222.25 299.9969 221.64062 300.73126Q221.03125 301.46564 221.03125 302.85626ZM227.4375 304.27814L228.64062 304.09064Q228.75 304.825 229.21875 305.21564Q229.6875 305.60626 230.53125 305.60626Q231.375 305.60626 231.78125 305.2625Q232.20312 304.91876 232.20312 304.45Q232.20312 304.02814 231.82812 303.79376Q231.57812 303.6219 230.57812 303.3719Q229.21875 303.02814 228.6875 302.77814Q228.17188 302.52814 227.90625 302.09064Q227.64062 301.65314 227.64062 301.1219Q227.64062 300.6375 227.85938 300.23126Q228.07812 299.8094 228.46875 299.52814Q228.75 299.325 229.23438 299.1844Q229.73438 299.02814 230.3125 299.02814Q231.15625 299.02814 231.79688 299.27814Q232.45312 299.5125 232.76562 299.9344Q233.07812 300.35626 233.1875 301.0594L231.98438 301.23126Q231.90625 300.66876 231.5 300.35626Q231.10938 300.04376 230.39062 300.04376Q229.54688 300.04376 229.1875 300.325Q228.82812 300.59064 228.82812 300.98126Q228.82812 301.21564 228.96875 301.40314Q229.125 301.60626 229.45312 301.73126Q229.625 301.79376 230.53125 302.04376Q231.84375 302.40314 232.35938 302.6219Q232.875 302.84064 233.15625 303.2625Q233.45312 303.6844 233.45312 304.3094Q233.45312 304.9344 233.09375 305.48126Q232.75 306.0125 232.0625 306.325Q231.39062 306.6219 230.53125 306.6219Q229.125 306.6219 228.375 306.02814Q227.64062 305.4344 227.4375 304.27814ZM234.875 309.2469L234.73438 308.09064Q235.14062 308.2 235.4375 308.2Q235.84375 308.2 236.09375 308.0594Q236.34375 307.9344 236.5 307.6844Q236.60938 307.4969 236.875 306.7625Q236.90625 306.66876 236.98438 306.46564L234.21875 299.1844L235.54688 299.1844L237.0625 303.3875Q237.35938 304.2 237.59375 305.075Q237.79688 304.23126 238.09375 303.41876L239.64062 299.1844L240.875 299.1844L238.10938 306.575Q237.67188 307.7625 237.42188 308.21564Q237.09375 308.825 236.67188 309.10626Q236.25 309.40314 235.65625 309.40314Q235.3125 309.40314 234.875 309.2469ZM246.65625 303.79376L247.875 303.95Q247.67188 305.2 246.84375 305.91876Q246.03125 306.6219 244.84375 306.6219Q243.35938 306.6219 242.45312 305.65314Q241.54688 304.66876 241.54688 302.84064Q241.54688 301.66876 241.9375 300.79376Q242.32812 299.90314 243.125 299.46564Q243.92188 299.02814 244.85938 299.02814Q246.03125 299.02814 246.78125 299.6219Q247.54688 300.21564 247.75 301.325L246.5625 301.5125Q246.39062 300.77814 245.95312 300.41876Q245.51562 300.04376 244.90625 300.04376Q243.96875 300.04376 243.39062 300.71564Q242.8125 301.3719 242.8125 302.8094Q242.8125 304.27814 243.375 304.95Q243.9375 305.60626 244.82812 305.60626Q245.5625 305.60626 246.04688 305.16876Q246.53125 304.71564 246.65625 303.79376ZM248.46875 302.825Q248.46875 300.8094 249.59375 299.825Q250.51562 299.02814 251.875 299.02814Q253.35938 299.02814 254.3125 300.0125Q255.26562 300.98126 255.26562 302.71564Q255.26562 304.1219 254.84375 304.9344Q254.42188 305.73126 253.60938 306.1844Q252.8125 306.6219 251.875 306.6219Q250.34375 306.6219 249.40625 305.6375Q248.46875 304.65314 248.46875 302.825ZM249.73438 302.825Q249.73438 304.21564 250.34375 304.91876Q250.95312 305.60626 251.875 305.60626Q252.78125 305.60626 253.39062 304.90314Q254.0 304.2 254.0 302.77814Q254.0 301.4344 253.39062 300.7469Q252.78125 300.04376 251.875 300.04376Q250.95312 300.04376 250.34375 300.73126Q249.73438 301.41876 249.73438 302.825ZM256.92188 309.23126L256.92188 299.1844L258.04688 299.1844L258.04688 300.1375Q258.4375 299.575 258.9375 299.3094Q259.4375 299.02814 260.15625 299.02814Q261.07812 299.02814 261.78125 299.5125Q262.5 299.98126 262.85938 300.85626Q263.21875 301.73126 263.21875 302.7625Q263.21875 303.8719 262.8125 304.77814Q262.42188 305.66876 261.65625 306.15314Q260.90625 306.6219 260.0625 306.6219Q259.45312 306.6219 258.95312 306.35626Q258.46875 306.09064 258.15625 305.7L258.15625 309.23126L256.92188 309.23126ZM258.03125 302.85626Q258.03125 304.2625 258.59375 304.9344Q259.17188 305.60626 259.98438 305.60626Q260.79688 305.60626 261.375 304.91876Q261.96875 304.21564 261.96875 302.7625Q261.96875 301.3719 261.39062 300.6844Q260.82812 299.9969 260.03125 299.9969Q259.25 299.9969 258.64062 300.73126Q258.03125 301.46564 258.03125 302.85626ZM264.70312 307.0594L265.89062 307.23126Q265.96875 307.77814 266.3125 308.04376Q266.76562 308.3719 267.5625 308.3719Q268.42188 308.3719 268.875 308.02814Q269.34375 307.7 269.51562 307.075Q269.60938 306.7 269.59375 305.4969Q268.79688 306.45 267.59375 306.45Q266.09375 306.45 265.26562 305.3719Q264.45312 304.29376 264.45312 302.77814Q264.45312 301.7469 264.82812 300.8719Q265.20312 299.98126 265.90625 299.5125Q266.625 299.02814 267.59375 299.02814Q268.875 299.02814 269.71875 300.0594L269.71875 299.1844L270.84375 299.1844L270.84375 305.46564Q270.84375 307.16876 270.5 307.8719Q270.15625 308.575 269.40625 308.98126Q268.65625 309.40314 267.5625 309.40314Q266.26562 309.40314 265.46875 308.8094Q264.67188 308.23126 264.70312 307.0594ZM265.71875 302.6844Q265.71875 304.1219 266.28125 304.77814Q266.84375 305.4344 267.70312 305.4344Q268.54688 305.4344 269.125 304.77814Q269.70312 304.1219 269.70312 302.73126Q269.70312 301.40314 269.10938 300.73126Q268.51562 300.04376 267.6875 300.04376Q266.85938 300.04376 266.28125 300.71564Q265.71875 301.3719 265.71875 302.6844ZM281.65625 305.5594Q280.98438 306.1375 280.34375 306.3875Q279.71875 306.6219 278.98438 306.6219Q277.79688 306.6219 277.14062 306.04376Q276.5 305.45 276.5 304.52814Q276.5 303.9969 276.73438 303.5594Q276.98438 303.1219 277.375 302.85626Q277.78125 302.59064 278.26562 302.45Q278.625 302.35626 279.35938 302.2625Q280.85938 302.09064 281.5625 301.84064Q281.5625 301.59064 281.5625 301.52814Q281.5625 300.7625 281.21875 300.46564Q280.75 300.04376 279.8125 300.04376Q278.95312 300.04376 278.53125 300.35626Q278.125 300.65314 277.92188 301.41876L276.71875 301.2625Q276.875 300.48126 277.25 300.0125Q277.64062 299.54376 278.34375 299.29376Q279.0625 299.02814 280.0 299.02814Q280.92188 299.02814 281.5 299.2469Q282.07812 299.46564 282.34375 299.79376Q282.625 300.1219 282.73438 300.6375Q282.79688 300.95 282.79688 301.7625L282.79688 303.40314Q282.79688 305.1219 282.875 305.575Q282.95312 306.02814 283.1875 306.45L281.90625 306.45Q281.71875 306.0594 281.65625 305.5594ZM281.5625 302.8094Q280.89062 303.075 279.54688 303.27814Q278.79688 303.3875 278.46875 303.52814Q278.15625 303.65314 277.98438 303.91876Q277.8125 304.1844 277.8125 304.4969Q277.8125 304.9969 278.1875 305.325Q278.5625 305.65314 279.28125 305.65314Q280.0 305.65314 280.54688 305.34064Q281.09375 305.02814 281.35938 304.48126Q281.5625 304.075 281.5625 303.2625L281.5625 302.8094ZM284.4375 304.27814L285.64062 304.09064Q285.75 304.825 286.21875 305.21564Q286.6875 305.60626 287.53125 305.60626Q288.375 305.60626 288.78125 305.2625Q289.20312 304.91876 289.20312 304.45Q289.20312 304.02814 288.82812 303.79376Q288.57812 303.6219 287.57812 303.3719Q286.21875 303.02814 285.6875 302.77814Q285.17188 302.52814 284.90625 302.09064Q284.64062 301.65314 284.64062 301.1219Q284.64062 300.6375 284.85938 300.23126Q285.07812 299.8094 285.46875 299.52814Q285.75 299.325 286.23438 299.1844Q286.73438 299.02814 287.3125 299.02814Q288.15625 299.02814 288.79688 299.27814Q289.45312 299.5125 289.76562 299.9344Q290.07812 300.35626 290.1875 301.0594L288.98438 301.23126Q288.90625 300.66876 288.5 300.35626Q288.10938 300.04376 287.39062 300.04376Q286.54688 300.04376 286.1875 300.325Q285.82812 300.59064 285.82812 300.98126Q285.82812 301.21564 285.96875 301.40314Q286.125 301.60626 286.45312 301.73126Q286.625 301.79376 287.53125 302.04376Q288.84375 302.40314 289.35938 302.6219Q289.875 302.84064 290.15625 303.2625Q290.45312 303.6844 290.45312 304.3094Q290.45312 304.9344 290.09375 305.48126Q289.75 306.0125 289.0625 306.325Q288.39062 306.6219 287.53125 306.6219Q286.125 306.6219 285.375 306.02814Q284.64062 305.4344 284.4375 304.27814ZM291.875 309.2469L291.73438 308.09064Q292.14062 308.2 292.4375 308.2Q292.84375 308.2 293.09375 308.0594Q293.34375 307.9344 293.5 307.6844Q293.60938 307.4969 293.875 306.7625Q293.90625 306.66876 293.98438 306.46564L291.21875 299.1844L292.54688 299.1844L294.0625 303.3875Q294.35938 304.2 294.59375 305.075Q294.79688 304.23126 295.09375 303.41876L296.64062 299.1844L297.875 299.1844L295.10938 306.575Q294.67188 307.7625 294.42188 308.21564Q294.09375 308.825 293.67188 309.10626Q293.25 309.40314 292.65625 309.40314Q292.3125 309.40314 291.875 309.2469ZM298.92188 306.45L298.92188 299.1844L300.03125 299.1844L300.03125 300.21564Q300.82812 299.02814 302.34375 299.02814Q303.0 299.02814 303.54688 299.2625Q304.09375 299.4969 304.35938 299.8875Q304.64062 300.2625 304.75 300.79376Q304.82812 301.1375 304.82812 301.98126L304.82812 306.45L303.59375 306.45L303.59375 302.02814Q303.59375 301.27814 303.45312 300.91876Q303.3125 300.54376 302.9375 300.325Q302.57812 300.09064 302.07812 300.09064Q301.29688 300.09064 300.71875 300.59064Q300.15625 301.09064 300.15625 302.48126L300.15625 306.45L298.92188 306.45ZM311.65625 303.79376L312.875 303.95Q312.67188 305.2 311.84375 305.91876Q311.03125 306.6219 309.84375 306.6219Q308.35938 306.6219 307.45312 305.65314Q306.54688 304.66876 306.54688 302.84064Q306.54688 301.66876 306.9375 300.79376Q307.32812 299.90314 308.125 299.46564Q308.92188 299.02814 309.85938 299.02814Q311.03125 299.02814 311.78125 299.6219Q312.54688 300.21564 312.75 301.325L311.5625 301.5125Q311.39062 300.77814 310.95312 300.41876Q310.51562 300.04376 309.90625 300.04376Q308.96875 300.04376 308.39062 300.71564Q307.8125 301.3719 307.8125 302.8094Q307.8125 304.27814 308.375 304.95Q308.9375 305.60626 309.82812 305.60626Q310.5625 305.60626 311.04688 305.16876Q311.53125 304.71564 311.65625 303.79376Z" fill-rule="nonzero"/><path fill="#000000" d="M351.09656 305.5594Q350.42468 306.1375 349.78406 306.3875Q349.15906 306.6219 348.42468 306.6219Q347.23718 306.6219 346.58093 306.04376Q345.9403 305.45 345.9403 304.52814Q345.9403 303.9969 346.17468 303.5594Q346.42468 303.1219 346.8153 302.85626Q347.22156 302.59064 347.70593 302.45Q348.0653 302.35626 348.79968 302.2625Q350.29968 302.09064 351.0028 301.84064Q351.0028 301.59064 351.0028 301.52814Q351.0028 300.7625 350.65906 300.46564Q350.1903 300.04376 349.2528 300.04376Q348.39343 300.04376 347.97156 300.35626Q347.5653 300.65314 347.36218 301.41876L346.15906 301.2625Q346.3153 300.48126 346.6903 300.0125Q347.08093 299.54376 347.78406 299.29376Q348.5028 299.02814 349.4403 299.02814Q350.36218 299.02814 350.9403 299.2469Q351.51843 299.46564 351.78406 299.79376Q352.0653 300.1219 352.17468 300.6375Q352.23718 300.95 352.23718 301.7625L352.23718 303.40314Q352.23718 305.1219 352.3153 305.575Q352.39343 306.02814 352.6278 306.45L351.34656 306.45Q351.15906 306.0594 351.09656 305.5594ZM351.0028 302.8094Q350.33093 303.075 348.98718 303.27814Q348.23718 303.3875 347.90906 303.52814Q347.59656 303.65314 347.42468 303.91876Q347.2528 304.1844 347.2528 304.4969Q347.2528 304.9969 347.6278 305.325Q348.0028 305.65314 348.72156 305.65314Q349.4403 305.65314 349.98718 305.34064Q350.53406 305.02814 350.79968 304.48126Q351.0028 304.075 351.0028 303.2625L351.0028 302.8094ZM353.8778 304.27814L355.08093 304.09064Q355.1903 304.825 355.65906 305.21564Q356.1278 305.60626 356.97156 305.60626Q357.8153 305.60626 358.22156 305.2625Q358.64343 304.91876 358.64343 304.45Q358.64343 304.02814 358.26843 303.79376Q358.01843 303.6219 357.01843 303.3719Q355.65906 303.02814 355.1278 302.77814Q354.61218 302.52814 354.34656 302.09064Q354.08093 301.65314 354.08093 301.1219Q354.08093 300.6375 354.29968 300.23126Q354.51843 299.8094 354.90906 299.52814Q355.1903 299.325 355.67468 299.1844Q356.17468 299.02814 356.7528 299.02814Q357.59656 299.02814 358.23718 299.27814Q358.89343 299.5125 359.20593 299.9344Q359.51843 300.35626 359.6278 301.0594L358.42468 301.23126Q358.34656 300.66876 357.9403 300.35626Q357.54968 300.04376 356.83093 300.04376Q355.98718 300.04376 355.6278 300.325Q355.26843 300.59064 355.26843 300.98126Q355.26843 301.21564 355.40906 301.40314Q355.5653 301.60626 355.89343 301.73126Q356.0653 301.79376 356.97156 302.04376Q358.28406 302.40314 358.79968 302.6219Q359.3153 302.84064 359.59656 303.2625Q359.89343 303.6844 359.89343 304.3094Q359.89343 304.9344 359.53406 305.48126Q359.1903 306.0125 358.5028 306.325Q357.83093 306.6219 356.97156 306.6219Q355.5653 306.6219 354.8153 306.02814Q354.08093 305.4344 353.8778 304.27814ZM361.3153 309.2469L361.17468 308.09064Q361.58093 308.2 361.8778 308.2Q362.28406 308.2 362.53406 308.0594Q362.78406 307.9344 362.9403 307.6844Q363.04968 307.4969 363.3153 306.7625Q363.34656 306.66876 363.42468 306.46564L360.65906 299.1844L361.98718 299.1844L363.5028 303.3875Q363.79968 304.2 364.03406 305.075Q364.23718 304.23126 364.53406 303.41876L366.08093 299.1844L367.3153 299.1844L364.54968 306.575Q364.11218 307.7625 363.86218 308.21564Q363.53406 308.825 363.11218 309.10626Q362.6903 309.40314 362.09656 309.40314Q361.7528 309.40314 361.3153 309.2469ZM368.36218 306.45L368.36218 299.1844L369.47156 299.1844L369.47156 300.21564Q370.26843 299.02814 371.78406 299.02814Q372.4403 299.02814 372.98718 299.2625Q373.53406 299.4969 373.79968 299.8875Q374.08093 300.2625 374.1903 300.79376Q374.26843 301.1375 374.26843 301.98126L374.26843 306.45L373.03406 306.45L373.03406 302.02814Q373.03406 301.27814 372.89343 300.91876Q372.7528 300.54376 372.3778 300.325Q372.01843 300.09064 371.51843 300.09064Q370.73718 300.09064 370.15906 300.59064Q369.59656 301.09064 369.59656 302.48126L369.59656 306.45L368.36218 306.45ZM381.09656 303.79376L382.3153 303.95Q382.11218 305.2 381.28406 305.91876Q380.47156 306.6219 379.28406 306.6219Q377.79968 306.6219 376.89343 305.65314Q375.98718 304.66876 375.98718 302.84064Q375.98718 301.66876 376.3778 300.79376Q376.76843 299.90314 377.5653 299.46564Q378.36218 299.02814 379.29968 299.02814Q380.47156 299.02814 381.22156 299.6219Q381.98718 300.21564 382.1903 301.325L381.0028 301.5125Q380.83093 300.77814 380.39343 300.41876Q379.95593 300.04376 379.34656 300.04376Q378.40906 300.04376 377.83093 300.71564Q377.2528 301.3719 377.2528 302.8094Q377.2528 304.27814 377.8153 304.95Q378.3778 305.60626 379.26843 305.60626Q380.0028 305.60626 380.48718 305.16876Q380.97156 304.71564 381.09656 303.79376ZM383.36218 309.23126L383.36218 299.1844L384.48718 299.1844L384.48718 300.1375Q384.8778 299.575 385.3778 299.3094Q385.8778 299.02814 386.59656 299.02814Q387.51843 299.02814 388.22156 299.5125Q388.9403 299.98126 389.29968 300.85626Q389.65906 301.73126 389.65906 302.7625Q389.65906 303.8719 389.2528 304.77814Q388.86218 305.66876 388.09656 306.15314Q387.34656 306.6219 386.5028 306.6219Q385.89343 306.6219 385.39343 306.35626Q384.90906 306.09064 384.59656 305.7L384.59656 309.23126L383.36218 309.23126ZM384.47156 302.85626Q384.47156 304.2625 385.03406 304.9344Q385.61218 305.60626 386.42468 305.60626Q387.23718 305.60626 387.8153 304.91876Q388.40906 304.21564 388.40906 302.7625Q388.40906 301.3719 387.83093 300.6844Q387.26843 299.9969 386.47156 299.9969Q385.6903 299.9969 385.08093 300.73126Q384.47156 301.46564 384.47156 302.85626ZM391.14343 307.0594L392.33093 307.23126Q392.40906 307.77814 392.7528 308.04376Q393.20593 308.3719 394.0028 308.3719Q394.86218 308.3719 395.3153 308.02814Q395.78406 307.7 395.95593 307.075Q396.04968 306.7 396.03406 305.4969Q395.23718 306.45 394.03406 306.45Q392.53406 306.45 391.70593 305.3719Q390.89343 304.29376 390.89343 302.77814Q390.89343 301.7469 391.26843 300.8719Q391.64343 299.98126 392.34656 299.5125Q393.0653 299.02814 394.03406 299.02814Q395.3153 299.02814 396.15906 300.0594L396.15906 299.1844L397.28406 299.1844L397.28406 305.46564Q397.28406 307.16876 396.9403 307.8719Q396.59656 308.575 395.84656 308.98126Q395.09656 309.40314 394.0028 309.40314Q392.70593 309.40314 391.90906 308.8094Q391.11218 308.23126 391.14343 307.0594ZM392.15906 302.6844Q392.15906 304.1219 392.72156 304.77814Q393.28406 305.4344 394.14343 305.4344Q394.98718 305.4344 395.5653 304.77814Q396.14343 304.1219 396.14343 302.73126Q396.14343 301.40314 395.54968 300.73126Q394.95593 300.04376 394.1278 300.04376Q393.29968 300.04376 392.72156 300.71564Q392.15906 301.3719 392.15906 302.6844Z" fill-rule="nonzero"/><path fill="#000000" d="M174.0625 37.55L171.3125 37.55L171.3125 27.175L173.875 27.175L173.875 28.659374Q174.51562 27.6125 175.03125 27.284374Q175.5625 26.940624 176.23438 26.940624Q177.17188 26.940624 178.03125 27.45625L177.1875 29.846874Q176.5 29.409374 175.90625 29.409374Q175.32812 29.409374 174.92188 29.721874Q174.51562 30.034374 174.28125 30.878124Q174.0625 31.70625 174.0625 34.346874L174.0625 37.55ZM185.4375 34.253124L188.17188 34.70625Q187.65625 36.20625 186.51562 37.003124Q185.375 37.784374 183.67188 37.784374Q180.95312 37.784374 179.65625 36.01875Q178.64062 34.596874 178.64062 32.440624Q178.64062 29.8625 179.98438 28.409374Q181.32812 26.940624 183.39062 26.940624Q185.70312 26.940624 187.03125 28.471874Q188.375 30.003124 188.32812 33.159374L181.45312 33.159374Q181.48438 34.378124 182.10938 35.065624Q182.75 35.7375 183.6875 35.7375Q184.34375 35.7375 184.78125 35.39375Q185.21875 35.034374 185.4375 34.253124ZM185.59375 31.471874Q185.5625 30.284374 184.96875 29.675Q184.39062 29.05 183.5625 29.05Q182.65625 29.05 182.07812 29.690624Q181.48438 30.346874 181.5 31.471874L185.59375 31.471874ZM197.21875 41.503124L197.21875 36.284374Q196.67188 36.971874 195.875 37.378124Q195.07812 37.784374 194.14062 37.784374Q192.375 37.784374 191.23438 36.45625Q189.89062 34.909374 189.89062 32.253124Q189.89062 29.753124 191.15625 28.346874Q192.42188 26.940624 194.29688 26.940624Q195.32812 26.940624 196.07812 27.378124Q196.84375 27.815624 197.42188 28.70625L197.42188 27.175L199.95312 27.175L199.95312 41.503124L197.21875 41.503124ZM197.29688 32.2375Q197.29688 30.64375 196.64062 29.878124Q196.0 29.096874 195.03125 29.096874Q194.03125 29.096874 193.35938 29.89375Q192.6875 30.675 192.6875 32.39375Q192.6875 34.096874 193.32812 34.8625Q193.98438 35.6125 194.92188 35.6125Q195.875 35.6125 196.57812 34.76875Q197.29688 33.909374 197.29688 32.2375ZM209.26562 37.55L209.26562 36.003124Q208.70312 36.83125 207.76562 37.315624Q206.84375 37.784374 205.82812 37.784374Q204.78125 37.784374 203.95312 37.33125Q203.125 36.8625 202.75 36.034374Q202.375 35.20625 202.375 33.7375L202.375 27.175L205.125 27.175L205.125 31.940624Q205.125 34.128124 205.26562 34.628124Q205.42188 35.1125 205.8125 35.409374Q206.21875 35.690624 206.84375 35.690624Q207.54688 35.690624 208.09375 35.315624Q208.65625 34.925 208.85938 34.3625Q209.0625 33.784374 209.0625 31.55L209.0625 27.175L211.8125 27.175L211.8125 37.55L209.26562 37.55ZM220.4375 34.253124L223.17188 34.70625Q222.65625 36.20625 221.51562 37.003124Q220.375 37.784374 218.67188 37.784374Q215.95312 37.784374 214.65625 36.01875Q213.64062 34.596874 213.64062 32.440624Q213.64062 29.8625 214.98438 28.409374Q216.32812 26.940624 218.39062 26.940624Q220.70312 26.940624 222.03125 28.471874Q223.375 30.003124 223.32812 33.159374L216.45312 33.159374Q216.48438 34.378124 217.10938 35.065624Q217.75 35.7375 218.6875 35.7375Q219.34375 35.7375 219.78125 35.39375Q220.21875 35.034374 220.4375 34.253124ZM220.59375 31.471874Q220.5625 30.284374 219.96875 29.675Q219.39062 29.05 218.5625 29.05Q217.65625 29.05 217.07812 29.690624Q216.48438 30.346874 216.5 31.471874L220.59375 31.471874ZM224.46875 34.596874L227.21875 34.175Q227.40625 34.971874 227.9375 35.39375Q228.46875 35.8 229.4375 35.8Q230.5 35.8 231.04688 35.409374Q231.40625 35.14375 231.40625 34.675Q231.40625 34.3625 231.20312 34.159374Q231.0 33.971874 230.29688 33.8Q226.96875 33.065624 226.07812 32.45625Q224.84375 31.628124 224.84375 30.128124Q224.84375 28.784374 225.90625 27.8625Q226.98438 26.940624 229.21875 26.940624Q231.34375 26.940624 232.375 27.64375Q233.42188 28.33125 233.8125 29.690624L231.21875 30.159374Q231.04688 29.565624 230.57812 29.2375Q230.125 28.909374 229.26562 28.909374Q228.1875 28.909374 227.71875 29.221874Q227.40625 29.440624 227.40625 29.76875Q227.40625 30.065624 227.67188 30.26875Q228.04688 30.55 230.23438 31.05Q232.42188 31.55 233.29688 32.26875Q234.15625 33.003124 234.15625 34.3Q234.15625 35.7375 232.96875 36.76875Q231.78125 37.784374 229.4375 37.784374Q227.32812 37.784374 226.07812 36.925Q224.84375 36.065624 224.46875 34.596874ZM241.1875 27.175L241.1875 29.3625L239.3125 29.3625L239.3125 33.55Q239.3125 34.815624 239.35938 35.034374Q239.42188 35.2375 239.60938 35.378124Q239.8125 35.503124 240.07812 35.503124Q240.45312 35.503124 241.1875 35.2375L241.42188 37.378124Q240.45312 37.784374 239.25 37.784374Q238.5 37.784374 237.90625 37.534374Q237.3125 37.284374 237.03125 36.89375Q236.76562 36.4875 236.65625 35.815624Q236.5625 35.346874 236.5625 33.89375L236.5625 29.3625L235.29688 29.3625L235.29688 27.175L236.5625 27.175L236.5625 25.1125L239.3125 23.51875L239.3125 27.175L241.1875 27.175ZM242.46875 34.596874L245.21875 34.175Q245.40625 34.971874 245.9375 35.39375Q246.46875 35.8 247.4375 35.8Q248.5 35.8 249.04688 35.409374Q249.40625 35.14375 249.40625 34.675Q249.40625 34.3625 249.20312 34.159374Q249.0 33.971874 248.29688 33.8Q244.96875 33.065624 244.07812 32.45625Q242.84375 31.628124 242.84375 30.128124Q242.84375 28.784374 243.90625 27.8625Q244.98438 26.940624 247.21875 26.940624Q249.34375 26.940624 250.375 27.64375Q251.42188 28.33125 251.8125 29.690624L249.21875 30.159374Q249.04688 29.565624 248.57812 29.2375Q248.125 28.909374 247.26562 28.909374Q246.1875 28.909374 245.71875 29.221874Q245.40625 29.440624 245.40625 29.76875Q245.40625 30.065624 245.67188 30.26875Q246.04688 30.55 248.23438 31.05Q250.42188 31.55 251.29688 32.26875Q252.15625 33.003124 252.15625 34.3Q252.15625 35.7375 250.96875 36.76875Q249.78125 37.784374 247.4375 37.784374Q245.32812 37.784374 244.07812 36.925Q242.84375 36.065624 242.46875 34.596874ZM252.96875 37.8L256.51562 22.9875L258.57812 22.9875L255.0 37.8L252.96875 37.8ZM259.46875 34.596874L262.21875 34.175Q262.40625 34.971874 262.9375 35.39375Q263.46875 35.8 264.4375 35.8Q265.5 35.8 266.04688 35.409374Q266.40625 35.14375 266.40625 34.675Q266.40625 34.3625 266.20312 34.159374Q266.0 33.971874 265.29688 33.8Q261.96875 33.065624 261.07812 32.45625Q259.84375 31.628124 259.84375 30.128124Q259.84375 28.784374 260.90625 27.8625Q261.98438 26.940624 264.21875 26.940624Q266.34375 26.940624 267.375 27.64375Q268.42188 28.33125 268.8125 29.690624L266.21875 30.159374Q266.04688 29.565624 265.57812 29.2375Q265.125 28.909374 264.26562 28.909374Q263.1875 28.909374 262.71875 29.221874Q262.40625 29.440624 262.40625 29.76875Q262.40625 30.065624 262.67188 30.26875Q263.04688 30.55 265.23438 31.05Q267.42188 31.55 268.29688 32.26875Q269.15625 33.003124 269.15625 34.3Q269.15625 35.7375 267.96875 36.76875Q266.78125 37.784374 264.4375 37.784374Q262.32812 37.784374 261.07812 36.925Q259.84375 36.065624 259.46875 34.596874ZM277.4375 34.253124L280.17188 34.70625Q279.65625 36.20625 278.51562 37.003124Q277.375 37.784374 275.67188 37.784374Q272.95312 37.784374 271.65625 36.01875Q270.64062 34.596874 270.64062 32.440624Q270.64062 29.8625 271.98438 28.409374Q273.32812 26.940624 275.39062 26.940624Q277.70312 26.940624 279.03125 28.471874Q280.375 30.003124 280.32812 33.159374L273.45312 33.159374Q273.48438 34.378124 274.10938 35.065624Q274.75 35.7375 275.6875 35.7375Q276.34375 35.7375 276.78125 35.39375Q277.21875 35.034374 277.4375 34.253124ZM277.59375 31.471874Q277.5625 30.284374 276.96875 29.675Q276.39062 29.05 275.5625 29.05Q274.65625 29.05 274.07812 29.690624Q273.48438 30.346874 273.5 31.471874L277.59375 31.471874ZM291.48438 30.2375L288.78125 30.7375Q288.64062 29.925 288.15625 29.51875Q287.67188 29.096874 286.90625 29.096874Q285.875 29.096874 285.26562 29.815624Q284.65625 30.51875 284.65625 32.175Q284.65625 34.01875 285.26562 34.784374Q285.89062 35.55 286.9375 35.55Q287.71875 35.55 288.21875 35.1125Q288.71875 34.659374 288.92188 33.58125L291.60938 34.034374Q291.20312 35.89375 290.0 36.846874Q288.8125 37.784374 286.8125 37.784374Q284.53125 37.784374 283.17188 36.346874Q281.82812 34.909374 281.82812 32.378124Q281.82812 29.8 283.1875 28.378124Q284.54688 26.940624 286.85938 26.940624Q288.75 26.940624 289.85938 27.76875Q290.98438 28.58125 291.48438 30.2375Z" fill-rule="nonzero"/></svg>