<svg version="1.1" viewBox="0.0 0.0 600.0 371.0" fill="none" stroke="none" stroke-linecap="square" stroke-miterlimit="10" width="600" height="371" xmlns:xlink="http://www.w3.org/1999/xlink" xmlns="http://www.w3.org/2000/svg"><path fill="#ffffff" d="M0 0L600.0 0L600.0 371.0L0 371.0L0 0Z" fill-rule="nonzero"/><path stroke="#333333" stroke-width="1.0" stroke-linecap="butt" d="M52.5 300.5L581.5 300.5" fill-rule="nonzero"/><path stroke="#cccccc" stroke-width="1.0" stroke-linecap="butt" d="M52.5 247.5L581.5 247.5" fill-rule="nonzero"/><path stroke="#cccccc" stroke-width="1.0" stroke-linecap="butt" d="M52.5 194.5L581.5 194.5" fill-rule="nonzero"/><path stroke="#cccccc" stroke-width="1.0" stroke-linecap="butt" d="M52.5 141.5L581.5 141.5" fill-rule="nonzero"/><path stroke="#cccccc" stroke-width="1.0" stroke-linecap="butt" d="M52.5 88.5L581.5 88.5" fill-rule="nonzero"/><clipPath id="id_0"><path d="M52.55 88.28333L581.45 88.28333L581.45 300.45L52.55 300.45L52.55 88.28333Z" clip-rule="nonzero"/></clipPath><path stroke="#000000" stroke-width="2.0" stroke-linecap="butt" stroke-opacity="0.0" clip-path="url(#id_0)" d="M121.0 300.0L97.0 300.0L97.0 261.0C97.0 259.89542 97.89543 259.0 99.0 259.0L119.0 259.0C120.10457 259.0 121.0 259.89542 121.0 261.0Z" fill-rule="nonzero"/><path fill="#00b5ff" clip-path="url(#id_0)" d="M121.0 300.0L97.0 300.0L97.0 261.0C97.0 259.89542 97.89543 259.0 99.0 259.0L119.0 259.0C120.10457 259.0 121.0 259.89542 121.0 261.0Z" fill-rule="nonzero"/><path stroke="#000000" stroke-width="2.0" stroke-linecap="butt" stroke-opacity="0.0" clip-path="url(#id_0)" d="M242.0 300.0L218.0 300.0L218.0 286.0C218.0 284.89542 218.89543 284.0 220.0 284.0L240.0 284.0C241.10457 284.0 242.0 284.89542 242.0 286.0Z" fill-rule="nonzero"/><path fill="#00b5ff" clip-path="url(#id_0)" d="M242.0 300.0L218.0 300.0L218.0 286.0C218.0 284.89542 218.89543 284.0 220.0 284.0L240.0 284.0C241.10457 284.0 242.0 284.89542 242.0 286.0Z" fill-rule="nonzero"/><path stroke="#000000" stroke-width="2.0" stroke-linecap="butt" stroke-opacity="0.0" clip-path="url(#id_0)" d="M364.0 300.0L340.0 300.0L340.0 289.0C340.0 287.89542 340.89542 287.0 342.0 287.0L362.0 287.0C363.10458 287.0 364.0 287.89542 364.0 289.0Z" fill-rule="nonzero"/><path fill="#00b5ff" clip-path="url(#id_0)" d="M364.0 300.0L340.0 300.0L340.0 289.0C340.0 287.89542 340.89542 287.0 342.0 287.0L362.0 287.0C363.10458 287.0 364.0 287.89542 364.0 289.0Z" fill-rule="nonzero"/><path stroke="#000000" stroke-width="2.0" stroke-linecap="butt" stroke-opacity="0.0" clip-path="url(#id_0)" d="M485.0 300.0L461.0 300.0L461.0 298.5C461.0 297.67157 461.67157 297.0 462.5 297.0L483.5 297.0C484.32843 297.0 485.0 297.67157 485.0 298.5Z" fill-rule="nonzero"/><path fill="#00b5ff" clip-path="url(#id_0)" d="M485.0 300.0L461.0 300.0L461.0 298.5C461.0 297.67157 461.67157 297.0 462.5 297.0L483.5 297.0C484.32843 297.0 485.0 297.67157 485.0 298.5Z" fill-rule="nonzero"/><path stroke="#000000" stroke-width="2.0" stroke-linecap="butt" stroke-opacity="0.0" clip-path="url(#id_0)" d="M147.0 300.0L123.0 300.0L123.0 159.0C123.0 157.89543 123.89543 157.0 125.0 157.0L145.0 157.0C146.10457 157.0 147.0 157.89543 147.0 159.0Z" fill-rule="nonzero"/><path fill="#00aa6e" clip-path="url(#id_0)" d="M147.0 300.0L123.0 300.0L123.0 159.0C123.0 157.89543 123.89543 157.0 125.0 157.0L145.0 157.0C146.10457 157.0 147.0 157.89543 147.0 159.0Z" fill-rule="nonzero"/><path stroke="#000000" stroke-width="2.0" stroke-linecap="butt" stroke-opacity="0.0" clip-path="url(#id_0)" d="M268.0 300.0L244.0 300.0L244.0 226.0C244.0 224.89543 244.89543 224.0 246.0 224.0L266.0 224.0C267.10458 224.0 268.0 224.89543 268.0 226.0Z" fill-rule="nonzero"/><path fill="#00aa6e" clip-path="url(#id_0)" d="M268.0 300.0L244.0 300.0L244.0 226.0C244.0 224.89543 244.89543 224.0 246.0 224.0L266.0 224.0C267.10458 224.0 268.0 224.89543 268.0 226.0Z" fill-rule="nonzero"/><path stroke="#000000" stroke-width="2.0" stroke-linecap="butt" stroke-opacity="0.0" clip-path="url(#id_0)" d="M390.0 300.0L366.0 300.0L366.0 278.0C366.0 276.89542 366.89542 276.0 368.0 276.0L388.0 276.0C389.10458 276.0 390.0 276.89542 390.0 278.0Z" fill-rule="nonzero"/><path fill="#00aa6e" clip-path="url(#id_0)" d="M390.0 300.0L366.0 300.0L366.0 278.0C366.0 276.89542 366.89542 276.0 368.0 276.0L388.0 276.0C389.10458 276.0 390.0 276.89542 390.0 278.0Z" fill-rule="nonzero"/><path stroke="#000000" stroke-width="2.0" stroke-linecap="butt" stroke-opacity="0.0" clip-path="url(#id_0)" d="M511.0 300.0L487.0 300.0L487.0 297.0C487.0 295.89542 487.89542 295.0 489.0 295.0L509.0 295.0C510.10458 295.0 511.0 295.89542 511.0 297.0Z" fill-rule="nonzero"/><path fill="#00aa6e" clip-path="url(#id_0)" d="M511.0 300.0L487.0 300.0L487.0 297.0C487.0 295.89542 487.89542 295.0 489.0 295.0L509.0 295.0C510.10458 295.0 511.0 295.89542 511.0 297.0Z" fill-rule="nonzero"/><path stroke="#000000" stroke-width="2.0" stroke-linecap="butt" stroke-opacity="0.0" clip-path="url(#id_0)" d="M173.0 300.0L149.0 300.0L149.0 132.0C149.0 130.89543 149.89543 130.0 151.0 130.0L171.0 130.0C172.10457 130.0 173.0 130.89543 173.0 132.0Z" fill-rule="nonzero"/><path fill="#ffbe00" clip-path="url(#id_0)" d="M173.0 300.0L149.0 300.0L149.0 132.0C149.0 130.89543 149.89543 130.0 151.0 130.0L171.0 130.0C172.10457 130.0 173.0 130.89543 173.0 132.0Z" fill-rule="nonzero"/><path stroke="#000000" stroke-width="2.0" stroke-linecap="butt" stroke-opacity="0.0" clip-path="url(#id_0)" d="M294.0 300.0L270.0 300.0L270.0 221.0C270.0 219.89543 270.89542 219.0 272.0 219.0L292.0 219.0C293.10458 219.0 294.0 219.89543 294.0 221.0Z" fill-rule="nonzero"/><path fill="#ffbe00" clip-path="url(#id_0)" d="M294.0 300.0L270.0 300.0L270.0 221.0C270.0 219.89543 270.89542 219.0 272.0 219.0L292.0 219.0C293.10458 219.0 294.0 219.89543 294.0 221.0Z" fill-rule="nonzero"/><path stroke="#000000" stroke-width="2.0" stroke-linecap="butt" stroke-opacity="0.0" clip-path="url(#id_0)" d="M416.0 300.0L392.0 300.0L392.0 278.0C392.0 276.89542 392.89542 276.0 394.0 276.0L414.0 276.0C415.10458 276.0 416.0 276.89542 416.0 278.0Z" fill-rule="nonzero"/><path fill="#ffbe00" clip-path="url(#id_0)" d="M416.0 300.0L392.0 300.0L392.0 278.0C392.0 276.89542 392.89542 276.0 394.0 276.0L414.0 276.0C415.10458 276.0 416.0 276.89542 416.0 278.0Z" fill-rule="nonzero"/><path stroke="#000000" stroke-width="2.0" stroke-linecap="butt" stroke-opacity="0.0" clip-path="url(#id_0)" d="M537.0 300.0L513.0 300.0L513.0 297.0C513.0 295.89542 513.89545 295.0 515.0 295.0L535.0 295.0C536.10455 295.0 537.0 295.89542 537.0 297.0Z" fill-rule="nonzero"/><path fill="#ffbe00" clip-path="url(#id_0)" d="M537.0 300.0L513.0 300.0L513.0 297.0C513.0 295.89542 513.89545 295.0 515.0 295.0L535.0 295.0C536.10455 295.0 537.0 295.89542 537.0 297.0Z" fill-rule="nonzero"/><path fill="#000000" d="M299.0625 346.4344L300.1875 346.73126Q299.82812 348.1219 298.90625 348.85626Q297.98438 349.59064 296.64062 349.59064Q295.25 349.59064 294.375 349.02814Q293.5 348.46564 293.04688 347.40314Q292.59375 346.325 292.59375 345.09064Q292.59375 343.7469 293.10938 342.7469Q293.625 341.7469 294.5625 341.23126Q295.51562 340.71564 296.65625 340.71564Q297.9375 340.71564 298.8125 341.3719Q299.70312 342.02814 300.04688 343.21564L298.92188 343.48126Q298.625 342.54376 298.04688 342.1219Q297.48438 341.6844 296.625 341.6844Q295.64062 341.6844 294.96875 342.16876Q294.3125 342.6375 294.03125 343.4344Q293.76562 344.23126 293.76562 345.09064Q293.76562 346.1844 294.07812 346.9969Q294.40625 347.8094 295.07812 348.21564Q295.75 348.6219 296.54688 348.6219Q297.5 348.6219 298.15625 348.075Q298.82812 347.52814 299.0625 346.4344ZM301.40625 346.34064Q301.40625 344.60626 302.35938 343.77814Q303.15625 343.09064 304.3125 343.09064Q305.59375 343.09064 306.40625 343.9344Q307.23438 344.7625 307.23438 346.2469Q307.23438 347.45 306.875 348.1375Q306.51562 348.825 305.8125 349.21564Q305.125 349.59064 304.3125 349.59064Q303.01562 349.59064 302.20312 348.7625Q301.40625 347.91876 301.40625 346.34064ZM302.48438 346.34064Q302.48438 347.52814 303.0 348.1219Q303.53125 348.71564 304.3125 348.71564Q305.10938 348.71564 305.625 348.1219Q306.14062 347.52814 306.14062 346.3094Q306.14062 345.15314 305.60938 344.5594Q305.09375 343.96564 304.3125 343.96564Q303.53125 343.96564 303.0 344.5594Q302.48438 345.1375 302.48438 346.34064ZM308.79688 349.45L308.79688 343.23126L309.73438 343.23126L309.73438 344.10626Q310.42188 343.09064 311.71875 343.09064Q312.28125 343.09064 312.75 343.29376Q313.23438 343.4969 313.46875 343.825Q313.70312 344.15314 313.79688 344.59064Q313.84375 344.8875 313.84375 345.6219L313.84375 349.45L312.79688 349.45L312.79688 345.66876Q312.79688 345.0125 312.67188 344.7Q312.54688 344.3875 312.23438 344.2Q311.92188 343.9969 311.5 343.9969Q310.82812 343.9969 310.32812 344.4344Q309.84375 344.85626 309.84375 346.04376L309.84375 349.45L308.79688 349.45ZM320.04688 347.45L321.14062 347.575Q320.89062 348.52814 320.1875 349.0594Q319.48438 349.59064 318.40625 349.59064Q317.04688 349.59064 316.23438 348.7469Q315.4375 347.90314 315.4375 346.3875Q315.4375 344.825 316.25 343.96564Q317.0625 343.09064 318.34375 343.09064Q319.59375 343.09064 320.375 343.9344Q321.17188 344.77814 321.17188 346.325Q321.17188 346.41876 321.17188 346.60626L316.53125 346.60626Q316.59375 347.6375 317.10938 348.1844Q317.625 348.71564 318.40625 348.71564Q318.98438 348.71564 319.39062 348.41876Q319.8125 348.10626 320.04688 347.45ZM316.59375 345.7469L320.0625 345.7469Q320.0 344.95 319.67188 344.5594Q319.15625 343.95 318.35938 343.95Q317.625 343.95 317.125 344.4344Q316.64062 344.91876 316.59375 345.7469ZM326.85938 347.16876L327.89062 347.3094Q327.71875 348.3719 327.01562 348.98126Q326.3125 349.59064 325.29688 349.59064Q324.01562 349.59064 323.23438 348.7625Q322.46875 347.91876 322.46875 346.35626Q322.46875 345.35626 322.79688 344.60626Q323.14062 343.84064 323.8125 343.46564Q324.5 343.09064 325.3125 343.09064Q326.3125 343.09064 326.95312 343.60626Q327.60938 344.10626 327.79688 345.0594L326.76562 345.21564Q326.625 344.59064 326.25 344.27814Q325.875 343.95 325.34375 343.95Q324.54688 343.95 324.04688 344.52814Q323.54688 345.09064 323.54688 346.325Q323.54688 347.59064 324.03125 348.15314Q324.51562 348.71564 325.28125 348.71564Q325.90625 348.71564 326.3125 348.34064Q326.73438 347.96564 326.85938 347.16876ZM331.09375 348.5125L331.25 349.4344Q330.79688 349.52814 330.45312 349.52814Q329.875 349.52814 329.5625 349.35626Q329.25 349.16876 329.10938 348.8719Q328.98438 348.575 328.98438 347.6219L328.98438 344.04376L328.21875 344.04376L328.21875 343.23126L328.98438 343.23126L328.98438 341.6844L330.03125 341.0594L330.03125 343.23126L331.09375 343.23126L331.09375 344.04376L330.03125 344.04376L330.03125 347.6844Q330.03125 348.1375 330.07812 348.2625Q330.14062 348.3875 330.26562 348.46564Q330.39062 348.54376 330.625 348.54376Q330.8125 348.54376 331.09375 348.5125ZM331.40625 346.34064Q331.40625 344.60626 332.35938 343.77814Q333.15625 343.09064 334.3125 343.09064Q335.59375 343.09064 336.40625 343.9344Q337.23438 344.7625 337.23438 346.2469Q337.23438 347.45 336.875 348.1375Q336.51562 348.825 335.8125 349.21564Q335.125 349.59064 334.3125 349.59064Q333.01562 349.59064 332.20312 348.7625Q331.40625 347.91876 331.40625 346.34064ZM332.48438 346.34064Q332.48438 347.52814 333.0 348.1219Q333.53125 348.71564 334.3125 348.71564Q335.10938 348.71564 335.625 348.1219Q336.14062 347.52814 336.14062 346.3094Q336.14062 345.15314 335.60938 344.5594Q335.09375 343.96564 334.3125 343.96564Q333.53125 343.96564 333.0 344.5594Q332.48438 345.1375 332.48438 346.34064ZM338.78125 349.45L338.78125 343.23126L339.73438 343.23126L339.73438 344.16876Q340.09375 343.5125 340.39062 343.3094Q340.70312 343.09064 341.07812 343.09064Q341.60938 343.09064 342.15625 343.41876L341.79688 344.40314Q341.40625 344.16876 341.03125 344.16876Q340.67188 344.16876 340.39062 344.3875Q340.125 344.59064 340.01562 344.96564Q339.82812 345.52814 339.82812 346.1844L339.82812 349.45L338.78125 349.45Z" fill-rule="nonzero"/><path fill="#000000" d="M40.05 300.21564Q40.05 298.6844 40.3625 297.7625Q40.675 296.825 41.284374 296.325Q41.909374 295.825 42.846874 295.825Q43.534374 295.825 44.05 296.10626Q44.58125 296.3875 44.925 296.91876Q45.26875 297.4344 45.45625 298.1844Q45.64375 298.9344 45.64375 300.21564Q45.64375 301.73126 45.33125 302.65314Q45.034374 303.575 44.409374 304.09064Q43.8 304.59064 42.846874 304.59064Q41.6125 304.59064 40.89375 303.7Q40.05 302.6375 40.05 300.21564ZM41.128124 300.21564Q41.128124 302.325 41.628124 303.02814Q42.128124 303.73126 42.846874 303.73126Q43.58125 303.73126 44.065624 303.02814Q44.565624 302.325 44.565624 300.21564Q44.565624 298.09064 44.065624 297.40314Q43.58125 296.7 42.83125 296.7Q42.1125 296.7 41.675 297.3094Q41.128124 298.09064 41.128124 300.21564Z" fill-rule="nonzero"/><path fill="#000000" d="M23.01875 251.40834L21.971874 251.40834L21.971874 244.68959Q21.58125 245.04897 20.95625 245.42397Q20.346874 245.78334 19.8625 245.95522L19.8625 244.93959Q20.7375 244.51772 21.39375 243.93959Q22.065624 243.34584 22.346874 242.78334L23.01875 242.78334L23.01875 251.40834ZM26.05 247.17397Q26.05 245.64272 26.3625 244.72084Q26.675 243.78334 27.284374 243.28334Q27.909374 242.78334 28.846874 242.78334Q29.534374 242.78334 30.05 243.06459Q30.58125 243.34584 30.925 243.87709Q31.26875 244.39272 31.45625 245.14272Q31.64375 245.89272 31.64375 247.17397Q31.64375 248.68959 31.33125 249.61147Q31.034374 250.53334 30.409374 251.04897Q29.8 251.54897 28.846874 251.54897Q27.6125 251.54897 26.89375 250.65834Q26.05 249.59584 26.05 247.17397ZM27.128124 247.17397Q27.128124 249.28334 27.628124 249.98647Q28.128124 250.68959 28.846874 250.68959Q29.58125 250.68959 30.065624 249.98647Q30.565624 249.28334 30.565624 247.17397Q30.565624 245.04897 30.065624 244.36147Q29.58125 243.65834 28.83125 243.65834Q28.1125 243.65834 27.675 244.26772Q27.128124 245.04897 27.128124 247.17397ZM33.05 247.17397Q33.05 245.64272 33.3625 244.72084Q33.675 243.78334 34.284374 243.28334Q34.909374 242.78334 35.846874 242.78334Q36.534374 242.78334 37.05 243.06459Q37.58125 243.34584 37.925 243.87709Q38.26875 244.39272 38.45625 245.14272Q38.64375 245.89272 38.64375 247.17397Q38.64375 248.68959 38.33125 249.61147Q38.034374 250.53334 37.409374 251.04897Q36.8 251.54897 35.846874 251.54897Q34.6125 251.54897 33.89375 250.65834Q33.05 249.59584 33.05 247.17397ZM34.128124 247.17397Q34.128124 249.28334 34.628124 249.98647Q35.128124 250.68959 35.846874 250.68959Q36.58125 250.68959 37.065624 249.98647Q37.565624 249.28334 37.565624 247.17397Q37.565624 245.04897 37.065624 244.36147Q36.58125 243.65834 35.83125 243.65834Q35.1125 243.65834 34.675 244.26772Q34.128124 245.04897 34.128124 247.17397ZM40.05 247.17397Q40.05 245.64272 40.3625 244.72084Q40.675 243.78334 41.284374 243.28334Q41.909374 242.78334 42.846874 242.78334Q43.534374 242.78334 44.05 243.06459Q44.58125 243.34584 44.925 243.87709Q45.26875 244.39272 45.45625 245.14272Q45.64375 245.89272 45.64375 247.17397Q45.64375 248.68959 45.33125 249.61147Q45.034374 250.53334 44.409374 251.04897Q43.8 251.54897 42.846874 251.54897Q41.6125 251.54897 40.89375 250.65834Q40.05 249.59584 40.05 247.17397ZM41.128124 247.17397Q41.128124 249.28334 41.628124 249.98647Q42.128124 250.68959 42.846874 250.68959Q43.58125 250.68959 44.065624 249.98647Q44.565624 249.28334 44.565624 247.17397Q44.565624 245.04897 44.065624 244.36147Q43.58125 243.65834 42.83125 243.65834Q42.1125 243.65834 41.675 244.26772Q41.128124 245.04897 41.128124 247.17397Z" fill-rule="nonzero"/><path fill="#000000" d="M24.596874 197.35104L24.596874 198.36667L18.909374 198.36667Q18.909374 197.99167 19.034374 197.6323Q19.253124 197.05417 19.721874 196.49167Q20.20625 195.92917 21.1125 195.1948Q22.51875 194.03854 23.003124 193.36667Q23.503124 192.6948 23.503124 192.10104Q23.503124 191.47604 23.05 191.05417Q22.596874 190.61667 21.878124 190.61667Q21.1125 190.61667 20.659374 191.0698Q20.20625 191.52292 20.190624 192.33542L19.1125 192.22604Q19.221874 191.0073 19.940624 190.3823Q20.675 189.74167 21.909374 189.74167Q23.14375 189.74167 23.8625 190.42917Q24.58125 191.11667 24.58125 192.1323Q24.58125 192.64792 24.3625 193.14792Q24.159374 193.6323 23.659374 194.1948Q23.175 194.74167 22.05 195.6948Q21.096874 196.49167 20.815624 196.78854Q20.55 197.0698 20.378124 197.35104L24.596874 197.35104ZM26.05 194.1323Q26.05 192.60104 26.3625 191.67917Q26.675 190.74167 27.284374 190.24167Q27.909374 189.74167 28.846874 189.74167Q29.534374 189.74167 30.05 190.02292Q30.58125 190.30417 30.925 190.83542Q31.26875 191.35104 31.45625 192.10104Q31.64375 192.85104 31.64375 194.1323Q31.64375 195.64792 31.33125 196.5698Q31.034374 197.49167 30.409374 198.0073Q29.8 198.5073 28.846874 198.5073Q27.6125 198.5073 26.89375 197.61667Q26.05 196.55417 26.05 194.1323ZM27.128124 194.1323Q27.128124 196.24167 27.628124 196.9448Q28.128124 197.64792 28.846874 197.64792Q29.58125 197.64792 30.065624 196.9448Q30.565624 196.24167 30.565624 194.1323Q30.565624 192.0073 30.065624 191.3198Q29.58125 190.61667 28.83125 190.61667Q28.1125 190.61667 27.675 191.22604Q27.128124 192.0073 27.128124 194.1323ZM33.05 194.1323Q33.05 192.60104 33.3625 191.67917Q33.675 190.74167 34.284374 190.24167Q34.909374 189.74167 35.846874 189.74167Q36.534374 189.74167 37.05 190.02292Q37.58125 190.30417 37.925 190.83542Q38.26875 191.35104 38.45625 192.10104Q38.64375 192.85104 38.64375 194.1323Q38.64375 195.64792 38.33125 196.5698Q38.034374 197.49167 37.409374 198.0073Q36.8 198.5073 35.846874 198.5073Q34.6125 198.5073 33.89375 197.61667Q33.05 196.55417 33.05 194.1323ZM34.128124 194.1323Q34.128124 196.24167 34.628124 196.9448Q35.128124 197.64792 35.846874 197.64792Q36.58125 197.64792 37.065624 196.9448Q37.565624 196.24167 37.565624 194.1323Q37.565624 192.0073 37.065624 191.3198Q36.58125 190.61667 35.83125 190.61667Q35.1125 190.61667 34.675 191.22604Q34.128124 192.0073 34.128124 194.1323ZM40.05 194.1323Q40.05 192.60104 40.3625 191.67917Q40.675 190.74167 41.284374 190.24167Q41.909374 189.74167 42.846874 189.74167Q43.534374 189.74167 44.05 190.02292Q44.58125 190.30417 44.925 190.83542Q45.26875 191.35104 45.45625 192.10104Q45.64375 192.85104 45.64375 194.1323Q45.64375 195.64792 45.33125 196.5698Q45.034374 197.49167 44.409374 198.0073Q43.8 198.5073 42.846874 198.5073Q41.6125 198.5073 40.89375 197.61667Q40.05 196.55417 40.05 194.1323ZM41.128124 194.1323Q41.128124 196.24167 41.628124 196.9448Q42.128124 197.64792 42.846874 197.64792Q43.58125 197.64792 44.065624 196.9448Q44.565624 196.24167 44.565624 194.1323Q44.565624 192.0073 44.065624 191.3198Q43.58125 190.61667 42.83125 190.61667Q42.1125 190.61667 41.675 191.22604Q41.128124 192.0073 41.128124 194.1323Z" fill-rule="nonzero"/><path fill="#000000" d="M19.05 143.05937L20.1125 142.91875Q20.284374 143.80937 20.721874 144.21562Q21.159374 144.60625 21.784374 144.60625Q22.534374 144.60625 23.05 144.09062Q23.565624 143.575 23.565624 142.80937Q23.565624 142.09062 23.08125 141.62187Q22.6125 141.1375 21.878124 141.1375Q21.58125 141.1375 21.128124 141.2625L21.253124 140.325Q21.3625 140.34062 21.425 140.34062Q22.096874 140.34062 22.628124 139.99687Q23.175 139.6375 23.175 138.90312Q23.175 138.325 22.784374 137.95Q22.39375 137.55937 21.76875 137.55937Q21.159374 137.55937 20.7375 137.95Q20.33125 138.34062 20.221874 139.10625L19.159374 138.91875Q19.346874 137.87187 20.034374 137.29375Q20.721874 136.7 21.7375 136.7Q22.440624 136.7 23.034374 137.0125Q23.628124 137.30937 23.940624 137.825Q24.253124 138.34062 24.253124 138.93437Q24.253124 139.48125 23.95625 139.95Q23.659374 140.40312 23.08125 140.66875Q23.83125 140.84062 24.253124 141.40312Q24.675 141.95 24.675 142.79375Q24.675 143.91875 23.846874 144.7Q23.034374 145.48125 21.784374 145.48125Q20.659374 145.48125 19.909374 144.80937Q19.159374 144.12187 19.05 143.05937ZM26.05 141.09062Q26.05 139.55937 26.3625 138.6375Q26.675 137.7 27.284374 137.2Q27.909374 136.7 28.846874 136.7Q29.534374 136.7 30.05 136.98125Q30.58125 137.2625 30.925 137.79375Q31.26875 138.30937 31.45625 139.05937Q31.64375 139.80937 31.64375 141.09062Q31.64375 142.60625 31.33125 143.52812Q31.034374 144.45 30.409374 144.96562Q29.8 145.46562 28.846874 145.46562Q27.6125 145.46562 26.89375 144.575Q26.05 143.5125 26.05 141.09062ZM27.128124 141.09062Q27.128124 143.2 27.628124 143.90312Q28.128124 144.60625 28.846874 144.60625Q29.58125 144.60625 30.065624 143.90312Q30.565624 143.2 30.565624 141.09062Q30.565624 138.96562 30.065624 138.27812Q29.58125 137.575 28.83125 137.575Q28.1125 137.575 27.675 138.18437Q27.128124 138.96562 27.128124 141.09062ZM33.05 141.09062Q33.05 139.55937 33.3625 138.6375Q33.675 137.7 34.284374 137.2Q34.909374 136.7 35.846874 136.7Q36.534374 136.7 37.05 136.98125Q37.58125 137.2625 37.925 137.79375Q38.26875 138.30937 38.45625 139.05937Q38.64375 139.80937 38.64375 141.09062Q38.64375 142.60625 38.33125 143.52812Q38.034374 144.45 37.409374 144.96562Q36.8 145.46562 35.846874 145.46562Q34.6125 145.46562 33.89375 144.575Q33.05 143.5125 33.05 141.09062ZM34.128124 141.09062Q34.128124 143.2 34.628124 143.90312Q35.128124 144.60625 35.846874 144.60625Q36.58125 144.60625 37.065624 143.90312Q37.565624 143.2 37.565624 141.09062Q37.565624 138.96562 37.065624 138.27812Q36.58125 137.575 35.83125 137.575Q35.1125 137.575 34.675 138.18437Q34.128124 138.96562 34.128124 141.09062ZM40.05 141.09062Q40.05 139.55937 40.3625 138.6375Q40.675 137.7 41.284374 137.2Q41.909374 136.7 42.846874 136.7Q43.534374 136.7 44.05 136.98125Q44.58125 137.2625 44.925 137.79375Q45.26875 138.30937 45.45625 139.05937Q45.64375 139.80937 45.64375 141.09062Q45.64375 142.60625 45.33125 143.52812Q45.034374 144.45 44.409374 144.96562Q43.8 145.46562 42.846874 145.46562Q41.6125 145.46562 40.89375 144.575Q40.05 143.5125 40.05 141.09062ZM41.128124 141.09062Q41.128124 143.2 41.628124 143.90312Q42.128124 144.60625 42.846874 144.60625Q43.58125 144.60625 44.065624 143.90312Q44.565624 143.2 44.565624 141.09062Q44.565624 138.96562 44.065624 138.27812Q43.58125 137.575 42.83125 137.575Q42.1125 137.575 41.675 138.18437Q41.128124 138.96562 41.128124 141.09062Z" fill-rule="nonzero"/><path fill="#000000" d="M22.425 92.28333L22.425 90.22083L18.70625 90.22083L18.70625 89.25208L22.628124 83.68958L23.4875 83.68958L23.4875 89.25208L24.64375 89.25208L24.64375 90.22083L23.4875 90.22083L23.4875 92.28333L22.425 92.28333ZM22.425 89.25208L22.425 85.39271L19.7375 89.25208L22.425 89.25208ZM26.05 88.04896Q26.05 86.51771 26.3625 85.59583Q26.675 84.65833 27.284374 84.15833Q27.909374 83.65833 28.846874 83.65833Q29.534374 83.65833 30.05 83.93958Q30.58125 84.22083 30.925 84.75208Q31.26875 85.26771 31.45625 86.01771Q31.64375 86.76771 31.64375 88.04896Q31.64375 89.56458 31.33125 90.48646Q31.034374 91.40833 30.409374 91.92396Q29.8 92.42396 28.846874 92.42396Q27.6125 92.42396 26.89375 91.53333Q26.05 90.47083 26.05 88.04896ZM27.128124 88.04896Q27.128124 90.15833 27.628124 90.86146Q28.128124 91.56458 28.846874 91.56458Q29.58125 91.56458 30.065624 90.86146Q30.565624 90.15833 30.565624 88.04896Q30.565624 85.92396 30.065624 85.23646Q29.58125 84.53333 28.83125 84.53333Q28.1125 84.53333 27.675 85.14271Q27.128124 85.92396 27.128124 88.04896ZM33.05 88.04896Q33.05 86.51771 33.3625 85.59583Q33.675 84.65833 34.284374 84.15833Q34.909374 83.65833 35.846874 83.65833Q36.534374 83.65833 37.05 83.93958Q37.58125 84.22083 37.925 84.75208Q38.26875 85.26771 38.45625 86.01771Q38.64375 86.76771 38.64375 88.04896Q38.64375 89.56458 38.33125 90.48646Q38.034374 91.40833 37.409374 91.92396Q36.8 92.42396 35.846874 92.42396Q34.6125 92.42396 33.89375 91.53333Q33.05 90.47083 33.05 88.04896ZM34.128124 88.04896Q34.128124 90.15833 34.628124 90.86146Q35.128124 91.56458 35.846874 91.56458Q36.58125 91.56458 37.065624 90.86146Q37.565624 90.15833 37.565624 88.04896Q37.565624 85.92396 37.065624 85.23646Q36.58125 84.53333 35.83125 84.53333Q35.1125 84.53333 34.675 85.14271Q34.128124 85.92396 34.128124 88.04896ZM40.05 88.04896Q40.05 86.51771 40.3625 85.59583Q40.675 84.65833 41.284374 84.15833Q41.909374 83.65833 42.846874 83.65833Q43.534374 83.65833 44.05 83.93958Q44.58125 84.22083 44.925 84.75208Q45.26875 85.26771 45.45625 86.01771Q45.64375 86.76771 45.64375 88.04896Q45.64375 89.56458 45.33125 90.48646Q45.034374 91.40833 44.409374 91.92396Q43.8 92.42396 42.846874 92.42396Q41.6125 92.42396 40.89375 91.53333Q40.05 90.47083 40.05 88.04896ZM41.128124 88.04896Q41.128124 90.15833 41.628124 90.86146Q42.128124 91.56458 42.846874 91.56458Q43.58125 91.56458 44.065624 90.86146Q44.565624 90.15833 44.565624 88.04896Q44.565624 85.92396 44.065624 85.23646Q43.58125 84.53333 42.83125 84.53333Q42.1125 84.53333 41.675 85.14271Q41.128124 85.92396 41.128124 88.04896Z" fill-rule="nonzero"/><path fill="#000000" d="M128.1207 315.2L129.23007 315.10626Q129.35507 315.91876 129.79257 316.325Q130.2457 316.73126 130.88632 316.73126Q131.63632 316.73126 132.16757 316.15314Q132.69882 315.575 132.69882 314.6375Q132.69882 313.73126 132.1832 313.21564Q131.6832 312.6844 130.85507 312.6844Q130.35507 312.6844 129.9332 312.91876Q129.52695 313.15314 129.29257 313.5125L128.3082 313.3875L129.13632 308.98126L133.41757 308.98126L133.41757 309.98126L129.98007 309.98126L129.52695 312.29376Q130.29257 311.7469 131.13632 311.7469Q132.26132 311.7469 133.02695 312.52814Q133.8082 313.3094 133.8082 314.54376Q133.8082 315.7 133.13632 316.5594Q132.3082 317.59064 130.88632 317.59064Q129.71445 317.59064 128.96445 316.9344Q128.23007 316.27814 128.1207 315.2ZM135.1207 313.21564Q135.1207 311.6844 135.4332 310.7625Q135.7457 309.825 136.35507 309.325Q136.98007 308.825 137.91757 308.825Q138.60507 308.825 139.1207 309.10626Q139.65195 309.3875 139.9957 309.91876Q140.33945 310.4344 140.52695 311.1844Q140.71445 311.9344 140.71445 313.21564Q140.71445 314.73126 140.40195 315.65314Q140.10507 316.575 139.48007 317.09064Q138.8707 317.59064 137.91757 317.59064Q136.6832 317.59064 135.96445 316.7Q135.1207 315.6375 135.1207 313.21564ZM136.19882 313.21564Q136.19882 315.325 136.69882 316.02814Q137.19882 316.73126 137.91757 316.73126Q138.65195 316.73126 139.13632 316.02814Q139.63632 315.325 139.63632 313.21564Q139.63632 311.09064 139.13632 310.40314Q138.65195 309.7 137.90195 309.7Q137.1832 309.7 136.7457 310.3094Q136.19882 311.09064 136.19882 313.21564Z" fill-rule="nonzero"/><path fill="#000000" d="M251.75377 316.4344L251.75377 317.45L246.06627 317.45Q246.06627 317.075 246.19127 316.71564Q246.41002 316.1375 246.87877 315.575Q247.36314 315.0125 248.2694 314.27814Q249.67564 313.1219 250.16002 312.45Q250.66002 311.77814 250.66002 311.1844Q250.66002 310.5594 250.2069 310.1375Q249.75377 309.7 249.03502 309.7Q248.2694 309.7 247.81627 310.15314Q247.36314 310.60626 247.34752 311.41876L246.2694 311.3094Q246.37877 310.09064 247.09752 309.46564Q247.8319 308.825 249.06627 308.825Q250.30064 308.825 251.0194 309.5125Q251.73814 310.2 251.73814 311.21564Q251.73814 311.73126 251.5194 312.23126Q251.31627 312.71564 250.81627 313.27814Q250.3319 313.825 249.2069 314.77814Q248.25377 315.575 247.97252 315.8719Q247.7069 316.15314 247.53502 316.4344L251.75377 316.4344ZM253.2069 315.2L254.31627 315.10626Q254.44127 315.91876 254.87877 316.325Q255.3319 316.73126 255.97252 316.73126Q256.72253 316.73126 257.25378 316.15314Q257.78503 315.575 257.78503 314.6375Q257.78503 313.73126 257.2694 313.21564Q256.7694 312.6844 255.94127 312.6844Q255.44127 312.6844 255.0194 312.91876Q254.61314 313.15314 254.37877 313.5125L253.3944 313.3875L254.22252 308.98126L258.50378 308.98126L258.50378 309.98126L255.06627 309.98126L254.61314 312.29376Q255.37877 311.7469 256.22253 311.7469Q257.34753 311.7469 258.11316 312.52814Q258.8944 313.3094 258.8944 314.54376Q258.8944 315.7 258.22253 316.5594Q257.3944 317.59064 255.97252 317.59064Q254.80064 317.59064 254.05064 316.9344Q253.31627 316.27814 253.2069 315.2ZM260.2069 313.21564Q260.2069 311.6844 260.5194 310.7625Q260.8319 309.825 261.44128 309.325Q262.06628 308.825 263.00378 308.825Q263.69128 308.825 264.2069 309.10626Q264.73816 309.3875 265.0819 309.91876Q265.42566 310.4344 265.61316 311.1844Q265.80066 311.9344 265.80066 313.21564Q265.80066 314.73126 265.48816 315.65314Q265.19128 316.575 264.56628 317.09064Q263.9569 317.59064 263.00378 317.59064Q261.7694 317.59064 261.05066 316.7Q260.2069 315.6375 260.2069 313.21564ZM261.28503 313.21564Q261.28503 315.325 261.78503 316.02814Q262.28503 316.73126 263.00378 316.73126Q263.73816 316.73126 264.22253 316.02814Q264.72253 315.325 264.72253 313.21564Q264.72253 311.09064 264.22253 310.40314Q263.73816 309.7 262.98816 309.7Q262.2694 309.7 261.8319 310.3094Q261.28503 311.09064 261.28503 313.21564Z" fill-rule="nonzero"/><path fill="#000000" d="M368.26184 317.45L367.21497 317.45L367.21497 310.73126Q366.82434 311.09064 366.19934 311.46564Q365.58997 311.825 365.1056 311.9969L365.1056 310.98126Q365.9806 310.5594 366.63684 309.98126Q367.30872 309.3875 367.58997 308.825L368.26184 308.825L368.26184 317.45ZM371.2931 313.21564Q371.2931 311.6844 371.6056 310.7625Q371.9181 309.825 372.52747 309.325Q373.15247 308.825 374.08997 308.825Q374.77747 308.825 375.2931 309.10626Q375.82434 309.3875 376.1681 309.91876Q376.51184 310.4344 376.69934 311.1844Q376.88684 311.9344 376.88684 313.21564Q376.88684 314.73126 376.57434 315.65314Q376.27747 316.575 375.65247 317.09064Q375.0431 317.59064 374.08997 317.59064Q372.8556 317.59064 372.13684 316.7Q371.2931 315.6375 371.2931 313.21564ZM372.37122 313.21564Q372.37122 315.325 372.87122 316.02814Q373.37122 316.73126 374.08997 316.73126Q374.82434 316.73126 375.30872 316.02814Q375.80872 315.325 375.80872 313.21564Q375.80872 311.09064 375.30872 310.40314Q374.82434 309.7 374.07434 309.7Q373.3556 309.7 372.9181 310.3094Q372.37122 311.09064 372.37122 313.21564ZM378.2931 313.21564Q378.2931 311.6844 378.6056 310.7625Q378.9181 309.825 379.52747 309.325Q380.15247 308.825 381.08997 308.825Q381.77747 308.825 382.2931 309.10626Q382.82434 309.3875 383.1681 309.91876Q383.51184 310.4344 383.69934 311.1844Q383.88684 311.9344 383.88684 313.21564Q383.88684 314.73126 383.57434 315.65314Q383.27747 316.575 382.65247 317.09064Q382.0431 317.59064 381.08997 317.59064Q379.8556 317.59064 379.13684 316.7Q378.2931 315.6375 378.2931 313.21564ZM379.37122 313.21564Q379.37122 315.325 379.87122 316.02814Q380.37122 316.73126 381.08997 316.73126Q381.82434 316.73126 382.30872 316.02814Q382.80872 315.325 382.80872 313.21564Q382.80872 311.09064 382.30872 310.40314Q381.82434 309.7 381.07434 309.7Q380.3556 309.7 379.9181 310.3094Q379.37122 311.09064 379.37122 313.21564ZM385.2931 313.21564Q385.2931 311.6844 385.6056 310.7625Q385.9181 309.825 386.52747 309.325Q387.15247 308.825 388.08997 308.825Q388.77747 308.825 389.2931 309.10626Q389.82434 309.3875 390.1681 309.91876Q390.51184 310.4344 390.69934 311.1844Q390.88684 311.9344 390.88684 313.21564Q390.88684 314.73126 390.57434 315.65314Q390.27747 316.575 389.65247 317.09064Q389.0431 317.59064 388.08997 317.59064Q386.8556 317.59064 386.13684 316.7Q385.2931 315.6375 385.2931 313.21564ZM386.37122 313.21564Q386.37122 315.325 386.87122 316.02814Q387.37122 316.73126 388.08997 316.73126Q388.82434 316.73126 389.30872 316.02814Q389.80872 315.325 389.80872 313.21564Q389.80872 311.09064 389.30872 310.40314Q388.82434 309.7 388.07434 309.7Q387.3556 309.7 386.9181 310.3094Q386.37122 311.09064 386.37122 313.21564Z" fill-rule="nonzero"/><path fill="#000000" d="M485.8793 315.2L486.98868 315.10626Q487.11368 315.91876 487.55118 316.325Q488.0043 316.73126 488.64493 316.73126Q489.39493 316.73126 489.92618 316.15314Q490.45743 315.575 490.45743 314.6375Q490.45743 313.73126 489.9418 313.21564Q489.4418 312.6844 488.61368 312.6844Q488.11368 312.6844 487.6918 312.91876Q487.28555 313.15314 487.05118 313.5125L486.0668 313.3875L486.89493 308.98126L491.17618 308.98126L491.17618 309.98126L487.73868 309.98126L487.28555 312.29376Q488.05118 311.7469 488.89493 311.7469Q490.01993 311.7469 490.78555 312.52814Q491.5668 313.3094 491.5668 314.54376Q491.5668 315.7 490.89493 316.5594Q490.0668 317.59064 488.64493 317.59064Q487.47305 317.59064 486.72305 316.9344Q485.98868 316.27814 485.8793 315.2ZM492.8793 313.21564Q492.8793 311.6844 493.1918 310.7625Q493.5043 309.825 494.11368 309.325Q494.73868 308.825 495.67618 308.825Q496.36368 308.825 496.8793 309.10626Q497.41055 309.3875 497.7543 309.91876Q498.09805 310.4344 498.28555 311.1844Q498.47305 311.9344 498.47305 313.21564Q498.47305 314.73126 498.16055 315.65314Q497.86368 316.575 497.23868 317.09064Q496.6293 317.59064 495.67618 317.59064Q494.4418 317.59064 493.72305 316.7Q492.8793 315.6375 492.8793 313.21564ZM493.95743 313.21564Q493.95743 315.325 494.45743 316.02814Q494.95743 316.73126 495.67618 316.73126Q496.41055 316.73126 496.89493 316.02814Q497.39493 315.325 497.39493 313.21564Q497.39493 311.09064 496.89493 310.40314Q496.41055 309.7 495.66055 309.7Q494.9418 309.7 494.5043 310.3094Q493.95743 311.09064 493.95743 313.21564ZM499.8793 313.21564Q499.8793 311.6844 500.1918 310.7625Q500.5043 309.825 501.11368 309.325Q501.73868 308.825 502.67618 308.825Q503.36368 308.825 503.8793 309.10626Q504.41055 309.3875 504.7543 309.91876Q505.09805 310.4344 505.28555 311.1844Q505.47305 311.9344 505.47305 313.21564Q505.47305 314.73126 505.16055 315.65314Q504.86368 316.575 504.23868 317.09064Q503.6293 317.59064 502.67618 317.59064Q501.4418 317.59064 500.72305 316.7Q499.8793 315.6375 499.8793 313.21564ZM500.95743 313.21564Q500.95743 315.325 501.45743 316.02814Q501.95743 316.73126 502.67618 316.73126Q503.41055 316.73126 503.89493 316.02814Q504.39493 315.325 504.39493 313.21564Q504.39493 311.09064 503.89493 310.40314Q503.41055 309.7 502.66055 309.7Q501.9418 309.7 501.5043 310.3094Q500.95743 311.09064 500.95743 313.21564ZM506.8793 313.21564Q506.8793 311.6844 507.1918 310.7625Q507.5043 309.825 508.11368 309.325Q508.73868 308.825 509.67618 308.825Q510.36368 308.825 510.8793 309.10626Q511.41055 309.3875 511.7543 309.91876Q512.098 310.4344 512.2855 311.1844Q512.473 311.9344 512.473 313.21564Q512.473 314.73126 512.1605 315.65314Q511.86368 316.575 511.23868 317.09064Q510.6293 317.59064 509.67618 317.59064Q508.4418 317.59064 507.72305 316.7Q506.8793 315.6375 506.8793 313.21564ZM507.95743 313.21564Q507.95743 315.325 508.45743 316.02814Q508.95743 316.73126 509.67618 316.73126Q510.41055 316.73126 510.89493 316.02814Q511.39493 315.325 511.39493 313.21564Q511.39493 311.09064 510.89493 310.40314Q510.41055 309.7 509.66055 309.7Q508.9418 309.7 508.5043 310.3094Q507.95743 311.09064 507.95743 313.21564Z" fill-rule="nonzero"/><path fill="#00b5ff" d="M153.5 56.916668C153.5 56.364384 153.94771 55.916668 154.5 55.916668L164.5 55.916668C165.05229 55.916668 165.5 56.364384 165.5 56.916668L165.5 66.916664C165.5 67.46895 165.05229 67.916664 164.5 67.916664L154.5 67.916664C153.94771 67.916664 153.5 67.46895 153.5 66.916664Z" fill-rule="nonzero"/><path fill="#1a1a1a" d="M174.29688 68.30729L174.29688 59.697914L175.25 59.697914L175.25 60.49479Q175.59375 60.02604 176.01562 59.791664Q176.45312 59.55729 177.0625 59.55729Q177.85938 59.55729 178.46875 59.96354Q179.07812 60.36979 179.375 61.11979Q179.6875 61.86979 179.6875 62.760414Q179.6875 63.71354 179.34375 64.479164Q179.01562 65.24479 178.35938 65.65104Q177.70312 66.05729 176.98438 66.05729Q176.45312 66.05729 176.03125 65.83854Q175.60938 65.604164 175.34375 65.27604L175.34375 68.30729L174.29688 68.30729ZM175.25 62.83854Q175.25 64.041664 175.73438 64.61979Q176.21875 65.18229 176.90625 65.18229Q177.60938 65.18229 178.10938 64.58854Q178.60938 63.99479 178.60938 62.74479Q178.60938 61.55729 178.125 60.979164Q177.64062 60.385414 176.95312 60.385414Q176.28125 60.385414 175.76562 61.010414Q175.25 61.635414 175.25 62.83854ZM180.875 64.05729L181.90625 63.90104Q182.0 64.52604 182.39062 64.854164Q182.79688 65.18229 183.53125 65.18229Q184.25 65.18229 184.59375 64.90104Q184.95312 64.604164 184.95312 64.197914Q184.95312 63.83854 184.64062 63.635414Q184.42188 63.49479 183.5625 63.27604Q182.40625 62.979164 181.95312 62.77604Q181.51562 62.55729 181.28125 62.18229Q181.04688 61.80729 181.04688 61.33854Q181.04688 60.93229 181.23438 60.572914Q181.42188 60.21354 181.75 59.979164Q182.0 59.80729 182.42188 59.68229Q182.84375 59.55729 183.34375 59.55729Q184.0625 59.55729 184.60938 59.77604Q185.17188 59.979164 185.4375 60.33854Q185.70312 60.697914 185.79688 61.291664L184.76562 61.43229Q184.70312 60.96354 184.35938 60.697914Q184.03125 60.416664 183.40625 60.416664Q182.6875 60.416664 182.375 60.666664Q182.0625 60.90104 182.0625 61.229164Q182.0625 61.43229 182.1875 61.58854Q182.32812 61.760414 182.59375 61.86979Q182.75 61.93229 183.53125 62.135414Q184.65625 62.447914 185.09375 62.635414Q185.53125 62.822914 185.78125 63.18229Q186.03125 63.541664 186.03125 64.08854Q186.03125 64.61979 185.71875 65.08854Q185.42188 65.541664 184.84375 65.80729Q184.26562 66.05729 183.53125 66.05729Q182.3125 66.05729 181.67188 65.55729Q181.04688 65.041664 180.875 64.05729ZM188.25 68.30729L188.125 67.322914Q188.46875 67.416664 188.73438 67.416664Q189.07812 67.416664 189.28125 67.291664Q189.5 67.18229 189.64062 66.979164Q189.73438 66.80729 189.96875 66.18229Q189.98438 66.104164 190.0625 65.93229L187.6875 59.697914L188.82812 59.697914L190.125 63.291664Q190.375 63.979164 190.57812 64.74479Q190.76562 64.010414 191.01562 63.322914L192.34375 59.697914L193.39062 59.697914L191.03125 66.02604Q190.64062 67.041664 190.4375 67.43229Q190.15625 67.96354 189.78125 68.197914Q189.42188 68.447914 188.92188 68.447914Q188.625 68.447914 188.25 68.30729ZM197.35938 63.635414L198.39062 63.77604Q198.21875 64.83854 197.51562 65.447914Q196.8125 66.05729 195.79688 66.05729Q194.51562 66.05729 193.73438 65.229164Q192.96875 64.385414 192.96875 62.822914Q192.96875 61.822914 193.29688 61.072914Q193.64062 60.30729 194.3125 59.93229Q195.0 59.55729 195.8125 59.55729Q196.8125 59.55729 197.45312 60.072914Q198.10938 60.572914 198.29688 61.52604L197.26562 61.68229Q197.125 61.05729 196.75 60.74479Q196.375 60.416664 195.84375 60.416664Q195.04688 60.416664 194.54688 60.99479Q194.04688 61.55729 194.04688 62.791664Q194.04688 64.05729 194.53125 64.61979Q195.01562 65.18229 195.78125 65.18229Q196.40625 65.18229 196.8125 64.80729Q197.23438 64.43229 197.35938 63.635414ZM198.90625 62.80729Q198.90625 61.072914 199.85938 60.24479Q200.65625 59.55729 201.8125 59.55729Q203.09375 59.55729 203.90625 60.40104Q204.73438 61.229164 204.73438 62.71354Q204.73438 63.916664 204.375 64.604164Q204.01562 65.291664 203.3125 65.68229Q202.625 66.05729 201.8125 66.05729Q200.51562 66.05729 199.70312 65.229164Q198.90625 64.385414 198.90625 62.80729ZM199.98438 62.80729Q199.98438 63.99479 200.5 64.58854Q201.03125 65.18229 201.8125 65.18229Q202.60938 65.18229 203.125 64.58854Q203.64062 63.99479 203.64062 62.77604Q203.64062 61.61979 203.10938 61.02604Q202.59375 60.43229 201.8125 60.43229Q201.03125 60.43229 200.5 61.02604Q199.98438 61.604164 199.98438 62.80729ZM206.29688 68.30729L206.29688 59.697914L207.25 59.697914L207.25 60.49479Q207.59375 60.02604 208.01562 59.791664Q208.45312 59.55729 209.0625 59.55729Q209.85938 59.55729 210.46875 59.96354Q211.07812 60.36979 211.375 61.11979Q211.6875 61.86979 211.6875 62.760414Q211.6875 63.71354 211.34375 64.479164Q211.01562 65.24479 210.35938 65.65104Q209.70312 66.05729 208.98438 66.05729Q208.45312 66.05729 208.03125 65.83854Q207.60938 65.604164 207.34375 65.27604L207.34375 68.30729L206.29688 68.30729ZM207.25 62.83854Q207.25 64.041664 207.73438 64.61979Q208.21875 65.18229 208.90625 65.18229Q209.60938 65.18229 210.10938 64.58854Q210.60938 63.99479 210.60938 62.74479Q210.60938 61.55729 210.125 60.979164Q209.64062 60.385414 208.95312 60.385414Q208.28125 60.385414 207.76562 61.010414Q207.25 61.635414 207.25 62.83854ZM213.09375 66.43229L214.125 66.58854Q214.1875 67.05729 214.48438 67.27604Q214.875 67.572914 215.54688 67.572914Q216.28125 67.572914 216.67188 67.27604Q217.07812 66.979164 217.21875 66.46354Q217.3125 66.135414 217.29688 65.104164Q216.60938 65.916664 215.57812 65.916664Q214.29688 65.916664 213.59375 64.99479Q212.89062 64.05729 212.89062 62.77604Q212.89062 61.885414 213.20312 61.135414Q213.53125 60.36979 214.14062 59.96354Q214.75 59.55729 215.57812 59.55729Q216.6875 59.55729 217.40625 60.447914L217.40625 59.697914L218.375 59.697914L218.375 65.072914Q218.375 66.52604 218.07812 67.135414Q217.78125 67.74479 217.14062 68.08854Q216.5 68.447914 215.5625 68.447914Q214.45312 68.447914 213.76562 67.947914Q213.07812 67.447914 213.09375 66.43229ZM213.96875 62.697914Q213.96875 63.916664 214.45312 64.479164Q214.9375 65.041664 215.67188 65.041664Q216.40625 65.041664 216.89062 64.479164Q217.39062 63.916664 217.39062 62.729164Q217.39062 61.58854 216.875 61.010414Q216.375 60.43229 215.65625 60.43229Q214.95312 60.43229 214.45312 61.010414Q213.96875 61.572914 213.96875 62.697914ZM222.875 64.05729L223.90625 63.90104Q224.0 64.52604 224.39062 64.854164Q224.79688 65.18229 225.53125 65.18229Q226.25 65.18229 226.59375 64.90104Q226.95312 64.604164 226.95312 64.197914Q226.95312 63.83854 226.64062 63.635414Q226.42188 63.49479 225.5625 63.27604Q224.40625 62.979164 223.95312 62.77604Q223.51562 62.55729 223.28125 62.18229Q223.04688 61.80729 223.04688 61.33854Q223.04688 60.93229 223.23438 60.572914Q223.42188 60.21354 223.75 59.979164Q224.0 59.80729 224.42188 59.68229Q224.84375 59.55729 225.34375 59.55729Q226.0625 59.55729 226.60938 59.77604Q227.17188 59.979164 227.4375 60.33854Q227.70312 60.697914 227.79688 61.291664L226.76562 61.43229Q226.70312 60.96354 226.35938 60.697914Q226.03125 60.416664 225.40625 60.416664Q224.6875 60.416664 224.375 60.666664Q224.0625 60.90104 224.0625 61.229164Q224.0625 61.43229 224.1875 61.58854Q224.32812 61.760414 224.59375 61.86979Q224.75 61.93229 225.53125 62.135414Q226.65625 62.447914 227.09375 62.635414Q227.53125 62.822914 227.78125 63.18229Q228.03125 63.541664 228.03125 64.08854Q228.03125 64.61979 227.71875 65.08854Q227.42188 65.541664 226.84375 65.80729Q226.26562 66.05729 225.53125 66.05729Q224.3125 66.05729 223.67188 65.55729Q223.04688 65.041664 222.875 64.05729ZM230.25 68.30729L230.125 67.322914Q230.46875 67.416664 230.73438 67.416664Q231.07812 67.416664 231.28125 67.291664Q231.5 67.18229 231.64062 66.979164Q231.73438 66.80729 231.96875 66.18229Q231.98438 66.104164 232.0625 65.93229L229.6875 59.697914L230.82812 59.697914L232.125 63.291664Q232.375 63.979164 232.57812 64.74479Q232.76562 64.010414 233.01562 63.322914L234.34375 59.697914L235.39062 59.697914L233.03125 66.02604Q232.64062 67.041664 232.4375 67.43229Q232.15625 67.96354 231.78125 68.197914Q231.42188 68.447914 230.92188 68.447914Q230.625 68.447914 230.25 68.30729ZM235.29688 65.916664L235.29688 59.697914L236.23438 59.697914L236.23438 60.572914Q236.92188 59.55729 238.21875 59.55729Q238.78125 59.55729 239.25 59.760414Q239.73438 59.96354 239.96875 60.291664Q240.20312 60.61979 240.29688 61.05729Q240.34375 61.354164 240.34375 62.08854L240.34375 65.916664L239.29688 65.916664L239.29688 62.135414Q239.29688 61.479164 239.17188 61.166664Q239.04688 60.854164 238.73438 60.666664Q238.42188 60.46354 238.0 60.46354Q237.32812 60.46354 236.82812 60.90104Q236.34375 61.322914 236.34375 62.510414L236.34375 65.916664L235.29688 65.916664ZM246.35938 63.635414L247.39062 63.77604Q247.21875 64.83854 246.51562 65.447914Q245.8125 66.05729 244.79688 66.05729Q243.51562 66.05729 242.73438 65.229164Q241.96875 64.385414 241.96875 62.822914Q241.96875 61.822914 242.29688 61.072914Q242.64062 60.30729 243.3125 59.93229Q244.0 59.55729 244.8125 59.55729Q245.8125 59.55729 246.45312 60.072914Q247.10938 60.572914 247.29688 61.52604L246.26562 61.68229Q246.125 61.05729 245.75 60.74479Q245.375 60.416664 244.84375 60.416664Q244.04688 60.416664 243.54688 60.99479Q243.04688 61.55729 243.04688 62.791664Q243.04688 64.05729 243.53125 64.61979Q244.01562 65.18229 244.78125 65.18229Q245.40625 65.18229 245.8125 64.80729Q246.23438 64.43229 246.35938 63.635414Z" fill-rule="nonzero"/><path fill="#00aa6e" d="M263.5 56.916668C263.5 56.364384 263.94772 55.916668 264.5 55.916668L274.5 55.916668C275.05228 55.916668 275.5 56.364384 275.5 56.916668L275.5 66.916664C275.5 67.46895 275.05228 67.916664 274.5 67.916664L264.5 67.916664C263.94772 67.916664 263.5 67.46895 263.5 66.916664Z" fill-rule="nonzero"/><path fill="#1a1a1a" d="M284.29688 68.30729L284.29688 59.697914L285.25 59.697914L285.25 60.49479Q285.59375 60.02604 286.01562 59.791664Q286.45312 59.55729 287.0625 59.55729Q287.85938 59.55729 288.46875 59.96354Q289.07812 60.36979 289.375 61.11979Q289.6875 61.86979 289.6875 62.760414Q289.6875 63.71354 289.34375 64.479164Q289.01562 65.24479 288.35938 65.65104Q287.70312 66.05729 286.98438 66.05729Q286.45312 66.05729 286.03125 65.83854Q285.60938 65.604164 285.34375 65.27604L285.34375 68.30729L284.29688 68.30729ZM285.25 62.83854Q285.25 64.041664 285.73438 64.61979Q286.21875 65.18229 286.90625 65.18229Q287.60938 65.18229 288.10938 64.58854Q288.60938 63.99479 288.60938 62.74479Q288.60938 61.55729 288.125 60.979164Q287.64062 60.385414 286.95312 60.385414Q286.28125 60.385414 285.76562 61.010414Q285.25 61.635414 285.25 62.83854ZM290.875 64.05729L291.90625 63.90104Q292.0 64.52604 292.39062 64.854164Q292.79688 65.18229 293.53125 65.18229Q294.25 65.18229 294.59375 64.90104Q294.95312 64.604164 294.95312 64.197914Q294.95312 63.83854 294.64062 63.635414Q294.42188 63.49479 293.5625 63.27604Q292.40625 62.979164 291.95312 62.77604Q291.51562 62.55729 291.28125 62.18229Q291.04688 61.80729 291.04688 61.33854Q291.04688 60.93229 291.23438 60.572914Q291.42188 60.21354 291.75 59.979164Q292.0 59.80729 292.42188 59.68229Q292.84375 59.55729 293.34375 59.55729Q294.0625 59.55729 294.60938 59.77604Q295.17188 59.979164 295.4375 60.33854Q295.70312 60.697914 295.79688 61.291664L294.76562 61.43229Q294.70312 60.96354 294.35938 60.697914Q294.03125 60.416664 293.40625 60.416664Q292.6875 60.416664 292.375 60.666664Q292.0625 60.90104 292.0625 61.229164Q292.0625 61.43229 292.1875 61.58854Q292.32812 61.760414 292.59375 61.86979Q292.75 61.93229 293.53125 62.135414Q294.65625 62.447914 295.09375 62.635414Q295.53125 62.822914 295.78125 63.18229Q296.03125 63.541664 296.03125 64.08854Q296.03125 64.61979 295.71875 65.08854Q295.42188 65.541664 294.84375 65.80729Q294.26562 66.05729 293.53125 66.05729Q292.3125 66.05729 291.67188 65.55729Q291.04688 65.041664 290.875 64.05729ZM298.25 68.30729L298.125 67.322914Q298.46875 67.416664 298.73438 67.416664Q299.07812 67.416664 299.28125 67.291664Q299.5 67.18229 299.64062 66.979164Q299.73438 66.80729 299.96875 66.18229Q299.98438 66.104164 300.0625 65.93229L297.6875 59.697914L298.82812 59.697914L300.125 63.291664Q300.375 63.979164 300.57812 64.74479Q300.76562 64.010414 301.01562 63.322914L302.34375 59.697914L303.39062 59.697914L301.03125 66.02604Q300.64062 67.041664 300.4375 67.43229Q300.15625 67.96354 299.78125 68.197914Q299.42188 68.447914 298.92188 68.447914Q298.625 68.447914 298.25 68.30729ZM307.35938 63.635414L308.39062 63.77604Q308.21875 64.83854 307.51562 65.447914Q306.8125 66.05729 305.79688 66.05729Q304.51562 66.05729 303.73438 65.229164Q302.96875 64.385414 302.96875 62.822914Q302.96875 61.822914 303.29688 61.072914Q303.64062 60.30729 304.3125 59.93229Q305.0 59.55729 305.8125 59.55729Q306.8125 59.55729 307.45312 60.072914Q308.10938 60.572914 308.29688 61.52604L307.26562 61.68229Q307.125 61.05729 306.75 60.74479Q306.375 60.416664 305.84375 60.416664Q305.04688 60.416664 304.54688 60.99479Q304.04688 61.55729 304.04688 62.791664Q304.04688 64.05729 304.53125 64.61979Q305.01562 65.18229 305.78125 65.18229Q306.40625 65.18229 306.8125 64.80729Q307.23438 64.43229 307.35938 63.635414ZM308.90625 62.80729Q308.90625 61.072914 309.85938 60.24479Q310.65625 59.55729 311.8125 59.55729Q313.09375 59.55729 313.90625 60.40104Q314.73438 61.229164 314.73438 62.71354Q314.73438 63.916664 314.375 64.604164Q314.01562 65.291664 313.3125 65.68229Q312.625 66.05729 311.8125 66.05729Q310.51562 66.05729 309.70312 65.229164Q308.90625 64.385414 308.90625 62.80729ZM309.98438 62.80729Q309.98438 63.99479 310.5 64.58854Q311.03125 65.18229 311.8125 65.18229Q312.60938 65.18229 313.125 64.58854Q313.64062 63.99479 313.64062 62.77604Q313.64062 61.61979 313.10938 61.02604Q312.59375 60.43229 311.8125 60.43229Q311.03125 60.43229 310.5 61.02604Q309.98438 61.604164 309.98438 62.80729ZM316.29688 68.30729L316.29688 59.697914L317.25 59.697914L317.25 60.49479Q317.59375 60.02604 318.01562 59.791664Q318.45312 59.55729 319.0625 59.55729Q319.85938 59.55729 320.46875 59.96354Q321.07812 60.36979 321.375 61.11979Q321.6875 61.86979 321.6875 62.760414Q321.6875 63.71354 321.34375 64.479164Q321.01562 65.24479 320.35938 65.65104Q319.70312 66.05729 318.98438 66.05729Q318.45312 66.05729 318.03125 65.83854Q317.60938 65.604164 317.34375 65.27604L317.34375 68.30729L316.29688 68.30729ZM317.25 62.83854Q317.25 64.041664 317.73438 64.61979Q318.21875 65.18229 318.90625 65.18229Q319.60938 65.18229 320.10938 64.58854Q320.60938 63.99479 320.60938 62.74479Q320.60938 61.55729 320.125 60.979164Q319.64062 60.385414 318.95312 60.385414Q318.28125 60.385414 317.76562 61.010414Q317.25 61.635414 317.25 62.83854ZM323.09375 66.43229L324.125 66.58854Q324.1875 67.05729 324.48438 67.27604Q324.875 67.572914 325.54688 67.572914Q326.28125 67.572914 326.67188 67.27604Q327.07812 66.979164 327.21875 66.46354Q327.3125 66.135414 327.29688 65.104164Q326.60938 65.916664 325.57812 65.916664Q324.29688 65.916664 323.59375 64.99479Q322.89062 64.05729 322.89062 62.77604Q322.89062 61.885414 323.20312 61.135414Q323.53125 60.36979 324.14062 59.96354Q324.75 59.55729 325.57812 59.55729Q326.6875 59.55729 327.40625 60.447914L327.40625 59.697914L328.375 59.697914L328.375 65.072914Q328.375 66.52604 328.07812 67.135414Q327.78125 67.74479 327.14062 68.08854Q326.5 68.447914 325.5625 68.447914Q324.45312 68.447914 323.76562 67.947914Q323.07812 67.447914 323.09375 66.43229ZM323.96875 62.697914Q323.96875 63.916664 324.45312 64.479164Q324.9375 65.041664 325.67188 65.041664Q326.40625 65.041664 326.89062 64.479164Q327.39062 63.916664 327.39062 62.729164Q327.39062 61.58854 326.875 61.010414Q326.375 60.43229 325.65625 60.43229Q324.95312 60.43229 324.45312 61.010414Q323.96875 61.572914 323.96875 62.697914ZM337.35938 65.15104Q336.76562 65.65104 336.21875 65.854164Q335.6875 66.05729 335.0625 66.05729Q334.03125 66.05729 333.48438 65.55729Q332.9375 65.05729 332.9375 64.27604Q332.9375 63.822914 333.14062 63.447914Q333.34375 63.05729 333.6875 62.83854Q334.03125 62.604164 334.45312 62.49479Q334.75 62.40104 335.39062 62.322914Q336.65625 62.18229 337.26562 61.96354Q337.26562 61.74479 337.26562 61.697914Q337.26562 61.041664 336.96875 60.77604Q336.5625 60.43229 335.76562 60.43229Q335.03125 60.43229 334.67188 60.697914Q334.3125 60.947914 334.14062 61.604164L333.10938 61.46354Q333.25 60.80729 333.57812 60.40104Q333.90625 59.99479 334.51562 59.77604Q335.125 59.55729 335.92188 59.55729Q336.71875 59.55729 337.21875 59.74479Q337.71875 59.93229 337.95312 60.21354Q338.1875 60.49479 338.28125 60.93229Q338.32812 61.197914 338.32812 61.90104L338.32812 63.30729Q338.32812 64.77604 338.39062 65.166664Q338.46875 65.55729 338.67188 65.916664L337.5625 65.916664Q337.40625 65.58854 337.35938 65.15104ZM337.26562 62.791664Q336.6875 63.02604 335.54688 63.197914Q334.89062 63.291664 334.625 63.416664Q334.35938 63.52604 334.20312 63.74479Q334.0625 63.96354 334.0625 64.24479Q334.0625 64.666664 334.375 64.947914Q334.70312 65.229164 335.3125 65.229164Q335.92188 65.229164 336.39062 64.96354Q336.875 64.697914 337.09375 64.229164Q337.26562 63.86979 337.26562 63.18229L337.26562 62.791664ZM339.875 64.05729L340.90625 63.90104Q341.0 64.52604 341.39062 64.854164Q341.79688 65.18229 342.53125 65.18229Q343.25 65.18229 343.59375 64.90104Q343.95312 64.604164 343.95312 64.197914Q343.95312 63.83854 343.64062 63.635414Q343.42188 63.49479 342.5625 63.27604Q341.40625 62.979164 340.95312 62.77604Q340.51562 62.55729 340.28125 62.18229Q340.04688 61.80729 340.04688 61.33854Q340.04688 60.93229 340.23438 60.572914Q340.42188 60.21354 340.75 59.979164Q341.0 59.80729 341.42188 59.68229Q341.84375 59.55729 342.34375 59.55729Q343.0625 59.55729 343.60938 59.77604Q344.17188 59.979164 344.4375 60.33854Q344.70312 60.697914 344.79688 61.291664L343.76562 61.43229Q343.70312 60.96354 343.35938 60.697914Q343.03125 60.416664 342.40625 60.416664Q341.6875 60.416664 341.375 60.666664Q341.0625 60.90104 341.0625 61.229164Q341.0625 61.43229 341.1875 61.58854Q341.32812 61.760414 341.59375 61.86979Q341.75 61.93229 342.53125 62.135414Q343.65625 62.447914 344.09375 62.635414Q344.53125 62.822914 344.78125 63.18229Q345.03125 63.541664 345.03125 64.08854Q345.03125 64.61979 344.71875 65.08854Q344.42188 65.541664 343.84375 65.80729Q343.26562 66.05729 342.53125 66.05729Q341.3125 66.05729 340.67188 65.55729Q340.04688 65.041664 339.875 64.05729ZM347.25 68.30729L347.125 67.322914Q347.46875 67.416664 347.73438 67.416664Q348.07812 67.416664 348.28125 67.291664Q348.5 67.18229 348.64062 66.979164Q348.73438 66.80729 348.96875 66.18229Q348.98438 66.104164 349.0625 65.93229L346.6875 59.697914L347.82812 59.697914L349.125 63.291664Q349.375 63.979164 349.57812 64.74479Q349.76562 64.010414 350.01562 63.322914L351.34375 59.697914L352.39062 59.697914L350.03125 66.02604Q349.64062 67.041664 349.4375 67.43229Q349.15625 67.96354 348.78125 68.197914Q348.42188 68.447914 347.92188 68.447914Q347.625 68.447914 347.25 68.30729ZM352.29688 65.916664L352.29688 59.697914L353.23438 59.697914L353.23438 60.572914Q353.92188 59.55729 355.21875 59.55729Q355.78125 59.55729 356.25 59.760414Q356.73438 59.96354 356.96875 60.291664Q357.20312 60.61979 357.29688 61.05729Q357.34375 61.354164 357.34375 62.08854L357.34375 65.916664L356.29688 65.916664L356.29688 62.135414Q356.29688 61.479164 356.17188 61.166664Q356.04688 60.854164 355.73438 60.666664Q355.42188 60.46354 355.0 60.46354Q354.32812 60.46354 353.82812 60.90104Q353.34375 61.322914 353.34375 62.510414L353.34375 65.916664L352.29688 65.916664ZM363.35938 63.635414L364.39062 63.77604Q364.21875 64.83854 363.51562 65.447914Q362.8125 66.05729 361.79688 66.05729Q360.51562 66.05729 359.73438 65.229164Q358.96875 64.385414 358.96875 62.822914Q358.96875 61.822914 359.29688 61.072914Q359.64062 60.30729 360.3125 59.93229Q361.0 59.55729 361.8125 59.55729Q362.8125 59.55729 363.45312 60.072914Q364.10938 60.572914 364.29688 61.52604L363.26562 61.68229Q363.125 61.05729 362.75 60.74479Q362.375 60.416664 361.84375 60.416664Q361.04688 60.416664 360.54688 60.99479Q360.04688 61.55729 360.04688 62.791664Q360.04688 64.05729 360.53125 64.61979Q361.01562 65.18229 361.78125 65.18229Q362.40625 65.18229 362.8125 64.80729Q363.23438 64.43229 363.35938 63.635414Z" fill-rule="nonzero"/><path fill="#ffbe00" d="M380.5 56.916668C380.5 56.364384 380.94772 55.916668 381.5 55.916668L391.5 55.916668C392.05228 55.916668 392.5 56.364384 392.5 56.916668L392.5 66.916664C392.5 67.46895 392.05228 67.916664 391.5 67.916664L381.5 67.916664C380.94772 67.916664 380.5 67.46895 380.5 66.916664Z" fill-rule="nonzero"/><path fill="#1a1a1a" d="M405.35938 65.15104Q404.76562 65.65104 404.21875 65.854164Q403.6875 66.05729 403.0625 66.05729Q402.03125 66.05729 401.48438 65.55729Q400.9375 65.05729 400.9375 64.27604Q400.9375 63.822914 401.14062 63.447914Q401.34375 63.05729 401.6875 62.83854Q402.03125 62.604164 402.45312 62.49479Q402.75 62.40104 403.39062 62.322914Q404.65625 62.18229 405.26562 61.96354Q405.26562 61.74479 405.26562 61.697914Q405.26562 61.041664 404.96875 60.77604Q404.5625 60.43229 403.76562 60.43229Q403.03125 60.43229 402.67188 60.697914Q402.3125 60.947914 402.14062 61.604164L401.10938 61.46354Q401.25 60.80729 401.57812 60.40104Q401.90625 59.99479 402.51562 59.77604Q403.125 59.55729 403.92188 59.55729Q404.71875 59.55729 405.21875 59.74479Q405.71875 59.93229 405.95312 60.21354Q406.1875 60.49479 406.28125 60.93229Q406.32812 61.197914 406.32812 61.90104L406.32812 63.30729Q406.32812 64.77604 406.39062 65.166664Q406.46875 65.55729 406.67188 65.916664L405.5625 65.916664Q405.40625 65.58854 405.35938 65.15104ZM405.26562 62.791664Q404.6875 63.02604 403.54688 63.197914Q402.89062 63.291664 402.625 63.416664Q402.35938 63.52604 402.20312 63.74479Q402.0625 63.96354 402.0625 64.24479Q402.0625 64.666664 402.375 64.947914Q402.70312 65.229164 403.3125 65.229164Q403.92188 65.229164 404.39062 64.96354Q404.875 64.697914 405.09375 64.229164Q405.26562 63.86979 405.26562 63.18229L405.26562 62.791664ZM407.875 64.05729L408.90625 63.90104Q409.0 64.52604 409.39062 64.854164Q409.79688 65.18229 410.53125 65.18229Q411.25 65.18229 411.59375 64.90104Q411.95312 64.604164 411.95312 64.197914Q411.95312 63.83854 411.64062 63.635414Q411.42188 63.49479 410.5625 63.27604Q409.40625 62.979164 408.95312 62.77604Q408.51562 62.55729 408.28125 62.18229Q408.04688 61.80729 408.04688 61.33854Q408.04688 60.93229 408.23438 60.572914Q408.42188 60.21354 408.75 59.979164Q409.0 59.80729 409.42188 59.68229Q409.84375 59.55729 410.34375 59.55729Q411.0625 59.55729 411.60938 59.77604Q412.17188 59.979164 412.4375 60.33854Q412.70312 60.697914 412.79688 61.291664L411.76562 61.43229Q411.70312 60.96354 411.35938 60.697914Q411.03125 60.416664 410.40625 60.416664Q409.6875 60.416664 409.375 60.666664Q409.0625 60.90104 409.0625 61.229164Q409.0625 61.43229 409.1875 61.58854Q409.32812 61.760414 409.59375 61.86979Q409.75 61.93229 410.53125 62.135414Q411.65625 62.447914 412.09375 62.635414Q412.53125 62.822914 412.78125 63.18229Q413.03125 63.541664 413.03125 64.08854Q413.03125 64.61979 412.71875 65.08854Q412.42188 65.541664 411.84375 65.80729Q411.26562 66.05729 410.53125 66.05729Q409.3125 66.05729 408.67188 65.55729Q408.04688 65.041664 407.875 64.05729ZM415.25 68.30729L415.125 67.322914Q415.46875 67.416664 415.73438 67.416664Q416.07812 67.416664 416.28125 67.291664Q416.5 67.18229 416.64062 66.979164Q416.73438 66.80729 416.96875 66.18229Q416.98438 66.104164 417.0625 65.93229L414.6875 59.697914L415.82812 59.697914L417.125 63.291664Q417.375 63.979164 417.57812 64.74479Q417.76562 64.010414 418.01562 63.322914L419.34375 59.697914L420.39062 59.697914L418.03125 66.02604Q417.64062 67.041664 417.4375 67.43229Q417.15625 67.96354 416.78125 68.197914Q416.42188 68.447914 415.92188 68.447914Q415.625 68.447914 415.25 68.30729ZM420.29688 65.916664L420.29688 59.697914L421.23438 59.697914L421.23438 60.572914Q421.92188 59.55729 423.21875 59.55729Q423.78125 59.55729 424.25 59.760414Q424.73438 59.96354 424.96875 60.291664Q425.20312 60.61979 425.29688 61.05729Q425.34375 61.354164 425.34375 62.08854L425.34375 65.916664L424.29688 65.916664L424.29688 62.135414Q424.29688 61.479164 424.17188 61.166664Q424.04688 60.854164 423.73438 60.666664Q423.42188 60.46354 423.0 60.46354Q422.32812 60.46354 421.82812 60.90104Q421.34375 61.322914 421.34375 62.510414L421.34375 65.916664L420.29688 65.916664ZM431.35938 63.635414L432.39062 63.77604Q432.21875 64.83854 431.51562 65.447914Q430.8125 66.05729 429.79688 66.05729Q428.51562 66.05729 427.73438 65.229164Q426.96875 64.385414 426.96875 62.822914Q426.96875 61.822914 427.29688 61.072914Q427.64062 60.30729 428.3125 59.93229Q429.0 59.55729 429.8125 59.55729Q430.8125 59.55729 431.45312 60.072914Q432.10938 60.572914 432.29688 61.52604L431.26562 61.68229Q431.125 61.05729 430.75 60.74479Q430.375 60.416664 429.84375 60.416664Q429.04688 60.416664 428.54688 60.99479Q428.04688 61.55729 428.04688 62.791664Q428.04688 64.05729 428.53125 64.61979Q429.01562 65.18229 429.78125 65.18229Q430.40625 65.18229 430.8125 64.80729Q431.23438 64.43229 431.35938 63.635414ZM433.29688 68.30729L433.29688 59.697914L434.25 59.697914L434.25 60.49479Q434.59375 60.02604 435.01562 59.791664Q435.45312 59.55729 436.0625 59.55729Q436.85938 59.55729 437.46875 59.96354Q438.07812 60.36979 438.375 61.11979Q438.6875 61.86979 438.6875 62.760414Q438.6875 63.71354 438.34375 64.479164Q438.01562 65.24479 437.35938 65.65104Q436.70312 66.05729 435.98438 66.05729Q435.45312 66.05729 435.03125 65.83854Q434.60938 65.604164 434.34375 65.27604L434.34375 68.30729L433.29688 68.30729ZM434.25 62.83854Q434.25 64.041664 434.73438 64.61979Q435.21875 65.18229 435.90625 65.18229Q436.60938 65.18229 437.10938 64.58854Q437.60938 63.99479 437.60938 62.74479Q437.60938 61.55729 437.125 60.979164Q436.64062 60.385414 435.95312 60.385414Q435.28125 60.385414 434.76562 61.010414Q434.25 61.635414 434.25 62.83854ZM440.09375 66.43229L441.125 66.58854Q441.1875 67.05729 441.48438 67.27604Q441.875 67.572914 442.54688 67.572914Q443.28125 67.572914 443.67188 67.27604Q444.07812 66.979164 444.21875 66.46354Q444.3125 66.135414 444.29688 65.104164Q443.60938 65.916664 442.57812 65.916664Q441.29688 65.916664 440.59375 64.99479Q439.89062 64.05729 439.89062 62.77604Q439.89062 61.885414 440.20312 61.135414Q440.53125 60.36979 441.14062 59.96354Q441.75 59.55729 442.57812 59.55729Q443.6875 59.55729 444.40625 60.447914L444.40625 59.697914L445.375 59.697914L445.375 65.072914Q445.375 66.52604 445.07812 67.135414Q444.78125 67.74479 444.14062 68.08854Q443.5 68.447914 442.5625 68.447914Q441.45312 68.447914 440.76562 67.947914Q440.07812 67.447914 440.09375 66.43229ZM440.96875 62.697914Q440.96875 63.916664 441.45312 64.479164Q441.9375 65.041664 442.67188 65.041664Q443.40625 65.041664 443.89062 64.479164Q444.39062 63.916664 444.39062 62.729164Q444.39062 61.58854 443.875 61.010414Q443.375 60.43229 442.65625 60.43229Q441.95312 60.43229 441.45312 61.010414Q440.96875 61.572914 440.96875 62.697914Z" fill-rule="nonzero"/><path fill="#000000" d="M19.846874 37.55L19.846874 27.175L21.425 27.175L21.425 28.753124Q22.034374 27.64375 22.55 27.3Q23.065624 26.940624 23.675 26.940624Q24.565624 26.940624 25.4875 27.503124L24.878124 29.14375Q24.2375 28.753124 23.596874 28.753124Q23.01875 28.753124 22.55 29.1125Q22.096874 29.45625 21.89375 30.065624Q21.6125 31.003124 21.6125 32.1125L21.6125 37.55L19.846874 37.55ZM33.971874 34.20625L35.784374 34.440624Q35.3625 36.01875 34.190624 36.909374Q33.034374 37.784374 31.221874 37.784374Q28.95625 37.784374 27.6125 36.39375Q26.284374 34.9875 26.284374 32.45625Q26.284374 29.83125 27.628124 28.39375Q28.971874 26.940624 31.128124 26.940624Q33.20625 26.940624 34.51875 28.3625Q35.846874 29.76875 35.846874 32.346874Q35.846874 32.503124 35.83125 32.815624L28.096874 32.815624Q28.190624 34.51875 29.065624 35.425Q29.940624 36.33125 31.2375 36.33125Q32.20625 36.33125 32.878124 35.83125Q33.565624 35.315624 33.971874 34.20625ZM28.190624 31.3625L33.9875 31.3625Q33.878124 30.065624 33.33125 29.409374Q32.4875 28.39375 31.14375 28.39375Q29.940624 28.39375 29.1125 29.20625Q28.284374 30.003124 28.190624 31.3625ZM44.4875 41.51875L44.4875 36.440624Q44.065624 37.01875 43.33125 37.409374Q42.596874 37.784374 41.76875 37.784374Q39.925 37.784374 38.58125 36.315624Q37.253124 34.83125 37.253124 32.26875Q37.253124 30.70625 37.784374 29.471874Q38.33125 28.221874 39.3625 27.58125Q40.39375 26.940624 41.628124 26.940624Q43.55 26.940624 44.659374 28.565624L44.659374 27.175L46.2375 27.175L46.2375 41.51875L44.4875 41.51875ZM39.065624 32.33125Q39.065624 34.33125 39.89375 35.33125Q40.7375 36.33125 41.909374 36.33125Q43.034374 36.33125 43.846874 35.39375Q44.659374 34.440624 44.659374 32.4875Q44.659374 30.425 43.8 29.378124Q42.940624 28.33125 41.8 28.33125Q40.659374 28.33125 39.8625 29.3Q39.065624 30.26875 39.065624 32.33125ZM55.659374 37.55L55.659374 36.01875Q54.45625 37.784374 52.378124 37.784374Q51.45625 37.784374 50.659374 37.440624Q49.8625 37.08125 49.471874 36.55Q49.096874 36.01875 48.940624 35.2375Q48.83125 34.721874 48.83125 33.596874L48.83125 27.175L50.58125 27.175L50.58125 32.925Q50.58125 34.3 50.690624 34.784374Q50.8625 35.471874 51.39375 35.878124Q51.940624 36.26875 52.721874 36.26875Q53.51875 36.26875 54.20625 35.8625Q54.909374 35.45625 55.190624 34.76875Q55.4875 34.065624 55.4875 32.7375L55.4875 27.175L57.2375 27.175L57.2375 37.55L55.659374 37.55ZM65.97188 34.20625L67.78438 34.440624Q67.3625 36.01875 66.19063 36.909374Q65.03438 37.784374 63.221874 37.784374Q60.95625 37.784374 59.6125 36.39375Q58.284374 34.9875 58.284374 32.45625Q58.284374 29.83125 59.628124 28.39375Q60.971874 26.940624 63.128124 26.940624Q65.20625 26.940624 66.51875 28.3625Q67.84688 29.76875 67.84688 32.346874Q67.84688 32.503124 67.83125 32.815624L60.096874 32.815624Q60.190624 34.51875 61.065624 35.425Q61.940624 36.33125 63.2375 36.33125Q64.20625 36.33125 64.87813 35.83125Q65.56563 35.315624 65.97188 34.20625ZM60.190624 31.3625L65.9875 31.3625Q65.87813 30.065624 65.33125 29.409374Q64.4875 28.39375 63.14375 28.39375Q61.940624 28.39375 61.1125 29.20625Q60.284374 30.003124 60.190624 31.3625ZM69.15938 34.45625L70.90938 34.175Q71.05 35.221874 71.72188 35.784374Q72.39375 36.33125 73.59688 36.33125Q74.8 36.33125 75.37813 35.846874Q75.97188 35.346874 75.97188 34.690624Q75.97188 34.096874 75.45625 33.753124Q75.09688 33.51875 73.65938 33.159374Q71.72188 32.659374 70.97188 32.315624Q70.2375 31.95625 69.84688 31.33125Q69.45625 30.690624 69.45625 29.925Q69.45625 29.2375 69.76875 28.64375Q70.09688 28.05 70.64375 27.659374Q71.05 27.3625 71.75313 27.159374Q72.47188 26.940624 73.28438 26.940624Q74.50313 26.940624 75.425 27.3Q76.34688 27.64375 76.78438 28.253124Q77.22188 28.846874 77.39375 29.846874L75.675 30.08125Q75.55 29.284374 74.9875 28.846874Q74.425 28.39375 73.40938 28.39375Q72.19063 28.39375 71.675 28.8Q71.15938 29.190624 71.15938 29.721874Q71.15938 30.065624 71.37813 30.346874Q71.58125 30.628124 72.05 30.815624Q72.31563 30.909374 73.59688 31.253124Q75.47188 31.753124 76.20625 32.08125Q76.94063 32.39375 77.3625 33.003124Q77.78438 33.596874 77.78438 34.503124Q77.78438 35.378124 77.26875 36.159374Q76.75313 36.940624 75.78438 37.3625Q74.81563 37.784374 73.59688 37.784374Q71.58125 37.784374 70.51875 36.940624Q69.45625 36.096874 69.15938 34.45625ZM83.70625 35.971874L83.95625 37.534374Q83.22188 37.690624 82.62813 37.690624Q81.675 37.690624 81.14375 37.39375Q80.62813 37.08125 80.40938 36.596874Q80.19063 36.096874 80.19063 34.51875L80.19063 28.55L78.90938 28.55L78.90938 27.175L80.19063 27.175L80.19063 24.6125L81.94063 23.55L81.94063 27.175L83.70625 27.175L83.70625 28.55L81.94063 28.55L81.94063 34.6125Q81.94063 35.3625 82.03438 35.58125Q82.12813 35.784374 82.33125 35.925Q82.55 36.05 82.94063 36.05Q83.22188 36.05 83.70625 35.971874ZM85.15938 34.45625L86.90938 34.175Q87.05 35.221874 87.72188 35.784374Q88.39375 36.33125 89.59688 36.33125Q90.8 36.33125 91.37813 35.846874Q91.97188 35.346874 91.97188 34.690624Q91.97188 34.096874 91.45625 33.753124Q91.09688 33.51875 89.65938 33.159374Q87.72188 32.659374 86.97188 32.315624Q86.2375 31.95625 85.84688 31.33125Q85.45625 30.690624 85.45625 29.925Q85.45625 29.2375 85.76875 28.64375Q86.09688 28.05 86.64375 27.659374Q87.05 27.3625 87.75313 27.159374Q88.47188 26.940624 89.28438 26.940624Q90.50313 26.940624 91.425 27.3Q92.34688 27.64375 92.78438 28.253124Q93.22188 28.846874 93.39375 29.846874L91.675 30.08125Q91.55 29.284374 90.9875 28.846874Q90.425 28.39375 89.40938 28.39375Q88.19063 28.39375 87.675 28.8Q87.15938 29.190624 87.15938 29.721874Q87.15938 30.065624 87.37813 30.346874Q87.58125 30.628124 88.05 30.815624Q88.31563 30.909374 89.59688 31.253124Q91.47188 31.753124 92.20625 32.08125Q92.94063 32.39375 93.3625 33.003124Q93.78438 33.596874 93.78438 34.503124Q93.78438 35.378124 93.26875 36.159374Q92.75313 36.940624 91.78438 37.3625Q90.81563 37.784374 89.59688 37.784374Q87.58125 37.784374 86.51875 36.940624Q85.45625 36.096874 85.15938 34.45625ZM94.55 37.8L98.70625 22.9875L100.1125 22.9875L95.97188 37.8L94.55 37.8ZM101.15938 34.45625L102.90938 34.175Q103.05 35.221874 103.72188 35.784374Q104.39375 36.33125 105.59688 36.33125Q106.8 36.33125 107.37813 35.846874Q107.97188 35.346874 107.97188 34.690624Q107.97188 34.096874 107.45625 33.753124Q107.09688 33.51875 105.65938 33.159374Q103.72188 32.659374 102.97188 32.315624Q102.2375 31.95625 101.84688 31.33125Q101.45625 30.690624 101.45625 29.925Q101.45625 29.2375 101.76875 28.64375Q102.09688 28.05 102.64375 27.659374Q103.05 27.3625 103.75313 27.159374Q104.47188 26.940624 105.28438 26.940624Q106.50313 26.940624 107.425 27.3Q108.34688 27.64375 108.78438 28.253124Q109.22188 28.846874 109.39375 29.846874L107.675 30.08125Q107.55 29.284374 106.9875 28.846874Q106.425 28.39375 105.40938 28.39375Q104.19063 28.39375 103.675 28.8Q103.15938 29.190624 103.15938 29.721874Q103.15938 30.065624 103.37813 30.346874Q103.58125 30.628124 104.05 30.815624Q104.31563 30.909374 105.59688 31.253124Q107.47188 31.753124 108.20625 32.08125Q108.94063 32.39375 109.3625 33.003124Q109.78438 33.596874 109.78438 34.503124Q109.78438 35.378124 109.26875 36.159374Q108.75313 36.940624 107.78438 37.3625Q106.81563 37.784374 105.59688 37.784374Q103.58125 37.784374 102.51875 36.940624Q101.45625 36.096874 101.15938 34.45625ZM118.97188 34.20625L120.78438 34.440624Q120.3625 36.01875 119.19063 36.909374Q118.03438 37.784374 116.22188 37.784374Q113.95625 37.784374 112.6125 36.39375Q111.28438 34.9875 111.28438 32.45625Q111.28438 29.83125 112.62813 28.39375Q113.97188 26.940624 116.12813 26.940624Q118.20625 26.940624 119.51875 28.3625Q120.84688 29.76875 120.84688 32.346874Q120.84688 32.503124 120.83125 32.815624L113.09688 32.815624Q113.19063 34.51875 114.06563 35.425Q114.94063 36.33125 116.2375 36.33125Q117.20625 36.33125 117.87813 35.83125Q118.56563 35.315624 118.97188 34.20625ZM113.19063 31.3625L118.9875 31.3625Q118.87813 30.065624 118.33125 29.409374Q117.4875 28.39375 116.14375 28.39375Q114.94063 28.39375 114.1125 29.20625Q113.28438 30.003124 113.19063 31.3625ZM129.64375 33.753124L131.3625 33.971874Q131.08125 35.76875 129.90938 36.784374Q128.75313 37.784374 127.05 37.784374Q124.925 37.784374 123.62813 36.39375Q122.33125 35.003124 122.33125 32.409374Q122.33125 30.721874 122.87813 29.471874Q123.44063 28.20625 124.58125 27.58125Q125.72188 26.940624 127.06563 26.940624Q128.75313 26.940624 129.81563 27.8Q130.89375 28.659374 131.20625 30.221874L129.4875 30.4875Q129.25313 29.440624 128.62813 28.925Q128.00313 28.39375 127.12813 28.39375Q125.8 28.39375 124.97188 29.346874Q124.14375 30.3 124.14375 32.346874Q124.14375 34.440624 124.94063 35.39375Q125.7375 36.33125 127.03438 36.33125Q128.06563 36.33125 128.75313 35.70625Q129.45625 35.065624 129.64375 33.753124Z" fill-rule="nonzero"/></svg>