<svg version="1.1" viewBox="0.0 0.0 462.0 371.0" fill="none" stroke="none" stroke-linecap="square" stroke-miterlimit="10" width="462" height="371" xmlns:xlink="http://www.w3.org/1999/xlink" xmlns="http://www.w3.org/2000/svg"><path fill="#ffffff" d="M0 0L462.0 0L462.0 371.0L0 371.0L0 0Z" fill-rule="nonzero"/><path stroke="#333333" stroke-width="1.0" stroke-linecap="butt" d="M95.5 286.5L443.5 286.5" fill-rule="nonzero"/><path stroke="#cccccc" stroke-width="1.0" stroke-linecap="butt" d="M95.5 230.5L443.5 230.5" fill-rule="nonzero"/><path stroke="#cccccc" stroke-width="1.0" stroke-linecap="butt" d="M95.5 174.5L443.5 174.5" fill-rule="nonzero"/><path stroke="#cccccc" stroke-width="1.0" stroke-linecap="butt" d="M95.5 118.5L443.5 118.5" fill-rule="nonzero"/><path stroke="#cccccc" stroke-width="1.0" stroke-linecap="butt" d="M95.5 61.5L443.5 61.5" fill-rule="nonzero"/><clipPath id="id_0"><path d="M95.55 61.916668L443.45 61.916668L443.45 286.45L95.55 286.45L95.55 61.916668Z" clip-rule="nonzero"/></clipPath><path stroke="#000000" stroke-width="2.0" stroke-linecap="butt" stroke-opacity="0.0" clip-path="url(#id_0)" d="M200.0 286.0L132.0 286.0L132.0 253.0C132.0 251.89543 132.89543 251.0 134.0 251.0L198.0 251.0C199.10457 251.0 200.0 251.89543 200.0 253.0Z" fill-rule="nonzero"/><path fill="#e0ce58" clip-path="url(#id_0)" d="M200.0 286.0L132.0 286.0L132.0 253.0C132.0 251.89543 132.89543 251.0 134.0 251.0L198.0 251.0C199.10457 251.0 200.0 251.89543 200.0 253.0Z" fill-rule="nonzero"/><path stroke="#000000" stroke-width="2.0" stroke-linecap="butt" stroke-opacity="0.0" clip-path="url(#id_0)" d="M304.0 286.0L236.0 286.0L236.0 126.0C236.0 124.89543 236.89543 124.0 238.0 124.0L302.0 124.0C303.10458 124.0 304.0 124.89543 304.0 126.0Z" fill-rule="nonzero"/><path fill="#e0ce58" clip-path="url(#id_0)" d="M304.0 286.0L236.0 286.0L236.0 126.0C236.0 124.89543 236.89543 124.0 238.0 124.0L302.0 124.0C303.10458 124.0 304.0 124.89543 304.0 126.0Z" fill-rule="nonzero"/><path stroke="#000000" stroke-width="2.0" stroke-linecap="butt" stroke-opacity="0.0" clip-path="url(#id_0)" d="M407.0 286.0L339.0 286.0L339.0 116.0C339.0 114.89543 339.89542 114.0 341.0 114.0L405.0 114.0C406.10458 114.0 407.0 114.89543 407.0 116.0Z" fill-rule="nonzero"/><path fill="#e0ce58" clip-path="url(#id_0)" d="M407.0 286.0L339.0 286.0L339.0 116.0C339.0 114.89543 339.89542 114.0 341.0 114.0L405.0 114.0C406.10458 114.0 407.0 114.89543 407.0 116.0Z" fill-rule="nonzero"/><path fill="#000000" d="M246.90625 344.4344L248.42188 344.8094Q247.95312 346.6844 246.70312 347.66876Q245.46875 348.65314 243.6875 348.65314Q241.82812 348.65314 240.67188 347.90314Q239.51562 347.1375 238.90625 345.71564Q238.29688 344.27814 238.29688 342.6375Q238.29688 340.84064 238.98438 339.5125Q239.67188 338.1844 240.92188 337.4969Q242.1875 336.79376 243.70312 336.79376Q245.42188 336.79376 246.59375 337.66876Q247.76562 338.54376 248.23438 340.1375L246.73438 340.48126Q246.34375 339.23126 245.57812 338.66876Q244.82812 338.09064 243.67188 338.09064Q242.35938 338.09064 241.46875 338.73126Q240.57812 339.35626 240.21875 340.4344Q239.85938 341.4969 239.85938 342.6219Q239.85938 344.09064 240.28125 345.1844Q240.71875 346.2625 241.60938 346.8094Q242.51562 347.34064 243.5625 347.34064Q244.82812 347.34064 245.70312 346.60626Q246.59375 345.8719 246.90625 344.4344ZM250.03125 344.29376Q250.03125 341.9969 251.3125 340.8875Q252.39062 339.96564 253.92188 339.96564Q255.64062 339.96564 256.71875 341.09064Q257.8125 342.2 257.8125 344.1844Q257.8125 345.77814 257.32812 346.7Q256.84375 347.6219 255.92188 348.1375Q255.01562 348.6375 253.92188 348.6375Q252.1875 348.6375 251.10938 347.52814Q250.03125 346.40314 250.03125 344.29376ZM251.48438 344.29376Q251.48438 345.8875 252.17188 346.6844Q252.875 347.48126 253.92188 347.48126Q254.96875 347.48126 255.65625 346.6844Q256.35938 345.8875 256.35938 344.2469Q256.35938 342.71564 255.65625 341.91876Q254.96875 341.1219 253.92188 341.1219Q252.875 341.1219 252.17188 341.91876Q251.48438 342.7 251.48438 344.29376ZM259.5625 348.45L259.5625 340.15314L260.82812 340.15314L260.82812 341.325Q261.73438 339.96564 263.46875 339.96564Q264.21875 339.96564 264.84375 340.23126Q265.46875 340.4969 265.78125 340.9344Q266.09375 341.3719 266.21875 341.98126Q266.29688 342.3719 266.29688 343.34064L266.29688 348.45L264.89062 348.45L264.89062 343.40314Q264.89062 342.54376 264.71875 342.1219Q264.5625 341.6844 264.14062 341.4344Q263.73438 341.1844 263.17188 341.1844Q262.26562 341.1844 261.60938 341.7625Q260.96875 342.325 260.96875 343.91876L260.96875 348.45L259.5625 348.45ZM273.23438 345.77814L274.6875 345.95Q274.34375 347.23126 273.40625 347.9344Q272.48438 348.6375 271.04688 348.6375Q269.21875 348.6375 268.15625 347.5125Q267.09375 346.3875 267.09375 344.3719Q267.09375 342.27814 268.17188 341.1219Q269.25 339.96564 270.96875 339.96564Q272.625 339.96564 273.67188 341.10626Q274.73438 342.23126 274.73438 344.27814Q274.73438 344.40314 274.73438 344.65314L268.54688 344.65314Q268.625 346.02814 269.3125 346.7625Q270.01562 347.48126 271.04688 347.48126Q271.82812 347.48126 272.375 347.075Q272.92188 346.66876 273.23438 345.77814ZM268.625 343.4969L273.25 343.4969Q273.15625 342.45 272.71875 341.9344Q272.04688 341.1219 270.98438 341.1219Q270.01562 341.1219 269.34375 341.77814Q268.6875 342.41876 268.625 343.4969ZM281.96875 345.40314L283.35938 345.59064Q283.125 347.0125 282.1875 347.825Q281.26562 348.6375 279.90625 348.6375Q278.20312 348.6375 277.15625 347.52814Q276.125 346.40314 276.125 344.325Q276.125 342.98126 276.5625 341.98126Q277.01562 340.96564 277.92188 340.46564Q278.84375 339.96564 279.90625 339.96564Q281.26562 339.96564 282.125 340.65314Q282.98438 341.325 283.21875 342.59064L281.85938 342.79376Q281.65625 341.96564 281.15625 341.54376Q280.67188 341.1219 279.96875 341.1219Q278.90625 341.1219 278.23438 341.8875Q277.57812 342.6375 277.57812 344.29376Q277.57812 345.96564 278.21875 346.73126Q278.85938 347.48126 279.89062 347.48126Q280.71875 347.48126 281.26562 346.98126Q281.82812 346.46564 281.96875 345.40314ZM287.625 347.1844L287.82812 348.4344Q287.23438 348.5594 286.76562 348.5594Q286.0 348.5594 285.57812 348.325Q285.15625 348.075 284.98438 347.6844Q284.8125 347.27814 284.8125 346.0125L284.8125 341.2469L283.78125 341.2469L283.78125 340.15314L284.8125 340.15314L284.8125 338.09064L286.21875 337.2469L286.21875 340.15314L287.625 340.15314L287.625 341.2469L286.21875 341.2469L286.21875 346.09064Q286.21875 346.7 286.28125 346.8719Q286.35938 347.04376 286.53125 347.15314Q286.70312 347.2469 287.01562 347.2469Q287.25 347.2469 287.625 347.1844ZM288.03125 344.29376Q288.03125 341.9969 289.3125 340.8875Q290.39062 339.96564 291.92188 339.96564Q293.64062 339.96564 294.71875 341.09064Q295.8125 342.2 295.8125 344.1844Q295.8125 345.77814 295.32812 346.7Q294.84375 347.6219 293.92188 348.1375Q293.01562 348.6375 291.92188 348.6375Q290.1875 348.6375 289.10938 347.52814Q288.03125 346.40314 288.03125 344.29376ZM289.48438 344.29376Q289.48438 345.8875 290.17188 346.6844Q290.875 347.48126 291.92188 347.48126Q292.96875 347.48126 293.65625 346.6844Q294.35938 345.8875 294.35938 344.2469Q294.35938 342.71564 293.65625 341.91876Q292.96875 341.1219 291.92188 341.1219Q290.875 341.1219 290.17188 341.91876Q289.48438 342.7 289.48438 344.29376ZM297.54688 348.45L297.54688 340.15314L298.8125 340.15314L298.8125 341.40314Q299.29688 340.52814 299.70312 340.2469Q300.10938 339.96564 300.60938 339.96564Q301.3125 339.96564 302.04688 340.41876L301.5625 341.71564Q301.04688 341.41876 300.53125 341.41876Q300.07812 341.41876 299.70312 341.7Q299.34375 341.96564 299.1875 342.46564Q298.95312 343.21564 298.95312 344.10626L298.95312 348.45L297.54688 348.45Z" fill-rule="nonzero"/><path fill="#000000" d="M33.55001 225.63646L25.253138 225.63646L25.253138 224.37083L26.503138 224.37083Q25.628138 223.88646 25.346888 223.48021Q25.065638 223.07396 25.065638 222.57396Q25.065638 221.87083 25.518763 221.13646L26.815638 221.62083Q26.518763 222.13646 26.518763 222.65208Q26.518763 223.10521 26.800013 223.48021Q27.065638 223.83958 27.565638 223.99583Q28.315638 224.23021 29.206263 224.23021L33.55001 224.23021L33.55001 225.63646ZM30.878138 214.94896L31.050013 213.49583Q32.33126 213.83958 33.034386 214.77708Q33.73751 215.69896 33.73751 217.13646Q33.73751 218.96458 32.61251 220.02708Q31.487513 221.08958 29.471888 221.08958Q27.378138 221.08958 26.221888 220.01146Q25.065638 218.93333 25.065638 217.21458Q25.065638 215.55833 26.206263 214.51146Q27.331263 213.44896 29.378138 213.44896Q29.503138 213.44896 29.753138 213.44896L29.753138 219.63646Q31.128138 219.55833 31.862513 218.87083Q32.58126 218.16771 32.58126 217.13646Q32.58126 216.35521 32.17501 215.80833Q31.768763 215.26146 30.878138 214.94896ZM28.596888 219.55833L28.596888 214.93333Q27.550013 215.02708 27.034388 215.46458Q26.221888 216.13646 26.221888 217.19896Q26.221888 218.16771 26.878138 218.83958Q27.518763 219.49583 28.596888 219.55833ZM36.73751 206.33958L32.659386 206.33958Q33.128136 206.66771 33.440636 207.26146Q33.73751 207.83958 33.73751 208.51146Q33.73751 209.98021 32.565636 211.05833Q31.378138 212.12083 29.315638 212.12083Q28.065638 212.12083 27.081263 211.68333Q26.081263 211.24583 25.581263 210.43333Q25.065638 209.60521 25.065638 208.62083Q25.065638 207.07396 26.362513 206.19896L25.253138 206.19896L25.253138 204.93333L36.73751 204.93333L36.73751 206.33958ZM29.378138 210.66771Q30.971888 210.66771 31.784388 209.99583Q32.58126 209.32396 32.58126 208.38646Q32.58126 207.49583 31.815638 206.85521Q31.050013 206.19896 29.503138 206.19896Q27.846888 206.19896 27.018763 206.88646Q26.175013 207.55833 26.175013 208.48021Q26.175013 209.40208 26.956263 210.04271Q27.721888 210.66771 29.378138 210.66771ZM33.55001 197.18333L32.33126 197.18333Q33.73751 198.15208 33.73751 199.82396Q33.73751 200.55833 33.45626 201.19896Q33.17501 201.82396 32.753136 202.13646Q32.315636 202.44896 31.706263 202.57396Q31.284388 202.65208 30.393763 202.65208L25.253138 202.65208L25.253138 201.24583L29.846888 201.24583Q30.956263 201.24583 31.331263 201.16771Q31.893763 201.02708 32.20626 200.60521Q32.51876 200.16771 32.51876 199.54271Q32.51876 198.90208 32.20626 198.35521Q31.878138 197.79271 31.315638 197.57396Q30.753138 197.33958 29.690638 197.33958L25.253138 197.33958L25.253138 195.93333L33.55001 195.93333L33.55001 197.18333ZM30.878138 188.94896L31.050013 187.49583Q32.33126 187.83958 33.034386 188.77708Q33.73751 189.69896 33.73751 191.13646Q33.73751 192.96458 32.61251 194.02708Q31.487513 195.08958 29.471888 195.08958Q27.378138 195.08958 26.221888 194.01146Q25.065638 192.93333 25.065638 191.21458Q25.065638 189.55833 26.206263 188.51146Q27.331263 187.44896 29.378138 187.44896Q29.503138 187.44896 29.753138 187.44896L29.753138 193.63646Q31.128138 193.55833 31.862513 192.87083Q32.58126 192.16771 32.58126 191.13646Q32.58126 190.35521 32.17501 189.80833Q31.768763 189.26146 30.878138 188.94896ZM28.596888 193.55833L28.596888 188.93333Q27.550013 189.02708 27.034388 189.46458Q26.221888 190.13646 26.221888 191.19896Q26.221888 192.16771 26.878138 192.83958Q27.518763 193.49583 28.596888 193.55833ZM31.065638 186.18333L30.846888 184.79271Q31.690638 184.68333 32.14376 184.15208Q32.58126 183.60521 32.58126 182.65208Q32.58126 181.68333 32.190636 181.21458Q31.784388 180.74583 31.253138 180.74583Q30.784388 180.74583 30.503138 181.15208Q30.315638 181.44896 30.034388 182.58958Q29.643763 184.13646 29.362513 184.74583Q29.065638 185.33958 28.565638 185.65208Q28.065638 185.94896 27.456263 185.94896Q26.893763 185.94896 26.425013 185.69896Q25.956263 185.44896 25.643763 185.01146Q25.393763 184.68333 25.237513 184.12083Q25.065638 183.54271 25.065638 182.90208Q25.065638 181.91771 25.346888 181.18333Q25.628138 180.44896 26.112513 180.10521Q26.581263 179.74583 27.393763 179.60521L27.581263 180.98021Q26.940638 181.07396 26.581263 181.52708Q26.221888 181.98021 26.221888 182.79271Q26.221888 183.76146 26.550013 184.18333Q26.862513 184.58958 27.284388 184.58958Q27.565638 184.58958 27.784388 184.41771Q28.003138 184.24583 28.159388 183.88646Q28.237513 183.66771 28.518763 182.63646Q28.909388 181.15208 29.175013 180.55833Q29.425013 179.96458 29.909388 179.63646Q30.393763 179.29271 31.112513 179.29271Q31.815638 179.29271 32.440636 179.71458Q33.05001 180.12083 33.39376 180.90208Q33.73751 181.66771 33.73751 182.63646Q33.73751 184.26146 33.065636 185.10521Q32.39376 185.94896 31.065638 186.18333ZM32.284386 174.55833L33.534386 174.35521Q33.659386 174.94896 33.659386 175.41771Q33.659386 176.18333 33.42501 176.60521Q33.17501 177.02708 32.784386 177.19896Q32.378136 177.37083 31.112513 177.37083L26.346888 177.37083L26.346888 178.40208L25.253138 178.40208L25.253138 177.37083L23.190638 177.37083L22.346888 175.96458L25.253138 175.96458L25.253138 174.55833L26.346888 174.55833L26.346888 175.96458L31.190638 175.96458Q31.800013 175.96458 31.971888 175.90208Q32.14376 175.82396 32.253136 175.65208Q32.346886 175.48021 32.346886 175.16771Q32.346886 174.93333 32.284386 174.55833ZM31.065638 174.18333L30.846888 172.79271Q31.690638 172.68333 32.14376 172.15208Q32.58126 171.60521 32.58126 170.65208Q32.58126 169.68333 32.190636 169.21458Q31.784388 168.74583 31.253138 168.74583Q30.784388 168.74583 30.503138 169.15208Q30.315638 169.44896 30.034388 170.58958Q29.643763 172.13646 29.362513 172.74583Q29.065638 173.33958 28.565638 173.65208Q28.065638 173.94896 27.456263 173.94896Q26.893763 173.94896 26.425013 173.69896Q25.956263 173.44896 25.643763 173.01146Q25.393763 172.68333 25.237513 172.12083Q25.065638 171.54271 25.065638 170.90208Q25.065638 169.91771 25.346888 169.18333Q25.628138 168.44896 26.112513 168.10521Q26.581263 167.74583 27.393763 167.60521L27.581263 168.98021Q26.940638 169.07396 26.581263 169.52708Q26.221888 169.98021 26.221888 170.79271Q26.221888 171.76146 26.550013 172.18333Q26.862513 172.58958 27.284388 172.58958Q27.565638 172.58958 27.784388 172.41771Q28.003138 172.24583 28.159388 171.88646Q28.237513 171.66771 28.518763 170.63646Q28.909388 169.15208 29.175013 168.55833Q29.425013 167.96458 29.909388 167.63646Q30.393763 167.29271 31.112513 167.29271Q31.815638 167.29271 32.440636 167.71458Q33.05001 168.12083 33.39376 168.90208Q33.73751 169.66771 33.73751 170.63646Q33.73751 172.26146 33.065636 173.10521Q32.39376 173.94896 31.065638 174.18333ZM33.753136 166.68333L21.893763 163.35521L21.893763 162.23021L33.753136 165.54271L33.753136 166.68333ZM31.065638 162.18333L30.846888 160.79271Q31.690638 160.68333 32.14376 160.15208Q32.58126 159.60521 32.58126 158.65208Q32.58126 157.68333 32.190636 157.21458Q31.784388 156.74583 31.253138 156.74583Q30.784388 156.74583 30.503138 157.15208Q30.315638 157.44896 30.034388 158.58958Q29.643763 160.13646 29.362513 160.74583Q29.065638 161.33958 28.565638 161.65208Q28.065638 161.94896 27.456263 161.94896Q26.893763 161.94896 26.425013 161.69896Q25.956263 161.44896 25.643763 161.01146Q25.393763 160.68333 25.237513 160.12083Q25.065638 159.54271 25.065638 158.90208Q25.065638 157.91771 25.346888 157.18333Q25.628138 156.44896 26.112513 156.10521Q26.581263 155.74583 27.393763 155.60521L27.581263 156.98021Q26.940638 157.07396 26.581263 157.52708Q26.221888 157.98021 26.221888 158.79271Q26.221888 159.76146 26.550013 160.18333Q26.862513 160.58958 27.284388 160.58958Q27.565638 160.58958 27.784388 160.41771Q28.003138 160.24583 28.159388 159.88646Q28.237513 159.66771 28.518763 158.63646Q28.909388 157.15208 29.175013 156.55833Q29.425013 155.96458 29.909388 155.63646Q30.393763 155.29271 31.112513 155.29271Q31.815638 155.29271 32.440636 155.71458Q33.05001 156.12083 33.39376 156.90208Q33.73751 157.66771 33.73751 158.63646Q33.73751 160.26146 33.065636 161.10521Q32.39376 161.94896 31.065638 162.18333ZM30.878138 147.94896L31.050013 146.49583Q32.33126 146.83958 33.034386 147.77708Q33.73751 148.69896 33.73751 150.13646Q33.73751 151.96458 32.61251 153.02708Q31.487513 154.08958 29.471888 154.08958Q27.378138 154.08958 26.221888 153.01146Q25.065638 151.93333 25.065638 150.21458Q25.065638 148.55833 26.206263 147.51146Q27.331263 146.44896 29.378138 146.44896Q29.503138 146.44896 29.753138 146.44896L29.753138 152.63646Q31.128138 152.55833 31.862513 151.87083Q32.58126 151.16771 32.58126 150.13646Q32.58126 149.35521 32.17501 148.80833Q31.768763 148.26146 30.878138 147.94896ZM28.596888 152.55833L28.596888 147.93333Q27.550013 148.02708 27.034388 148.46458Q26.221888 149.13646 26.221888 150.19896Q26.221888 151.16771 26.878138 151.83958Q27.518763 152.49583 28.596888 152.55833ZM30.503138 139.21458L30.690638 137.82396Q32.11251 138.05833 32.92501 138.99583Q33.73751 139.91771 33.73751 141.27708Q33.73751 142.98021 32.628136 144.02708Q31.503138 145.05833 29.425013 145.05833Q28.081263 145.05833 27.081263 144.62083Q26.065638 144.16771 25.565638 143.26146Q25.065638 142.33958 25.065638 141.27708Q25.065638 139.91771 25.753138 139.05833Q26.425013 138.19896 27.690638 137.96458L27.893763 139.32396Q27.065638 139.52708 26.643763 140.02708Q26.221888 140.51146 26.221888 141.21458Q26.221888 142.27708 26.987513 142.94896Q27.737513 143.60521 29.393763 143.60521Q31.065638 143.60521 31.831263 142.96458Q32.58126 142.32396 32.58126 141.29271Q32.58126 140.46458 32.08126 139.91771Q31.565638 139.35521 30.503138 139.21458Z" fill-rule="nonzero"/><path fill="#000000" d="M83.05 286.21564Q83.05 284.6844 83.3625 283.7625Q83.675 282.825 84.28438 282.325Q84.90938 281.825 85.84688 281.825Q86.53438 281.825 87.05 282.10626Q87.58125 282.3875 87.925 282.91876Q88.26875 283.4344 88.45625 284.1844Q88.64375 284.9344 88.64375 286.21564Q88.64375 287.73126 88.33125 288.65314Q88.03438 289.575 87.40938 290.09064Q86.8 290.59064 85.84688 290.59064Q84.6125 290.59064 83.89375 289.7Q83.05 288.6375 83.05 286.21564ZM84.12813 286.21564Q84.12813 288.325 84.62813 289.02814Q85.12813 289.73126 85.84688 289.73126Q86.58125 289.73126 87.06563 289.02814Q87.56563 288.325 87.56563 286.21564Q87.56563 284.09064 87.06563 283.40314Q86.58125 282.7 85.83125 282.7Q85.1125 282.7 84.675 283.3094Q84.12813 284.09064 84.12813 286.21564Z" fill-rule="nonzero"/><path fill="#000000" d="M69.05 232.06667L70.15938 231.97292Q70.28438 232.78542 70.72188 233.19167Q71.175 233.59792 71.81563 233.59792Q72.56563 233.59792 73.09688 233.01979Q73.62813 232.44167 73.62813 231.50417Q73.62813 230.59792 73.1125 230.08229Q72.6125 229.55104 71.78438 229.55104Q71.28438 229.55104 70.8625 229.78542Q70.45625 230.01979 70.22188 230.37917L69.2375 230.25417L70.06563 225.84792L74.34688 225.84792L74.34688 226.84792L70.90938 226.84792L70.45625 229.16042Q71.22188 228.61354 72.06563 228.61354Q73.19063 228.61354 73.95625 229.39479Q74.7375 230.17604 74.7375 231.41042Q74.7375 232.56667 74.06563 233.42604Q73.2375 234.45729 71.81563 234.45729Q70.64375 234.45729 69.89375 233.80104Q69.15938 233.14479 69.05 232.06667ZM76.05 230.08229Q76.05 228.55104 76.3625 227.62917Q76.675 226.69167 77.28438 226.19167Q77.90938 225.69167 78.84688 225.69167Q79.53438 225.69167 80.05 225.97292Q80.58125 226.25417 80.925 226.78542Q81.26875 227.30104 81.45625 228.05104Q81.64375 228.80104 81.64375 230.08229Q81.64375 231.59792 81.33125 232.51979Q81.03438 233.44167 80.40938 233.95729Q79.8 234.45729 78.84688 234.45729Q77.6125 234.45729 76.89375 233.56667Q76.05 232.50417 76.05 230.08229ZM77.12813 230.08229Q77.12813 232.19167 77.62813 232.89479Q78.12813 233.59792 78.84688 233.59792Q79.58125 233.59792 80.06563 232.89479Q80.56563 232.19167 80.56563 230.08229Q80.56563 227.95729 80.06563 227.26979Q79.58125 226.56667 78.83125 226.56667Q78.1125 226.56667 77.675 227.17604Q77.12813 227.95729 77.12813 230.08229ZM83.05 230.08229Q83.05 228.55104 83.3625 227.62917Q83.675 226.69167 84.28438 226.19167Q84.90938 225.69167 85.84688 225.69167Q86.53438 225.69167 87.05 225.97292Q87.58125 226.25417 87.925 226.78542Q88.26875 227.30104 88.45625 228.05104Q88.64375 228.80104 88.64375 230.08229Q88.64375 231.59792 88.33125 232.51979Q88.03438 233.44167 87.40938 233.95729Q86.8 234.45729 85.84688 234.45729Q84.6125 234.45729 83.89375 233.56667Q83.05 232.50417 83.05 230.08229ZM84.12813 230.08229Q84.12813 232.19167 84.62813 232.89479Q85.12813 233.59792 85.84688 233.59792Q86.58125 233.59792 87.06563 232.89479Q87.56563 232.19167 87.56563 230.08229Q87.56563 227.95729 87.06563 227.26979Q86.58125 226.56667 85.83125 226.56667Q85.1125 226.56667 84.675 227.17604Q84.12813 227.95729 84.12813 230.08229Z" fill-rule="nonzero"/><path fill="#000000" d="M66.01875 178.18333L64.97188 178.18333L64.97188 171.46458Q64.58125 171.82396 63.95625 172.19896Q63.346874 172.55833 62.8625 172.73021L62.8625 171.71458Q63.7375 171.29271 64.39375 170.71458Q65.06563 170.12083 65.34688 169.55833L66.01875 169.55833L66.01875 178.18333ZM69.05 173.94896Q69.05 172.41771 69.3625 171.49583Q69.675 170.55833 70.28438 170.05833Q70.90938 169.55833 71.84688 169.55833Q72.53438 169.55833 73.05 169.83958Q73.58125 170.12083 73.925 170.65208Q74.26875 171.16771 74.45625 171.91771Q74.64375 172.66771 74.64375 173.94896Q74.64375 175.46458 74.33125 176.38646Q74.03438 177.30833 73.40938 177.82396Q72.8 178.32396 71.84688 178.32396Q70.6125 178.32396 69.89375 177.43333Q69.05 176.37083 69.05 173.94896ZM70.12813 173.94896Q70.12813 176.05833 70.62813 176.76146Q71.12813 177.46458 71.84688 177.46458Q72.58125 177.46458 73.06563 176.76146Q73.56563 176.05833 73.56563 173.94896Q73.56563 171.82396 73.06563 171.13646Q72.58125 170.43333 71.83125 170.43333Q71.1125 170.43333 70.675 171.04271Q70.12813 171.82396 70.12813 173.94896ZM76.05 173.94896Q76.05 172.41771 76.3625 171.49583Q76.675 170.55833 77.28438 170.05833Q77.90938 169.55833 78.84688 169.55833Q79.53438 169.55833 80.05 169.83958Q80.58125 170.12083 80.925 170.65208Q81.26875 171.16771 81.45625 171.91771Q81.64375 172.66771 81.64375 173.94896Q81.64375 175.46458 81.33125 176.38646Q81.03438 177.30833 80.40938 177.82396Q79.8 178.32396 78.84688 178.32396Q77.6125 178.32396 76.89375 177.43333Q76.05 176.37083 76.05 173.94896ZM77.12813 173.94896Q77.12813 176.05833 77.62813 176.76146Q78.12813 177.46458 78.84688 177.46458Q79.58125 177.46458 80.06563 176.76146Q80.56563 176.05833 80.56563 173.94896Q80.56563 171.82396 80.06563 171.13646Q79.58125 170.43333 78.83125 170.43333Q78.1125 170.43333 77.675 171.04271Q77.12813 171.82396 77.12813 173.94896ZM83.05 173.94896Q83.05 172.41771 83.3625 171.49583Q83.675 170.55833 84.28438 170.05833Q84.90938 169.55833 85.84688 169.55833Q86.53438 169.55833 87.05 169.83958Q87.58125 170.12083 87.925 170.65208Q88.26875 171.16771 88.45625 171.91771Q88.64375 172.66771 88.64375 173.94896Q88.64375 175.46458 88.33125 176.38646Q88.03438 177.30833 87.40938 177.82396Q86.8 178.32396 85.84688 178.32396Q84.6125 178.32396 83.89375 177.43333Q83.05 176.37083 83.05 173.94896ZM84.12813 173.94896Q84.12813 176.05833 84.62813 176.76146Q85.12813 177.46458 85.84688 177.46458Q86.58125 177.46458 87.06563 176.76146Q87.56563 176.05833 87.56563 173.94896Q87.56563 171.82396 87.06563 171.13646Q86.58125 170.43333 85.83125 170.43333Q85.1125 170.43333 84.675 171.04271Q84.12813 171.82396 84.12813 173.94896Z" fill-rule="nonzero"/><path fill="#000000" d="M66.01875 122.05L64.97188 122.05L64.97188 115.33125Q64.58125 115.69063 63.95625 116.06563Q63.346874 116.425 62.8625 116.59688L62.8625 115.58125Q63.7375 115.15938 64.39375 114.58125Q65.06563 113.9875 65.34688 113.425L66.01875 113.425L66.01875 122.05ZM69.05 119.8L70.15938 119.70625Q70.28438 120.51875 70.72188 120.925Q71.175 121.33125 71.81563 121.33125Q72.56563 121.33125 73.09688 120.75313Q73.62813 120.175 73.62813 119.2375Q73.62813 118.33125 73.1125 117.81563Q72.6125 117.28438 71.78438 117.28438Q71.28438 117.28438 70.8625 117.51875Q70.45625 117.75313 70.22188 118.1125L69.2375 117.9875L70.06563 113.58125L74.34688 113.58125L74.34688 114.58125L70.90938 114.58125L70.45625 116.89375Q71.22188 116.34688 72.06563 116.34688Q73.19063 116.34688 73.95625 117.12813Q74.7375 117.90938 74.7375 119.14375Q74.7375 120.3 74.06563 121.15938Q73.2375 122.19063 71.81563 122.19063Q70.64375 122.19063 69.89375 121.53438Q69.15938 120.87813 69.05 119.8ZM76.05 117.81563Q76.05 116.28438 76.3625 115.3625Q76.675 114.425 77.28438 113.925Q77.90938 113.425 78.84688 113.425Q79.53438 113.425 80.05 113.70625Q80.58125 113.9875 80.925 114.51875Q81.26875 115.03438 81.45625 115.78438Q81.64375 116.53438 81.64375 117.81563Q81.64375 119.33125 81.33125 120.25313Q81.03438 121.175 80.40938 121.69063Q79.8 122.19063 78.84688 122.19063Q77.6125 122.19063 76.89375 121.3Q76.05 120.2375 76.05 117.81563ZM77.12813 117.81563Q77.12813 119.925 77.62813 120.62813Q78.12813 121.33125 78.84688 121.33125Q79.58125 121.33125 80.06563 120.62813Q80.56563 119.925 80.56563 117.81563Q80.56563 115.69063 80.06563 115.00313Q79.58125 114.3 78.83125 114.3Q78.1125 114.3 77.675 114.90938Q77.12813 115.69063 77.12813 117.81563ZM83.05 117.81563Q83.05 116.28438 83.3625 115.3625Q83.675 114.425 84.28438 113.925Q84.90938 113.425 85.84688 113.425Q86.53438 113.425 87.05 113.70625Q87.58125 113.9875 87.925 114.51875Q88.26875 115.03438 88.45625 115.78438Q88.64375 116.53438 88.64375 117.81563Q88.64375 119.33125 88.33125 120.25313Q88.03438 121.175 87.40938 121.69063Q86.8 122.19063 85.84688 122.19063Q84.6125 122.19063 83.89375 121.3Q83.05 120.2375 83.05 117.81563ZM84.12813 117.81563Q84.12813 119.925 84.62813 120.62813Q85.12813 121.33125 85.84688 121.33125Q86.58125 121.33125 87.06563 120.62813Q87.56563 119.925 87.56563 117.81563Q87.56563 115.69063 87.06563 115.00313Q86.58125 114.3 85.83125 114.3Q85.1125 114.3 84.675 114.90938Q84.12813 115.69063 84.12813 117.81563Z" fill-rule="nonzero"/><path fill="#000000" d="M67.59688 64.90104L67.59688 65.916664L61.909374 65.916664Q61.909374 65.541664 62.034374 65.18229Q62.253124 64.604164 62.721874 64.041664Q63.20625 63.479164 64.1125 62.74479Q65.51875 61.58854 66.00313 60.916664Q66.50313 60.24479 66.50313 59.65104Q66.50313 59.02604 66.05 58.604164Q65.59688 58.166664 64.87813 58.166664Q64.1125 58.166664 63.659374 58.61979Q63.20625 59.072914 63.190624 59.885414L62.1125 59.77604Q62.221874 58.55729 62.940624 57.93229Q63.675 57.291664 64.90938 57.291664Q66.14375 57.291664 66.8625 57.979164Q67.58125 58.666664 67.58125 59.68229Q67.58125 60.197914 67.3625 60.697914Q67.15938 61.18229 66.65938 61.74479Q66.175 62.291664 65.05 63.24479Q64.09688 64.041664 63.815624 64.33854Q63.55 64.61979 63.378124 64.90104L67.59688 64.90104ZM69.05 61.68229Q69.05 60.15104 69.3625 59.229164Q69.675 58.291664 70.28438 57.791664Q70.90938 57.291664 71.84688 57.291664Q72.53438 57.291664 73.05 57.572914Q73.58125 57.854164 73.925 58.385414Q74.26875 58.90104 74.45625 59.65104Q74.64375 60.40104 74.64375 61.68229Q74.64375 63.197914 74.33125 64.11979Q74.03438 65.041664 73.40938 65.55729Q72.8 66.05729 71.84688 66.05729Q70.6125 66.05729 69.89375 65.166664Q69.05 64.104164 69.05 61.68229ZM70.12813 61.68229Q70.12813 63.791664 70.62813 64.49479Q71.12813 65.197914 71.84688 65.197914Q72.58125 65.197914 73.06563 64.49479Q73.56563 63.791664 73.56563 61.68229Q73.56563 59.55729 73.06563 58.86979Q72.58125 58.166664 71.83125 58.166664Q71.1125 58.166664 70.675 58.77604Q70.12813 59.55729 70.12813 61.68229ZM76.05 61.68229Q76.05 60.15104 76.3625 59.229164Q76.675 58.291664 77.28438 57.791664Q77.90938 57.291664 78.84688 57.291664Q79.53438 57.291664 80.05 57.572914Q80.58125 57.854164 80.925 58.385414Q81.26875 58.90104 81.45625 59.65104Q81.64375 60.40104 81.64375 61.68229Q81.64375 63.197914 81.33125 64.11979Q81.03438 65.041664 80.40938 65.55729Q79.8 66.05729 78.84688 66.05729Q77.6125 66.05729 76.89375 65.166664Q76.05 64.104164 76.05 61.68229ZM77.12813 61.68229Q77.12813 63.791664 77.62813 64.49479Q78.12813 65.197914 78.84688 65.197914Q79.58125 65.197914 80.06563 64.49479Q80.56563 63.791664 80.56563 61.68229Q80.56563 59.55729 80.06563 58.86979Q79.58125 58.166664 78.83125 58.166664Q78.1125 58.166664 77.675 58.77604Q77.12813 59.55729 77.12813 61.68229ZM83.05 61.68229Q83.05 60.15104 83.3625 59.229164Q83.675 58.291664 84.28438 57.791664Q84.90938 57.291664 85.84688 57.291664Q86.53438 57.291664 87.05 57.572914Q87.58125 57.854164 87.925 58.385414Q88.26875 58.90104 88.45625 59.65104Q88.64375 60.40104 88.64375 61.68229Q88.64375 63.197914 88.33125 64.11979Q88.03438 65.041664 87.40938 65.55729Q86.8 66.05729 85.84688 66.05729Q84.6125 66.05729 83.89375 65.166664Q83.05 64.104164 83.05 61.68229ZM84.12813 61.68229Q84.12813 63.791664 84.62813 64.49479Q85.12813 65.197914 85.84688 65.197914Q86.58125 65.197914 87.06563 64.49479Q87.56563 63.791664 87.56563 61.68229Q87.56563 59.55729 87.06563 58.86979Q86.58125 58.166664 85.83125 58.166664Q85.1125 58.166664 84.675 58.77604Q84.12813 59.55729 84.12813 61.68229Z" fill-rule="nonzero"/><path fill="#000000" d="M123.57113 309.23126L123.57113 299.1844L124.69613 299.1844L124.69613 300.1375Q125.086754 299.575 125.586754 299.3094Q126.086754 299.02814 126.805504 299.02814Q127.72738 299.02814 128.43051 299.5125Q129.14926 299.98126 129.50864 300.85626Q129.86801 301.73126 129.86801 302.7625Q129.86801 303.8719 129.46176 304.77814Q129.07114 305.66876 128.30551 306.15314Q127.555504 306.6219 126.711754 306.6219Q126.10238 306.6219 125.60238 306.35626Q125.118004 306.09064 124.805504 305.7L124.805504 309.23126L123.57113 309.23126ZM124.680504 302.85626Q124.680504 304.2625 125.243004 304.9344Q125.82113 305.60626 126.63363 305.60626Q127.44613 305.60626 128.02426 304.91876Q128.61801 304.21564 128.61801 302.7625Q128.61801 301.3719 128.03989 300.6844Q127.47738 299.9969 126.680504 299.9969Q125.899254 299.9969 125.28988 300.73126Q124.680504 301.46564 124.680504 302.85626ZM131.08676 304.27814L132.28989 304.09064Q132.39926 304.825 132.86801 305.21564Q133.33676 305.60626 134.18051 305.60626Q135.02426 305.60626 135.43051 305.2625Q135.85239 304.91876 135.85239 304.45Q135.85239 304.02814 135.47739 303.79376Q135.22739 303.6219 134.22739 303.3719Q132.86801 303.02814 132.33676 302.77814Q131.82114 302.52814 131.55551 302.09064Q131.28989 301.65314 131.28989 301.1219Q131.28989 300.6375 131.50864 300.23126Q131.72739 299.8094 132.11801 299.52814Q132.39926 299.325 132.88364 299.1844Q133.38364 299.02814 133.96176 299.02814Q134.80551 299.02814 135.44614 299.27814Q136.10239 299.5125 136.41489 299.9344Q136.72739 300.35626 136.83676 301.0594L135.63364 301.23126Q135.55551 300.66876 135.14926 300.35626Q134.75864 300.04376 134.03989 300.04376Q133.19614 300.04376 132.83676 300.325Q132.47739 300.59064 132.47739 300.98126Q132.47739 301.21564 132.61801 301.40314Q132.77426 301.60626 133.10239 301.73126Q133.27426 301.79376 134.18051 302.04376Q135.49301 302.40314 136.00864 302.6219Q136.52426 302.84064 136.80551 303.2625Q137.10239 303.6844 137.10239 304.3094Q137.10239 304.9344 136.74301 305.48126Q136.39926 306.0125 135.71176 306.325Q135.03989 306.6219 134.18051 306.6219Q132.77426 306.6219 132.02426 306.02814Q131.28989 305.4344 131.08676 304.27814ZM138.52426 309.2469L138.38364 308.09064Q138.78989 308.2 139.08676 308.2Q139.49301 308.2 139.74301 308.0594Q139.99301 307.9344 140.14926 307.6844Q140.25864 307.4969 140.52426 306.7625Q140.55551 306.66876 140.63364 306.46564L137.86801 299.1844L139.19614 299.1844L140.71176 303.3875Q141.00864 304.2 141.24301 305.075Q141.44614 304.23126 141.74301 303.41876L143.28989 299.1844L144.52426 299.1844L141.75864 306.575Q141.32114 307.7625 141.07114 308.21564Q140.74301 308.825 140.32114 309.10626Q139.89926 309.40314 139.30551 309.40314Q138.96176 309.40314 138.52426 309.2469ZM150.30551 303.79376L151.52426 303.95Q151.32114 305.2 150.49301 305.91876Q149.68051 306.6219 148.49301 306.6219Q147.00864 306.6219 146.10239 305.65314Q145.19614 304.66876 145.19614 302.84064Q145.19614 301.66876 145.58676 300.79376Q145.97739 299.90314 146.77426 299.46564Q147.57114 299.02814 148.50864 299.02814Q149.68051 299.02814 150.43051 299.6219Q151.19614 300.21564 151.39926 301.325L150.21176 301.5125Q150.03989 300.77814 149.60239 300.41876Q149.16489 300.04376 148.55551 300.04376Q147.61801 300.04376 147.03989 300.71564Q146.46176 301.3719 146.46176 302.8094Q146.46176 304.27814 147.02426 304.95Q147.58676 305.60626 148.47739 305.60626Q149.21176 305.60626 149.69614 305.16876Q150.18051 304.71564 150.30551 303.79376ZM152.11801 302.825Q152.11801 300.8094 153.24301 299.825Q154.16489 299.02814 155.52426 299.02814Q157.00864 299.02814 157.96176 300.0125Q158.91489 300.98126 158.91489 302.71564Q158.91489 304.1219 158.49301 304.9344Q158.07114 305.73126 157.25864 306.1844Q156.46176 306.6219 155.52426 306.6219Q153.99301 306.6219 153.05551 305.6375Q152.11801 304.65314 152.11801 302.825ZM153.38364 302.825Q153.38364 304.21564 153.99301 304.91876Q154.60239 305.60626 155.52426 305.60626Q156.43051 305.60626 157.03989 304.90314Q157.64926 304.2 157.64926 302.77814Q157.64926 301.4344 157.03989 300.7469Q156.43051 300.04376 155.52426 300.04376Q154.60239 300.04376 153.99301 300.73126Q153.38364 301.41876 153.38364 302.825ZM160.57114 309.23126L160.57114 299.1844L161.69614 299.1844L161.69614 300.1375Q162.08676 299.575 162.58676 299.3094Q163.08676 299.02814 163.80551 299.02814Q164.72739 299.02814 165.43051 299.5125Q166.14926 299.98126 166.50864 300.85626Q166.86801 301.73126 166.86801 302.7625Q166.86801 303.8719 166.46176 304.77814Q166.07114 305.66876 165.30551 306.15314Q164.55551 306.6219 163.71176 306.6219Q163.10239 306.6219 162.60239 306.35626Q162.11801 306.09064 161.80551 305.7L161.80551 309.23126L160.57114 309.23126ZM161.68051 302.85626Q161.68051 304.2625 162.24301 304.9344Q162.82114 305.60626 163.63364 305.60626Q164.44614 305.60626 165.02426 304.91876Q165.61801 304.21564 165.61801 302.7625Q165.61801 301.3719 165.03989 300.6844Q164.47739 299.9969 163.68051 299.9969Q162.89926 299.9969 162.28989 300.73126Q161.68051 301.46564 161.68051 302.85626ZM168.35239 307.0594L169.53989 307.23126Q169.61801 307.77814 169.96176 308.04376Q170.41489 308.3719 171.21176 308.3719Q172.07114 308.3719 172.52426 308.02814Q172.99301 307.7 173.16489 307.075Q173.25864 306.7 173.24301 305.4969Q172.44614 306.45 171.24301 306.45Q169.74301 306.45 168.91489 305.3719Q168.10239 304.29376 168.10239 302.77814Q168.10239 301.7469 168.47739 300.8719Q168.85239 299.98126 169.55551 299.5125Q170.27426 299.02814 171.24301 299.02814Q172.52426 299.02814 173.36801 300.0594L173.36801 299.1844L174.49301 299.1844L174.49301 305.46564Q174.49301 307.16876 174.14926 307.8719Q173.80551 308.575 173.05551 308.98126Q172.30551 309.40314 171.21176 309.40314Q169.91489 309.40314 169.11801 308.8094Q168.32114 308.23126 168.35239 307.0594ZM169.36801 302.6844Q169.36801 304.1219 169.93051 304.77814Q170.49301 305.4344 171.35239 305.4344Q172.19614 305.4344 172.77426 304.77814Q173.35239 304.1219 173.35239 302.73126Q173.35239 301.40314 172.75864 300.73126Q172.16489 300.04376 171.33676 300.04376Q170.50864 300.04376 169.93051 300.71564Q169.36801 301.3719 169.36801 302.6844ZM180.08676 304.27814L181.28989 304.09064Q181.39926 304.825 181.86801 305.21564Q182.33676 305.60626 183.18051 305.60626Q184.02426 305.60626 184.43051 305.2625Q184.85239 304.91876 184.85239 304.45Q184.85239 304.02814 184.47739 303.79376Q184.22739 303.6219 183.22739 303.3719Q181.86801 303.02814 181.33676 302.77814Q180.82114 302.52814 180.55551 302.09064Q180.28989 301.65314 180.28989 301.1219Q180.28989 300.6375 180.50864 300.23126Q180.72739 299.8094 181.11801 299.52814Q181.39926 299.325 181.88364 299.1844Q182.38364 299.02814 182.96176 299.02814Q183.80551 299.02814 184.44614 299.27814Q185.10239 299.5125 185.41489 299.9344Q185.72739 300.35626 185.83676 301.0594L184.63364 301.23126Q184.55551 300.66876 184.14926 300.35626Q183.75864 300.04376 183.03989 300.04376Q182.19614 300.04376 181.83676 300.325Q181.47739 300.59064 181.47739 300.98126Q181.47739 301.21564 181.61801 301.40314Q181.77426 301.60626 182.10239 301.73126Q182.27426 301.79376 183.18051 302.04376Q184.49301 302.40314 185.00864 302.6219Q185.52426 302.84064 185.80551 303.2625Q186.10239 303.6844 186.10239 304.3094Q186.10239 304.9344 185.74301 305.48126Q185.39926 306.0125 184.71176 306.325Q184.03989 306.6219 183.18051 306.6219Q181.77426 306.6219 181.02426 306.02814Q180.28989 305.4344 180.08676 304.27814ZM187.52426 309.2469L187.38364 308.09064Q187.78989 308.2 188.08676 308.2Q188.49301 308.2 188.74301 308.0594Q188.99301 307.9344 189.14926 307.6844Q189.25864 307.4969 189.52426 306.7625Q189.55551 306.66876 189.63364 306.46564L186.86801 299.1844L188.19614 299.1844L189.71176 303.3875Q190.00864 304.2 190.24301 305.075Q190.44614 304.23126 190.74301 303.41876L192.28989 299.1844L193.52426 299.1844L190.75864 306.575Q190.32114 307.7625 190.07114 308.21564Q189.74301 308.825 189.32114 309.10626Q188.89926 309.40314 188.30551 309.40314Q187.96176 309.40314 187.52426 309.2469ZM194.57114 306.45L194.57114 299.1844L195.68051 299.1844L195.68051 300.21564Q196.47739 299.02814 197.99301 299.02814Q198.64926 299.02814 199.19614 299.2625Q199.74301 299.4969 200.00864 299.8875Q200.28989 300.2625 200.39926 300.79376Q200.47739 301.1375 200.47739 301.98126L200.47739 306.45L199.24301 306.45L199.24301 302.02814Q199.24301 301.27814 199.10239 300.91876Q198.96176 300.54376 198.58676 300.325Q198.22739 300.09064 197.72739 300.09064Q196.94614 300.09064 196.36801 300.59064Q195.80551 301.09064 195.80551 302.48126L195.80551 306.45L194.57114 306.45ZM207.30551 303.79376L208.52426 303.95Q208.32114 305.2 207.49301 305.91876Q206.68051 306.6219 205.49301 306.6219Q204.00864 306.6219 203.10239 305.65314Q202.19614 304.66876 202.19614 302.84064Q202.19614 301.66876 202.58676 300.79376Q202.97739 299.90314 203.77426 299.46564Q204.57114 299.02814 205.50864 299.02814Q206.68051 299.02814 207.43051 299.6219Q208.19614 300.21564 208.39926 301.325L207.21176 301.5125Q207.03989 300.77814 206.60239 300.41876Q206.16489 300.04376 205.55551 300.04376Q204.61801 300.04376 204.03989 300.71564Q203.46176 301.3719 203.46176 302.8094Q203.46176 304.27814 204.02426 304.95Q204.58676 305.60626 205.47739 305.60626Q206.21176 305.60626 206.69614 305.16876Q207.18051 304.71564 207.30551 303.79376Z" fill-rule="nonzero"/><path fill="#000000" d="M223.42188 309.23126L223.42188 299.1844L224.54688 299.1844L224.54688 300.1375Q224.9375 299.575 225.4375 299.3094Q225.9375 299.02814 226.65625 299.02814Q227.57812 299.02814 228.28125 299.5125Q229.0 299.98126 229.35938 300.85626Q229.71875 301.73126 229.71875 302.7625Q229.71875 303.8719 229.3125 304.77814Q228.92188 305.66876 228.15625 306.15314Q227.40625 306.6219 226.5625 306.6219Q225.95312 306.6219 225.45312 306.35626Q224.96875 306.09064 224.65625 305.7L224.65625 309.23126L223.42188 309.23126ZM224.53125 302.85626Q224.53125 304.2625 225.09375 304.9344Q225.67188 305.60626 226.48438 305.60626Q227.29688 305.60626 227.875 304.91876Q228.46875 304.21564 228.46875 302.7625Q228.46875 301.3719 227.89062 300.6844Q227.32812 299.9969 226.53125 299.9969Q225.75 299.9969 225.14062 300.73126Q224.53125 301.46564 224.53125 302.85626ZM230.9375 304.27814L232.14062 304.09064Q232.25 304.825 232.71875 305.21564Q233.1875 305.60626 234.03125 305.60626Q234.875 305.60626 235.28125 305.2625Q235.70312 304.91876 235.70312 304.45Q235.70312 304.02814 235.32812 303.79376Q235.07812 303.6219 234.07812 303.3719Q232.71875 303.02814 232.1875 302.77814Q231.67188 302.52814 231.40625 302.09064Q231.14062 301.65314 231.14062 301.1219Q231.14062 300.6375 231.35938 300.23126Q231.57812 299.8094 231.96875 299.52814Q232.25 299.325 232.73438 299.1844Q233.23438 299.02814 233.8125 299.02814Q234.65625 299.02814 235.29688 299.27814Q235.95312 299.5125 236.26562 299.9344Q236.57812 300.35626 236.6875 301.0594L235.48438 301.23126Q235.40625 300.66876 235.0 300.35626Q234.60938 300.04376 233.89062 300.04376Q233.04688 300.04376 232.6875 300.325Q232.32812 300.59064 232.32812 300.98126Q232.32812 301.21564 232.46875 301.40314Q232.625 301.60626 232.95312 301.73126Q233.125 301.79376 234.03125 302.04376Q235.34375 302.40314 235.85938 302.6219Q236.375 302.84064 236.65625 303.2625Q236.95312 303.6844 236.95312 304.3094Q236.95312 304.9344 236.59375 305.48126Q236.25 306.0125 235.5625 306.325Q234.89062 306.6219 234.03125 306.6219Q232.625 306.6219 231.875 306.02814Q231.14062 305.4344 230.9375 304.27814ZM238.375 309.2469L238.23438 308.09064Q238.64062 308.2 238.9375 308.2Q239.34375 308.2 239.59375 308.0594Q239.84375 307.9344 240.0 307.6844Q240.10938 307.4969 240.375 306.7625Q240.40625 306.66876 240.48438 306.46564L237.71875 299.1844L239.04688 299.1844L240.5625 303.3875Q240.85938 304.2 241.09375 305.075Q241.29688 304.23126 241.59375 303.41876L243.14062 299.1844L244.375 299.1844L241.60938 306.575Q241.17188 307.7625 240.92188 308.21564Q240.59375 308.825 240.17188 309.10626Q239.75 309.40314 239.15625 309.40314Q238.8125 309.40314 238.375 309.2469ZM250.15625 303.79376L251.375 303.95Q251.17188 305.2 250.34375 305.91876Q249.53125 306.6219 248.34375 306.6219Q246.85938 306.6219 245.95312 305.65314Q245.04688 304.66876 245.04688 302.84064Q245.04688 301.66876 245.4375 300.79376Q245.82812 299.90314 246.625 299.46564Q247.42188 299.02814 248.35938 299.02814Q249.53125 299.02814 250.28125 299.6219Q251.04688 300.21564 251.25 301.325L250.0625 301.5125Q249.89062 300.77814 249.45312 300.41876Q249.01562 300.04376 248.40625 300.04376Q247.46875 300.04376 246.89062 300.71564Q246.3125 301.3719 246.3125 302.8094Q246.3125 304.27814 246.875 304.95Q247.4375 305.60626 248.32812 305.60626Q249.0625 305.60626 249.54688 305.16876Q250.03125 304.71564 250.15625 303.79376ZM251.96875 302.825Q251.96875 300.8094 253.09375 299.825Q254.01562 299.02814 255.375 299.02814Q256.85938 299.02814 257.8125 300.0125Q258.76562 300.98126 258.76562 302.71564Q258.76562 304.1219 258.34375 304.9344Q257.92188 305.73126 257.10938 306.1844Q256.3125 306.6219 255.375 306.6219Q253.84375 306.6219 252.90625 305.6375Q251.96875 304.65314 251.96875 302.825ZM253.23438 302.825Q253.23438 304.21564 253.84375 304.91876Q254.45312 305.60626 255.375 305.60626Q256.28125 305.60626 256.89062 304.90314Q257.5 304.2 257.5 302.77814Q257.5 301.4344 256.89062 300.7469Q256.28125 300.04376 255.375 300.04376Q254.45312 300.04376 253.84375 300.73126Q253.23438 301.41876 253.23438 302.825ZM260.42188 309.23126L260.42188 299.1844L261.54688 299.1844L261.54688 300.1375Q261.9375 299.575 262.4375 299.3094Q262.9375 299.02814 263.65625 299.02814Q264.57812 299.02814 265.28125 299.5125Q266.0 299.98126 266.35938 300.85626Q266.71875 301.73126 266.71875 302.7625Q266.71875 303.8719 266.3125 304.77814Q265.92188 305.66876 265.15625 306.15314Q264.40625 306.6219 263.5625 306.6219Q262.95312 306.6219 262.45312 306.35626Q261.96875 306.09064 261.65625 305.7L261.65625 309.23126L260.42188 309.23126ZM261.53125 302.85626Q261.53125 304.2625 262.09375 304.9344Q262.67188 305.60626 263.48438 305.60626Q264.29688 305.60626 264.875 304.91876Q265.46875 304.21564 265.46875 302.7625Q265.46875 301.3719 264.89062 300.6844Q264.32812 299.9969 263.53125 299.9969Q262.75 299.9969 262.14062 300.73126Q261.53125 301.46564 261.53125 302.85626ZM268.20312 307.0594L269.39062 307.23126Q269.46875 307.77814 269.8125 308.04376Q270.26562 308.3719 271.0625 308.3719Q271.92188 308.3719 272.375 308.02814Q272.84375 307.7 273.01562 307.075Q273.10938 306.7 273.09375 305.4969Q272.29688 306.45 271.09375 306.45Q269.59375 306.45 268.76562 305.3719Q267.95312 304.29376 267.95312 302.77814Q267.95312 301.7469 268.32812 300.8719Q268.70312 299.98126 269.40625 299.5125Q270.125 299.02814 271.09375 299.02814Q272.375 299.02814 273.21875 300.0594L273.21875 299.1844L274.34375 299.1844L274.34375 305.46564Q274.34375 307.16876 274.0 307.8719Q273.65625 308.575 272.90625 308.98126Q272.15625 309.40314 271.0625 309.40314Q269.76562 309.40314 268.96875 308.8094Q268.17188 308.23126 268.20312 307.0594ZM269.21875 302.6844Q269.21875 304.1219 269.78125 304.77814Q270.34375 305.4344 271.20312 305.4344Q272.04688 305.4344 272.625 304.77814Q273.20312 304.1219 273.20312 302.73126Q273.20312 301.40314 272.60938 300.73126Q272.01562 300.04376 271.1875 300.04376Q270.35938 300.04376 269.78125 300.71564Q269.21875 301.3719 269.21875 302.6844ZM285.15625 305.5594Q284.48438 306.1375 283.84375 306.3875Q283.21875 306.6219 282.48438 306.6219Q281.29688 306.6219 280.64062 306.04376Q280.0 305.45 280.0 304.52814Q280.0 303.9969 280.23438 303.5594Q280.48438 303.1219 280.875 302.85626Q281.28125 302.59064 281.76562 302.45Q282.125 302.35626 282.85938 302.2625Q284.35938 302.09064 285.0625 301.84064Q285.0625 301.59064 285.0625 301.52814Q285.0625 300.7625 284.71875 300.46564Q284.25 300.04376 283.3125 300.04376Q282.45312 300.04376 282.03125 300.35626Q281.625 300.65314 281.42188 301.41876L280.21875 301.2625Q280.375 300.48126 280.75 300.0125Q281.14062 299.54376 281.84375 299.29376Q282.5625 299.02814 283.5 299.02814Q284.42188 299.02814 285.0 299.2469Q285.57812 299.46564 285.84375 299.79376Q286.125 300.1219 286.23438 300.6375Q286.29688 300.95 286.29688 301.7625L286.29688 303.40314Q286.29688 305.1219 286.375 305.575Q286.45312 306.02814 286.6875 306.45L285.40625 306.45Q285.21875 306.0594 285.15625 305.5594ZM285.0625 302.8094Q284.39062 303.075 283.04688 303.27814Q282.29688 303.3875 281.96875 303.52814Q281.65625 303.65314 281.48438 303.91876Q281.3125 304.1844 281.3125 304.4969Q281.3125 304.9969 281.6875 305.325Q282.0625 305.65314 282.78125 305.65314Q283.5 305.65314 284.04688 305.34064Q284.59375 305.02814 284.85938 304.48126Q285.0625 304.075 285.0625 303.2625L285.0625 302.8094ZM287.9375 304.27814L289.14062 304.09064Q289.25 304.825 289.71875 305.21564Q290.1875 305.60626 291.03125 305.60626Q291.875 305.60626 292.28125 305.2625Q292.70312 304.91876 292.70312 304.45Q292.70312 304.02814 292.32812 303.79376Q292.07812 303.6219 291.07812 303.3719Q289.71875 303.02814 289.1875 302.77814Q288.67188 302.52814 288.40625 302.09064Q288.14062 301.65314 288.14062 301.1219Q288.14062 300.6375 288.35938 300.23126Q288.57812 299.8094 288.96875 299.52814Q289.25 299.325 289.73438 299.1844Q290.23438 299.02814 290.8125 299.02814Q291.65625 299.02814 292.29688 299.27814Q292.95312 299.5125 293.26562 299.9344Q293.57812 300.35626 293.6875 301.0594L292.48438 301.23126Q292.40625 300.66876 292.0 300.35626Q291.60938 300.04376 290.89062 300.04376Q290.04688 300.04376 289.6875 300.325Q289.32812 300.59064 289.32812 300.98126Q289.32812 301.21564 289.46875 301.40314Q289.625 301.60626 289.95312 301.73126Q290.125 301.79376 291.03125 302.04376Q292.34375 302.40314 292.85938 302.6219Q293.375 302.84064 293.65625 303.2625Q293.95312 303.6844 293.95312 304.3094Q293.95312 304.9344 293.59375 305.48126Q293.25 306.0125 292.5625 306.325Q291.89062 306.6219 291.03125 306.6219Q289.625 306.6219 288.875 306.02814Q288.14062 305.4344 287.9375 304.27814ZM295.375 309.2469L295.23438 308.09064Q295.64062 308.2 295.9375 308.2Q296.34375 308.2 296.59375 308.0594Q296.84375 307.9344 297.0 307.6844Q297.10938 307.4969 297.375 306.7625Q297.40625 306.66876 297.48438 306.46564L294.71875 299.1844L296.04688 299.1844L297.5625 303.3875Q297.85938 304.2 298.09375 305.075Q298.29688 304.23126 298.59375 303.41876L300.14062 299.1844L301.375 299.1844L298.60938 306.575Q298.17188 307.7625 297.92188 308.21564Q297.59375 308.825 297.17188 309.10626Q296.75 309.40314 296.15625 309.40314Q295.8125 309.40314 295.375 309.2469ZM302.42188 306.45L302.42188 299.1844L303.53125 299.1844L303.53125 300.21564Q304.32812 299.02814 305.84375 299.02814Q306.5 299.02814 307.04688 299.2625Q307.59375 299.4969 307.85938 299.8875Q308.14062 300.2625 308.25 300.79376Q308.32812 301.1375 308.32812 301.98126L308.32812 306.45L307.09375 306.45L307.09375 302.02814Q307.09375 301.27814 306.95312 300.91876Q306.8125 300.54376 306.4375 300.325Q306.07812 300.09064 305.57812 300.09064Q304.79688 300.09064 304.21875 300.59064Q303.65625 301.09064 303.65625 302.48126L303.65625 306.45L302.42188 306.45ZM315.15625 303.79376L316.375 303.95Q316.17188 305.2 315.34375 305.91876Q314.53125 306.6219 313.34375 306.6219Q311.85938 306.6219 310.95312 305.65314Q310.04688 304.66876 310.04688 302.84064Q310.04688 301.66876 310.4375 300.79376Q310.82812 299.90314 311.625 299.46564Q312.42188 299.02814 313.35938 299.02814Q314.53125 299.02814 315.28125 299.6219Q316.04688 300.21564 316.25 301.325L315.0625 301.5125Q314.89062 300.77814 314.45312 300.41876Q314.01562 300.04376 313.40625 300.04376Q312.46875 300.04376 311.89062 300.71564Q311.3125 301.3719 311.3125 302.8094Q311.3125 304.27814 311.875 304.95Q312.4375 305.60626 313.32812 305.60626Q314.0625 305.60626 314.54688 305.16876Q315.03125 304.71564 315.15625 303.79376Z" fill-rule="nonzero"/><path fill="#000000" d="M352.507 305.5594Q351.8351 306.1375 351.1945 306.3875Q350.5695 306.6219 349.8351 306.6219Q348.6476 306.6219 347.99136 306.04376Q347.35074 305.45 347.35074 304.52814Q347.35074 303.9969 347.5851 303.5594Q347.8351 303.1219 348.22574 302.85626Q348.632 302.59064 349.11636 302.45Q349.47574 302.35626 350.2101 302.2625Q351.7101 302.09064 352.41324 301.84064Q352.41324 301.59064 352.41324 301.52814Q352.41324 300.7625 352.0695 300.46564Q351.60074 300.04376 350.66324 300.04376Q349.80386 300.04376 349.382 300.35626Q348.97574 300.65314 348.7726 301.41876L347.5695 301.2625Q347.72574 300.48126 348.10074 300.0125Q348.49136 299.54376 349.1945 299.29376Q349.91324 299.02814 350.85074 299.02814Q351.7726 299.02814 352.35074 299.2469Q352.92886 299.46564 353.1945 299.79376Q353.47574 300.1219 353.5851 300.6375Q353.6476 300.95 353.6476 301.7625L353.6476 303.40314Q353.6476 305.1219 353.72574 305.575Q353.80386 306.02814 354.03824 306.45L352.757 306.45Q352.5695 306.0594 352.507 305.5594ZM352.41324 302.8094Q351.74136 303.075 350.3976 303.27814Q349.6476 303.3875 349.3195 303.52814Q349.007 303.65314 348.8351 303.91876Q348.66324 304.1844 348.66324 304.4969Q348.66324 304.9969 349.03824 305.325Q349.41324 305.65314 350.132 305.65314Q350.85074 305.65314 351.3976 305.34064Q351.9445 305.02814 352.2101 304.48126Q352.41324 304.075 352.41324 303.2625L352.41324 302.8094ZM355.28824 304.27814L356.49136 304.09064Q356.60074 304.825 357.0695 305.21564Q357.53824 305.60626 358.382 305.60626Q359.22574 305.60626 359.632 305.2625Q360.05386 304.91876 360.05386 304.45Q360.05386 304.02814 359.67886 303.79376Q359.42886 303.6219 358.42886 303.3719Q357.0695 303.02814 356.53824 302.77814Q356.0226 302.52814 355.757 302.09064Q355.49136 301.65314 355.49136 301.1219Q355.49136 300.6375 355.7101 300.23126Q355.92886 299.8094 356.3195 299.52814Q356.60074 299.325 357.0851 299.1844Q357.5851 299.02814 358.16324 299.02814Q359.007 299.02814 359.6476 299.27814Q360.30386 299.5125 360.61636 299.9344Q360.92886 300.35626 361.03824 301.0594L359.8351 301.23126Q359.757 300.66876 359.35074 300.35626Q358.9601 300.04376 358.24136 300.04376Q357.3976 300.04376 357.03824 300.325Q356.67886 300.59064 356.67886 300.98126Q356.67886 301.21564 356.8195 301.40314Q356.97574 301.60626 357.30386 301.73126Q357.47574 301.79376 358.382 302.04376Q359.6945 302.40314 360.2101 302.6219Q360.72574 302.84064 361.007 303.2625Q361.30386 303.6844 361.30386 304.3094Q361.30386 304.9344 360.9445 305.48126Q360.60074 306.0125 359.91324 306.325Q359.24136 306.6219 358.382 306.6219Q356.97574 306.6219 356.22574 306.02814Q355.49136 305.4344 355.28824 304.27814ZM362.72574 309.2469L362.5851 308.09064Q362.99136 308.2 363.28824 308.2Q363.6945 308.2 363.9445 308.0594Q364.1945 307.9344 364.35074 307.6844Q364.4601 307.4969 364.72574 306.7625Q364.757 306.66876 364.8351 306.46564L362.0695 299.1844L363.3976 299.1844L364.91324 303.3875Q365.2101 304.2 365.4445 305.075Q365.6476 304.23126 365.9445 303.41876L367.49136 299.1844L368.72574 299.1844L365.9601 306.575Q365.5226 307.7625 365.2726 308.21564Q364.9445 308.825 364.5226 309.10626Q364.10074 309.40314 363.507 309.40314Q363.16324 309.40314 362.72574 309.2469ZM369.7726 306.45L369.7726 299.1844L370.882 299.1844L370.882 300.21564Q371.67886 299.02814 373.1945 299.02814Q373.85074 299.02814 374.3976 299.2625Q374.9445 299.4969 375.2101 299.8875Q375.49136 300.2625 375.60074 300.79376Q375.67886 301.1375 375.67886 301.98126L375.67886 306.45L374.4445 306.45L374.4445 302.02814Q374.4445 301.27814 374.30386 300.91876Q374.16324 300.54376 373.78824 300.325Q373.42886 300.09064 372.92886 300.09064Q372.1476 300.09064 371.5695 300.59064Q371.007 301.09064 371.007 302.48126L371.007 306.45L369.7726 306.45ZM382.507 303.79376L383.72574 303.95Q383.5226 305.2 382.6945 305.91876Q381.882 306.6219 380.6945 306.6219Q379.2101 306.6219 378.30386 305.65314Q377.3976 304.66876 377.3976 302.84064Q377.3976 301.66876 377.78824 300.79376Q378.17886 299.90314 378.97574 299.46564Q379.7726 299.02814 380.7101 299.02814Q381.882 299.02814 382.632 299.6219Q383.3976 300.21564 383.60074 301.325L382.41324 301.5125Q382.24136 300.77814 381.80386 300.41876Q381.36636 300.04376 380.757 300.04376Q379.8195 300.04376 379.24136 300.71564Q378.66324 301.3719 378.66324 302.8094Q378.66324 304.27814 379.22574 304.95Q379.78824 305.60626 380.67886 305.60626Q381.41324 305.60626 381.8976 305.16876Q382.382 304.71564 382.507 303.79376ZM384.7726 309.23126L384.7726 299.1844L385.8976 299.1844L385.8976 300.1375Q386.28824 299.575 386.78824 299.3094Q387.28824 299.02814 388.007 299.02814Q388.92886 299.02814 389.632 299.5125Q390.35074 299.98126 390.7101 300.85626Q391.0695 301.73126 391.0695 302.7625Q391.0695 303.8719 390.66324 304.77814Q390.2726 305.66876 389.507 306.15314Q388.757 306.6219 387.91324 306.6219Q387.30386 306.6219 386.80386 306.35626Q386.3195 306.09064 386.007 305.7L386.007 309.23126L384.7726 309.23126ZM385.882 302.85626Q385.882 304.2625 386.4445 304.9344Q387.0226 305.60626 387.8351 305.60626Q388.6476 305.60626 389.22574 304.91876Q389.8195 304.21564 389.8195 302.7625Q389.8195 301.3719 389.24136 300.6844Q388.67886 299.9969 387.882 299.9969Q387.10074 299.9969 386.49136 300.73126Q385.882 301.46564 385.882 302.85626ZM392.55386 307.0594L393.74136 307.23126Q393.8195 307.77814 394.16324 308.04376Q394.61636 308.3719 395.41324 308.3719Q396.2726 308.3719 396.72574 308.02814Q397.1945 307.7 397.36636 307.075Q397.4601 306.7 397.4445 305.4969Q396.6476 306.45 395.4445 306.45Q393.9445 306.45 393.11636 305.3719Q392.30386 304.29376 392.30386 302.77814Q392.30386 301.7469 392.67886 300.8719Q393.05386 299.98126 393.757 299.5125Q394.47574 299.02814 395.4445 299.02814Q396.72574 299.02814 397.5695 300.0594L397.5695 299.1844L398.6945 299.1844L398.6945 305.46564Q398.6945 307.16876 398.35074 307.8719Q398.007 308.575 397.257 308.98126Q396.507 309.40314 395.41324 309.40314Q394.11636 309.40314 393.3195 308.8094Q392.5226 308.23126 392.55386 307.0594ZM393.5695 302.6844Q393.5695 304.1219 394.132 304.77814Q394.6945 305.4344 395.55386 305.4344Q396.3976 305.4344 396.97574 304.77814Q397.55386 304.1219 397.55386 302.73126Q397.55386 301.40314 396.9601 300.73126Q396.36636 300.04376 395.53824 300.04376Q394.7101 300.04376 394.132 300.71564Q393.5695 301.3719 393.5695 302.6844Z" fill-rule="nonzero"/><path fill="#000000" d="M174.0625 37.55L171.3125 37.55L171.3125 27.175L173.875 27.175L173.875 28.659374Q174.51562 27.6125 175.03125 27.284374Q175.5625 26.940624 176.23438 26.940624Q177.17188 26.940624 178.03125 27.45625L177.1875 29.846874Q176.5 29.409374 175.90625 29.409374Q175.32812 29.409374 174.92188 29.721874Q174.51562 30.034374 174.28125 30.878124Q174.0625 31.70625 174.0625 34.346874L174.0625 37.55ZM185.4375 34.253124L188.17188 34.70625Q187.65625 36.20625 186.51562 37.003124Q185.375 37.784374 183.67188 37.784374Q180.95312 37.784374 179.65625 36.01875Q178.64062 34.596874 178.64062 32.440624Q178.64062 29.8625 179.98438 28.409374Q181.32812 26.940624 183.39062 26.940624Q185.70312 26.940624 187.03125 28.471874Q188.375 30.003124 188.32812 33.159374L181.45312 33.159374Q181.48438 34.378124 182.10938 35.065624Q182.75 35.7375 183.6875 35.7375Q184.34375 35.7375 184.78125 35.39375Q185.21875 35.034374 185.4375 34.253124ZM185.59375 31.471874Q185.5625 30.284374 184.96875 29.675Q184.39062 29.05 183.5625 29.05Q182.65625 29.05 182.07812 29.690624Q181.48438 30.346874 181.5 31.471874L185.59375 31.471874ZM197.21875 41.503124L197.21875 36.284374Q196.67188 36.971874 195.875 37.378124Q195.07812 37.784374 194.14062 37.784374Q192.375 37.784374 191.23438 36.45625Q189.89062 34.909374 189.89062 32.253124Q189.89062 29.753124 191.15625 28.346874Q192.42188 26.940624 194.29688 26.940624Q195.32812 26.940624 196.07812 27.378124Q196.84375 27.815624 197.42188 28.70625L197.42188 27.175L199.95312 27.175L199.95312 41.503124L197.21875 41.503124ZM197.29688 32.2375Q197.29688 30.64375 196.64062 29.878124Q196.0 29.096874 195.03125 29.096874Q194.03125 29.096874 193.35938 29.89375Q192.6875 30.675 192.6875 32.39375Q192.6875 34.096874 193.32812 34.8625Q193.98438 35.6125 194.92188 35.6125Q195.875 35.6125 196.57812 34.76875Q197.29688 33.909374 197.29688 32.2375ZM209.26562 37.55L209.26562 36.003124Q208.70312 36.83125 207.76562 37.315624Q206.84375 37.784374 205.82812 37.784374Q204.78125 37.784374 203.95312 37.33125Q203.125 36.8625 202.75 36.034374Q202.375 35.20625 202.375 33.7375L202.375 27.175L205.125 27.175L205.125 31.940624Q205.125 34.128124 205.26562 34.628124Q205.42188 35.1125 205.8125 35.409374Q206.21875 35.690624 206.84375 35.690624Q207.54688 35.690624 208.09375 35.315624Q208.65625 34.925 208.85938 34.3625Q209.0625 33.784374 209.0625 31.55L209.0625 27.175L211.8125 27.175L211.8125 37.55L209.26562 37.55ZM220.4375 34.253124L223.17188 34.70625Q222.65625 36.20625 221.51562 37.003124Q220.375 37.784374 218.67188 37.784374Q215.95312 37.784374 214.65625 36.01875Q213.64062 34.596874 213.64062 32.440624Q213.64062 29.8625 214.98438 28.409374Q216.32812 26.940624 218.39062 26.940624Q220.70312 26.940624 222.03125 28.471874Q223.375 30.003124 223.32812 33.159374L216.45312 33.159374Q216.48438 34.378124 217.10938 35.065624Q217.75 35.7375 218.6875 35.7375Q219.34375 35.7375 219.78125 35.39375Q220.21875 35.034374 220.4375 34.253124ZM220.59375 31.471874Q220.5625 30.284374 219.96875 29.675Q219.39062 29.05 218.5625 29.05Q217.65625 29.05 217.07812 29.690624Q216.48438 30.346874 216.5 31.471874L220.59375 31.471874ZM224.46875 34.596874L227.21875 34.175Q227.40625 34.971874 227.9375 35.39375Q228.46875 35.8 229.4375 35.8Q230.5 35.8 231.04688 35.409374Q231.40625 35.14375 231.40625 34.675Q231.40625 34.3625 231.20312 34.159374Q231.0 33.971874 230.29688 33.8Q226.96875 33.065624 226.07812 32.45625Q224.84375 31.628124 224.84375 30.128124Q224.84375 28.784374 225.90625 27.8625Q226.98438 26.940624 229.21875 26.940624Q231.34375 26.940624 232.375 27.64375Q233.42188 28.33125 233.8125 29.690624L231.21875 30.159374Q231.04688 29.565624 230.57812 29.2375Q230.125 28.909374 229.26562 28.909374Q228.1875 28.909374 227.71875 29.221874Q227.40625 29.440624 227.40625 29.76875Q227.40625 30.065624 227.67188 30.26875Q228.04688 30.55 230.23438 31.05Q232.42188 31.55 233.29688 32.26875Q234.15625 33.003124 234.15625 34.3Q234.15625 35.7375 232.96875 36.76875Q231.78125 37.784374 229.4375 37.784374Q227.32812 37.784374 226.07812 36.925Q224.84375 36.065624 224.46875 34.596874ZM241.1875 27.175L241.1875 29.3625L239.3125 29.3625L239.3125 33.55Q239.3125 34.815624 239.35938 35.034374Q239.42188 35.2375 239.60938 35.378124Q239.8125 35.503124 240.07812 35.503124Q240.45312 35.503124 241.1875 35.2375L241.42188 37.378124Q240.45312 37.784374 239.25 37.784374Q238.5 37.784374 237.90625 37.534374Q237.3125 37.284374 237.03125 36.89375Q236.76562 36.4875 236.65625 35.815624Q236.5625 35.346874 236.5625 33.89375L236.5625 29.3625L235.29688 29.3625L235.29688 27.175L236.5625 27.175L236.5625 25.1125L239.3125 23.51875L239.3125 27.175L241.1875 27.175ZM242.46875 34.596874L245.21875 34.175Q245.40625 34.971874 245.9375 35.39375Q246.46875 35.8 247.4375 35.8Q248.5 35.8 249.04688 35.409374Q249.40625 35.14375 249.40625 34.675Q249.40625 34.3625 249.20312 34.159374Q249.0 33.971874 248.29688 33.8Q244.96875 33.065624 244.07812 32.45625Q242.84375 31.628124 242.84375 30.128124Q242.84375 28.784374 243.90625 27.8625Q244.98438 26.940624 247.21875 26.940624Q249.34375 26.940624 250.375 27.64375Q251.42188 28.33125 251.8125 29.690624L249.21875 30.159374Q249.04688 29.565624 248.57812 29.2375Q248.125 28.909374 247.26562 28.909374Q246.1875 28.909374 245.71875 29.221874Q245.40625 29.440624 245.40625 29.76875Q245.40625 30.065624 245.67188 30.26875Q246.04688 30.55 248.23438 31.05Q250.42188 31.55 251.29688 32.26875Q252.15625 33.003124 252.15625 34.3Q252.15625 35.7375 250.96875 36.76875Q249.78125 37.784374 247.4375 37.784374Q245.32812 37.784374 244.07812 36.925Q242.84375 36.065624 242.46875 34.596874ZM252.96875 37.8L256.51562 22.9875L258.57812 22.9875L255.0 37.8L252.96875 37.8ZM259.46875 34.596874L262.21875 34.175Q262.40625 34.971874 262.9375 35.39375Q263.46875 35.8 264.4375 35.8Q265.5 35.8 266.04688 35.409374Q266.40625 35.14375 266.40625 34.675Q266.40625 34.3625 266.20312 34.159374Q266.0 33.971874 265.29688 33.8Q261.96875 33.065624 261.07812 32.45625Q259.84375 31.628124 259.84375 30.128124Q259.84375 28.784374 260.90625 27.8625Q261.98438 26.940624 264.21875 26.940624Q266.34375 26.940624 267.375 27.64375Q268.42188 28.33125 268.8125 29.690624L266.21875 30.159374Q266.04688 29.565624 265.57812 29.2375Q265.125 28.909374 264.26562 28.909374Q263.1875 28.909374 262.71875 29.221874Q262.40625 29.440624 262.40625 29.76875Q262.40625 30.065624 262.67188 30.26875Q263.04688 30.55 265.23438 31.05Q267.42188 31.55 268.29688 32.26875Q269.15625 33.003124 269.15625 34.3Q269.15625 35.7375 267.96875 36.76875Q266.78125 37.784374 264.4375 37.784374Q262.32812 37.784374 261.07812 36.925Q259.84375 36.065624 259.46875 34.596874ZM277.4375 34.253124L280.17188 34.70625Q279.65625 36.20625 278.51562 37.003124Q277.375 37.784374 275.67188 37.784374Q272.95312 37.784374 271.65625 36.01875Q270.64062 34.596874 270.64062 32.440624Q270.64062 29.8625 271.98438 28.409374Q273.32812 26.940624 275.39062 26.940624Q277.70312 26.940624 279.03125 28.471874Q280.375 30.003124 280.32812 33.159374L273.45312 33.159374Q273.48438 34.378124 274.10938 35.065624Q274.75 35.7375 275.6875 35.7375Q276.34375 35.7375 276.78125 35.39375Q277.21875 35.034374 277.4375 34.253124ZM277.59375 31.471874Q277.5625 30.284374 276.96875 29.675Q276.39062 29.05 275.5625 29.05Q274.65625 29.05 274.07812 29.690624Q273.48438 30.346874 273.5 31.471874L277.59375 31.471874ZM291.48438 30.2375L288.78125 30.7375Q288.64062 29.925 288.15625 29.51875Q287.67188 29.096874 286.90625 29.096874Q285.875 29.096874 285.26562 29.815624Q284.65625 30.51875 284.65625 32.175Q284.65625 34.01875 285.26562 34.784374Q285.89062 35.55 286.9375 35.55Q287.71875 35.55 288.21875 35.1125Q288.71875 34.659374 288.92188 33.58125L291.60938 34.034374Q291.20312 35.89375 290.0 36.846874Q288.8125 37.784374 286.8125 37.784374Q284.53125 37.784374 283.17188 36.346874Q281.82812 34.909374 281.82812 32.378124Q281.82812 29.8 283.1875 28.378124Q284.54688 26.940624 286.85938 26.940624Q288.75 26.940624 289.85938 27.76875Q290.98438 28.58125 291.48438 30.2375Z" fill-rule="nonzero"/></svg>